<?xml version="1.0" encoding="UTF-8" standalone="no"?>
<svg
   version="1.1"
   id="Layer_1"
   x="0px"
   y="0px"
   width="799.35657"
   viewBox="0 0 799.35657 344.29114"
   enable-background="new 0 0 1536 1024"
   xml:space="preserve"
   sodipodi:docname="logo.svg"
   inkscape:version="1.2.2 (b0a8486541, 2022-12-01)"
   height="344.29114"
   xmlns:inkscape="http://www.inkscape.org/namespaces/inkscape"
   xmlns:sodipodi="http://sodipodi.sourceforge.net/DTD/sodipodi-0.dtd"
   xmlns="http://www.w3.org/2000/svg"
   xmlns:svg="http://www.w3.org/2000/svg"><defs
   id="defs1111" /><sodipodi:namedview
   id="namedview1109"
   pagecolor="#ffffff"
   bordercolor="#000000"
   borderopacity="0.25"
   inkscape:showpageshadow="2"
   inkscape:pageopacity="0.0"
   inkscape:pagecheckerboard="0"
   inkscape:deskcolor="#d1d1d1"
   showgrid="false"
   inkscape:zoom="0.82288309"
   inkscape:cx="294.08795"
   inkscape:cy="333.58323"
   inkscape:window-width="2560"
   inkscape:window-height="1371"
   inkscape:window-x="0"
   inkscape:window-y="32"
   inkscape:window-maximized="1"
   inkscape:current-layer="Layer_1" />








































































































































































































































































































































































































































































































































































<path
   fill="#18242e"
   opacity="1"
   stroke="none"
   d="M 442.20693,70.817033 C 424.78847,88.106183 407.05324,105.18525 389.65486,121.93989 381.32821,113.97105 372.35707,105.42222 363.42635,96.831463 338.67189,73.019573 313.32271,49.838393 283.6451,32.225513 245.69954,9.7059133 204.58052,-1.8092767 160.39925,3.4592733 91.876907,11.630513 40.017197,45.336713 13.852677,110.4825 c -21.0858497,52.50067 -16.3990497,104.76416 14.97513,152.82898 29.08835,44.56286 71.398373,69.0014 123.614903,76.87493 25.93219,3.91022 51.82965,3.25092 77.4765,-2.1474 27.28735,-5.74365 52.62823,-16.54205 76.26031,-31.26446 30.46399,-18.9787 56.97541,-42.6604 81.24292,-68.96619 2.71057,-2.93823 5.547,-5.76037 8.88727,-8.72992 2.58069,1.60706 4.59924,3.30762 6.61774,5.00824 9.09125,9.28754 18.18249,18.57514 27.44391,28.13532 -0.93573,0.13617 -2.38526,0.40191 -3.09192,-0.20185 -4.81525,-4.11425 -9.49597,-8.38757 -14.17194,-12.66217 -1.68573,-1.54095 -3.28918,-3.18042 -4.84039,-4.85797 -2.01349,-2.17743 -4.22229,-4.25018 -5.83722,-6.70355 -2.87762,-4.37146 -6.99915,-4.61267 -10.60004,-0.52118 -14.08795,16.00745 -28.74884,31.44305 -46.13263,43.97882 -15.27685,11.01654 -30.23645,22.56922 -46.18591,32.52356 -11.0943,6.92401 -23.30292,12.4231 -35.60413,16.95642 -13.58728,5.00733 -27.78826,8.42078 -41.84991,12.02985 -4.74152,1.21698 -9.87109,1.18622 -14.82898,1.2453 -13.16125,0.15692 -26.35809,0.61609 -39.4776,-0.14044 -9.31073,-0.53687 -18.52911,-2.79566 -27.76877,-4.40046 -5.83389,-1.01318 -11.9498,-1.41888 -17.38028,-3.53289 -12.39081,-4.82349 -24.662603,-10.08142 -36.545443,-16.03559 -7.91498,-3.966 -15.40765,-8.99993 -22.47406,-14.36615 -6.12234,-4.64929 -11.54538,-10.27472 -16.96731,-15.77447 -4.69309,-4.7605 -9.4018,-9.62579 -13.28946,-15.0304 -5.17493,-7.19421 -9.59024,-14.93774 -14.2706,-22.48327 -1.81552,-2.92676 -3.73642,-5.83747 -5.11551,-8.97272 -1.54642,-3.51569 -2.56162,-7.26831 -3.75275,-10.93573 -0.5951497,-1.8324 -0.8916897,-3.77747 -1.6240197,-5.54706 -4.35089,-10.5133 -8.59661999,-21.00384 -8.42043999,-32.71857 0.17288,-11.49432 0.46835,-23.01318 -0.0649,-34.48523 -0.73316,-15.77224 3.86492999,-30.1809 9.30013999,-44.63192 1.7966597,-4.77692 1.6261597,-10.16007 4.6396097,-14.82358 5.04227,-7.803157 8.92102,-16.396637 14.31144,-23.925747 5.53564,-7.73197 12.17041,-14.69989 18.54904,-21.80014 10.38147,-11.55588 22.26855,-21.36237 36.26227,-28.17667 13.28128,-6.46737 26.825803,-12.42206 40.440153,-18.1620797 4.64557,-1.95858 9.85358,-2.58429 14.80591,-3.81384 15.2038,-3.77472002 30.72363,-4.79309002 46.24799,-4.00201002 14.47521,0.73761 28.84747,2.42672002 43.06732,5.98986002 23.05438,5.7768897 44.44098,15.2754597 64.47162,27.6542397 11.36859,7.0257 22.06994,15.33606 32.25757,24.02286 18.37347,15.66678 36.16766,32.01486 54.11523,48.176757 2.44476,2.20147 4.59204,4.81933 6.49335,7.51498 2.02789,2.8753 3.83618,3.21381 6.419,0.75635 7.16425,-6.81623 14.35694,-13.60535 21.65821,-20.274017 8.03039,-7.33459 16.15124,-14.57233 24.34979,-21.71793 1.1297,-0.98468 2.93292,-1.19674 4.74115,-1.55633 z"
   id="path16" /><path
   fill="#141c29"
   opacity="1"
   stroke="none"
   d="m 568.2195,339.47542 c 12.48285,0.73071 25.03851,2.48242 37.63269,2.82702 47.44066,1.29816 90.67076,-11.90918 127.78236,-41.51837 36.0513,-28.76324 57.194,-66.3949 60.6973,-113.09595 3.0118,-40.1492 -7.9604,-76.30526 -31.1362,-108.894407 -5.2794,-7.42392 -11.4488,-14.21502 -17.3441,-21.57782 3.0485,1.67438 7.1687,2.92972 9.2465,5.71097 7.1818,9.6135 13.7397,19.70068 20.3538,29.7272 3.0616,4.64118 6.0469,9.395117 8.4354,14.399297 2.1653,4.53683 3.0937,9.66287 5.2484,14.20623 3.227,6.80518 5.0891,13.64869 5.2164,21.31159 0.1017,6.12909 1.9054,12.26681 3.2693,18.32977 2.3615,10.49817 2.2593,20.90021 0.018,31.41974 -1.4973,7.02814 -2.2963,14.20258 -3.5324,21.28992 -0.6437,3.69085 -1.0536,7.53979 -2.4466,10.9599 -3.5882,8.80896 -7.2032,17.66479 -11.6629,26.04681 -5.7741,10.85291 -12.6137,20.914 -21.0034,30.21515 -9.1111,10.10077 -18.7902,19.33856 -29.8527,26.98608 -9.0754,6.27393 -18.697,11.92182 -28.5936,16.79767 -9.8796,4.8675 -20.1929,9.10492 -30.7048,12.36444 -9.4144,2.91913 -19.2839,5.15314 -29.0853,5.86591 -16.22947,1.18024 -32.57658,1.38812 -48.8516,1.01605 -7.89185,-0.18036 -15.73243,-2.60425 -23.68665,-4.3872 z"
   id="path36" /><path
   fill="#18242e"
   opacity="1"
   stroke="none"
   d="m 573.86635,4.8607933 c -10.79126,3.12351 -22.18927,5.13339 -32.88794,9.0523697 -14.61163,5.35229 -29.12659,11.32642 -42.89416,18.53958 -19.63355,10.28656 -37.318,23.69449 -54.62415,38.00394 0.35681,-1.34568 0.60041,-3.34003 1.70984,-4.15344 13.02655,-9.55091 25.96802,-19.24537 39.37885,-28.2352 9.32422,-6.25037 18.96887,-12.28354 29.14935,-16.92402 10.70093,-4.87759 22.13476,-8.22177 33.39606,-11.7666597 6.55664,-2.06396 13.38147,-3.31225 20.13238,-4.70041 2.0343,-0.41833 4.2254,-0.0739 6.63977,0.18384 z"
   id="path70" /><path
   fill="#18242e"
   opacity="1"
   stroke="none"
   d="m 430.60415,263.05647 c 3.98535,2.95038 7.83508,6.271 11.8258,9.86682 -4.46332,1.04938 -11.03882,-4.25989 -11.8258,-9.86682 z"
   id="path146" /><path
   fill="#18242e"
   opacity="1"
   stroke="none"
   d="m 449.8777,280.00215 c 3.05884,1.96033 5.98707,4.23401 9.06507,6.8053 -5.09107,0.96026 -6.98956,-2.97767 -9.06507,-6.8053 z"
   id="path166" /><path
   fill="#18242e"
   opacity="1"
   stroke="none"
   d="m 442.83156,274.01191 c 2.26715,1.35999 4.32123,3.06134 6.54602,5.01734 -4.16131,1.45294 -6.26715,-0.47742 -6.54602,-5.01734 z"
   id="path168" /><path
   fill="#192c39"
   opacity="1"
   stroke="none"
   d="m 266.89693,251.01765 c 17.52399,-10.81824 33.49316,-23.75909 47.50726,-38.67419 29.40552,-31.29608 57.75965,-63.57819 87.0459,-94.98877 28.48731,-30.553807 59.5741,-58.010377 96.03125,-79.098327 14.16577,-8.19394 27.12274,-4.66846 39.51013,1.85165 11.60389,6.1077 13.99085,17.60706 12.91297,30.1883 -0.67877,7.9226 -4.29511,12.21618 -11.35858,16.02096 -25.2356,13.5932 -47.67865,31.323487 -67.39771,51.942997 -22.30493,23.32348 -43.21698,47.98126 -64.6748,72.11206 -23.59559,26.53497 -47.59088,52.68853 -76.18952,74.02154 -10.91308,8.14057 -22.53405,15.33222 -34.46643,22.96259 -0.78369,-0.91364 -1.25506,-1.9198 -1.03485,-2.74042 2.9978,-11.17035 6.24561,-22.27563 9.1098,-33.47925 2.07117,-8.10125 0.9715,-9.31384 -7.25738,-11.06866 -8.75415,-1.86682 -17.4682,-3.93915 -26.1416,-6.14991 -1.35706,-0.34588 -2.4054,-1.90331 -3.59644,-2.90057 M 459.12301,78.561143 c -10.29249,8.74933 -20.63733,17.44739 -28.23188,28.909907 3.00849,-1.68677 5.6355,-3.81647 8.271,-5.93561 16.43091,-13.211447 32.88598,-26.393027 49.24963,-39.687247 1.19232,-0.96857 1.72589,-2.74796 2.56574,-4.15042 -1.63153,0.2648 -3.63086,0.0151 -4.83582,0.87655 -8.9201,6.37702 -17.68213,12.97519 -27.01867,19.98682 m 77.3963,-31.40109 c -7.56165,-5.44147 -14.98584,-7.0159 -17.37287,-4.27924 5.53272,3.03091 12.49481,4.97192 16.44129,9.52615 4.0617,4.68711 5.18292,11.92228 7.58392,18.02494 2.98132,-7.79917 1.27545,-14.15457 -6.65234,-23.27185 z"
   id="path240" /><path
   fill="#053c60"
   opacity="1"
   stroke="none"
   d="m 570.1252,12.044903 c 12.52515,-1.44696 25.06561,-4.1654897 37.5716,-4.0151597 15.22516,0.18304 30.41935,2.8000797 45.63125,4.3214097 31.6466,12.52241 -15.6484,-1.42339 21.1155,6.08188 10.0764,1.57763 40.2432,17.66497 46.42,24.37021 37.7168,31.07725 -13.5773,-11.39435 15.5669,13.16793 9.8707,8.00998 17.913,18.61322 25.4708,29.56699 3.6723,5.32223 6.7997,11.05633 9.7501,16.820797 1.0231,1.99893 1.3787,4.75806 0.9908,6.98746 -1.5794,9.07376 -6.0331,16.90439 -11.7707,23.9461 -8.2818,10.16428 -26.2415,12.91059 -37.4526,5.78699 -1.3777,-0.87533 -2.3253,-2.69095 -3.0668,-4.26221 -5.6476,-11.96765 -12.4139,-23.22342 -21.5483,-32.85717 -18.7615,-19.787077 -42.1404,-30.453127 -68.92739,-33.837007 -17.13653,-2.16476 -34.24933,-1.29736 -51.21576,1.9772 -2.23627,0.43158 -4.40277,1.22489 -7.03943,1.39981 0.90137,-11.00012 0.76331,-21.24734 -4.36847,-31.08801 -4.86047,-9.32028 -2.15991,-15.13391 8.29456,-16.98434 9.94983,-1.76114 20.12042,-2.27097 30.19086,-3.35932 1.80188,-0.19473 3.58874,-0.52774 5.38256,-0.79687 -0.052,-0.54526 -0.10394,-1.09052 -0.15594,-1.63577 -12.28351,-1.60746 -24.46252,0.62341 -36.7312,1.4696 -1.41071,-2.59872 -2.75952,-4.82962 -4.10834,-7.06052 z"
   id="path244"
   sodipodi:nodetypes="csccccsscsssssscssscccc" /><path
   fill="#043c5f"
   opacity="1"
   stroke="none"
   d="m 680.25365,290.79585 c -4.5678,-8.32251 -6.1373,-16.88477 -4.8695,-25.8623 0.2284,-1.61652 1.6233,-3.57721 3.0481,-4.43958 22.4215,-13.57092 37.8441,-32.67218 45.8527,-57.64624 5.9652,-18.60205 5.5482,-37.31714 0.5637,-56.0546 -0.1133,-0.42541 -0.1901,-0.8605 -0.4342,-1.98123 11.9314,4.27381 23.2114,4.12329 33.6154,-2.99447 10.0161,-6.85245 14.9569,-17.09363 18.3359,-29.42755 1.4343,3.1191 2.5702,5.33425 3.4813,7.63815 1.0377,2.62344 1.9561,5.30142 2.7758,8.0014 0.7721,2.543 1.3618,5.14206 2.0091,7.72214 8.5786,34.19058 6.8428,67.67874 -7.3791,100.13199 -12.542,28.61975 -32.1352,51.44629 -58.0257,68.89062 -0.9442,0.63605 -1.9746,1.31287 -3.0568,1.54938 -11.9847,2.61896 -29.2319,-4.74585 -35.9167,-15.52771 m 55.4036,-80.82239 c 0.5675,-4.27221 1.135,-8.54437 1.7025,-12.81659 -0.6099,-0.20917 -1.2197,-0.41839 -1.8296,-0.62762 -5.1932,25.84442 -19.8187,45.93457 -39.2043,63.8504 13.2856,1.05469 34.1952,-26.53546 39.3314,-50.40619 z"
   id="path246" /><path
   fill="#074166"
   opacity="1"
   stroke="none"
   d="m 600.69557,336.8379 c -28.0639,-0.90545 -55.03326,-6.71673 -80.62927,-18.35907 -7.5459,-3.43219 -14.81146,-7.48077 -22.57336,-11.80645 -1.33002,-5.25184 -2.29224,-9.9441 -3.26758,-14.88593 -0.013,-0.24969 -0.0942,-0.74298 -0.019,-1.06311 -0.0332,-0.73791 -0.14154,-1.1557 -0.2497,-2.03626 -0.24768,-5.60052 -0.30041,-10.75787 -0.81415,-15.86889 -0.3258,-3.2406 0.7334,-4.76026 3.8476,-5.68445 10.92059,-3.24072 21.77045,-6.71967 32.64722,-10.10809 6.16967,2.57824 12.3164,5.21319 18.51288,7.72528 33.95025,13.76349 68.61914,16.62866 104.39154,7.08142 -0.6761,1.36413 -1.8789,2.28741 -2.5508,3.5039 -6.0969,11.03956 -7.1633,22.51404 -3.0825,34.53193 2.5595,7.53759 1.0346,11.34478 -6.6369,13.1358 -11.2342,2.62274 -22.73157,4.11835 -34.36085,5.82288 -5.48645,-1.2331 -10.72882,-2.19471 -16.02899,-3.16687 1.06458,7.37872 6.1629,9.02655 10.8139,11.17791 z"
   id="path248" /><path
   fill="#064066"
   opacity="1"
   stroke="none"
   d="m 97.112927,317.18318 c -4.9472,-2.61371 -10.09735,-4.90729 -14.80822,-7.8938 -27.44608,-17.39947 -47.54474,-41.21655 -61.03885,-70.68915 -0.52191,-1.13983 -1.03778,-2.57831 -0.80442,-3.72461 5.32526,-26.15808 28.15058,-37.42492 49.12528,-29.20141 1.48233,0.58117 3.12713,1.98895 3.71847,3.41723 10.33353,24.95825 28.503423,42.56903 52.026193,54.83301 12.20834,6.36505 25.60413,9.48706 39.57239,11.91742 2.11016,2.26898 3.87738,4.03357 5.87365,6.02692 -2.78418,1.51086 -5.4917,3.57501 -8.5462,4.53289 -12.03229,3.77332 -18.82584,1.91108 -24.8941,-5.98693 -1.48481,-1.93244 -3.69913,-3.30439 -6.21531,-5.4867 -1.9288,6.00873 0.762,7.55164 4.24369,9.14386 2.88775,1.32056 5.38586,3.49304 8.05661,5.28815 -0.20346,0.64892 -0.40692,1.29791 -0.61039,1.94684 -2.81744,0.5813 -5.61315,1.47082 -8.45745,1.67126 -4.21506,0.297 -8.46875,-0.005 -12.69815,0.15528 -3.68366,0.13952 -5.98691,1.82696 -5.67466,6.26617 -0.38812,2.77179 -0.61312,5.22821 -1.1997,7.63629 -1.16565,-0.98395 -1.83835,-2.09888 -2.80747,-2.80969 -1.19336,-0.87531 -2.67901,-2.07208 -3.95938,-1.98389 -5.48846,0.37824 -10.850133,6.51331 -10.871673,11.97852 -0.004,0.98742 -0.0199,1.97491 -0.0303,2.96234 m -24.04944,-25.50275 c -16.07061,-12.23541 -28.1448,-28.12707 -39.78127,-44.41919 0.89953,17.25086 43.69476,59.00379 58.63397,59.12879 -0.33799,-0.66785 -0.47678,-1.43762 -0.93372,-1.76972 -5.76715,-4.19214 -11.58011,-8.32116 -17.91898,-12.93988 z"
   id="path250" /><path
   fill="#06466c"
   opacity="1"
   stroke="none"
   d="m 116.14455,299.08418 c -0.47534,-4.12378 1.82791,-5.81122 5.51157,-5.95074 4.2294,-0.16028 8.48309,0.14172 12.69815,-0.15528 2.8443,-0.20044 5.64001,-1.08996 8.45745,-1.67126 0.20347,-0.64893 0.40693,-1.29792 0.61039,-1.94684 -2.67075,-1.79511 -5.16886,-3.96759 -8.05661,-5.28815 -3.48169,-1.59222 -6.17249,-3.13513 -4.24369,-9.14386 2.51618,2.18231 4.7305,3.55426 6.21531,5.4867 6.06826,7.89801 12.86181,9.76025 24.8941,5.98693 3.0545,-0.95788 5.76202,-3.02203 8.5462,-4.53289 -1.99627,-1.99335 -3.76349,-3.75794 -5.49505,-5.92902 1.07464,-0.36883 2.11365,-0.33118 3.58606,0.0562 0.71246,0.27308 0.99139,0.19641 1.27032,0.11976 20.44367,0.97393 40.48944,-1.59375 59.82709,-8.13093 10.48657,-3.5451 20.47027,-8.57812 31.39728,-13.23632 2.48333,0.0182 4.31958,0.12402 6.00476,0.68426 6.57769,2.18695 13.0686,4.63977 19.66937,6.7511 4.22821,1.35242 8.59229,2.28003 13.28528,3.49939 -0.62177,3.62152 -1.32343,6.85126 -1.70978,10.11829 -1.19983,10.14648 -7.46527,19.73034 -3.42163,30.48376 0.18298,0.48657 -0.33008,1.23486 -0.51898,1.86127 -0.14588,0.10443 -0.29169,0.2088 -0.6687,0.4884 -0.23127,0.17529 -0.51538,0.47955 -0.51538,0.47955 -11.68152,5.11915 -23.14643,10.82227 -35.08417,15.25061 -39.65717,14.71076 -80.25946,16.89374 -121.88629,7.39576 1.65243,-2.59516 3.66638,-4.6723 6.07391,-6.73413 1.84653,-0.23395 3.31415,-0.76264 4.74994,-0.68714 9.69489,0.50922 19.37616,1.32269 29.07489,1.70246 16.1405,0.63214 32.22876,-0.76972 47.63422,-5.41114 8.04089,-2.4226 15.33172,-7.53021 22.67248,-11.9093 1.38971,-0.82916 2.49188,-4.49506 1.79016,-5.84649 -0.78052,-1.50324 -3.87646,-2.77222 -5.79095,-2.56214 -12.80457,1.40479 -25.53229,3.52667 -38.3432,4.85278 -19.48865,2.01728 -38.95868,1.62433 -58.34394,-1.59075 -9.93838,-1.64831 -19.92547,-3.00329 -29.89056,-4.49084 m 126.88361,23.26208 c 13.60107,-3.2586 22.60784,-7.27075 24.16735,-10.42779 -22.51916,5.58783 -45.34588,11.25201 -68.08062,16.89331 14.7417,1.67737 29.04052,-1.54755 43.91327,-6.46552 m 42.96923,-52.82251 c 1.92267,0.45978 3.84528,0.91962 6.41236,1.53351 -2.30841,-4.56915 -26.30829,-10.6134 -31.19708,-7.22509 8.80285,1.99829 16.40325,3.72363 24.78472,5.69158 z"
   id="path252" /><path
   fill="#083148"
   opacity="1"
   stroke="none"
   d="m 91.307087,106.13988 c -1.65564,2.82266 -3.1608,5.74707 -4.99042,8.45202 -16.37546,24.20993 -23.957,50.36948 -18.2489,79.91544 -9.12644,-1.43543 -17.54212,0.31811 -26.17469,2.34735 -3.42852,-0.11121 -6.58944,0.0591 -9.98925,-0.059 -3.41172,-0.42945 -6.58451,-0.5705 -10.12586,-0.71826 -1.5679,-0.89765 -2.88171,-1.672 -3.93786,-2.7088 -1.34229,-1.31769 -2.47574,-2.84821 -3.69751,-4.68732 0.43911,-2.29962 0.84289,-4.20722 1.32125,-6.09601 0.82493,-3.25726 1.69623,-6.50275 2.54419,-10.19781 1.7136,-13.82047 3.03742,-27.26401 5.32529,-40.54148 1.04193,-6.04681 3.98917,-11.76532 6.30597,-17.8757 6.73557,-11.22824 13.11551,-22.288357 19.7952,-33.164337 2.93029,-4.77115 6.47195,-9.16681 9.72097,-13.73089 -0.0151,0.002 -0.024,0.0311 0.28553,0.0155 0.72055,-0.0407 1.13159,-0.0659 1.92145,-0.031 3.97815,1.26206 7.5585,2.52509 11.18267,3.64655 2.86078,0.88519 4.26395,-0.19443 4.69855,-3.26968 0.21103,-1.49347 1.42032,-3.91617 2.41495,-4.04197 4.15039,-0.5249 8.66778,-1.27343 11.21963,2.9737 2.28919,-0.47385 4.3317,-0.89667 6.62885,-1.15775 0.56555,0.67993 0.87653,1.19812 0.81958,1.84598 -1.57895,0.88577 -3.89661,1.75424 -3.83301,2.38098 0.79901,7.87164 -5.30209,8.01285 -10.05139,8.47299 -6.20743,0.60138 -7.72943,6.50867 -5.43369,10.57544 1.2453,2.20593 3.22983,4.43396 5.43781,5.55814 3.66702,1.86709 5.06491,4.30899 4.82214,8.312187 -0.0737,1.21555 1.318,2.51996 2.03855,3.7837 z"
   id="path254" /><path
   fill="#111d27"
   opacity="1"
   stroke="none"
   d="m 313.17531,58.995253 c 10.90454,8.9292 22.12561,17.50333 32.63587,26.87473 14.11206,12.58297 27.67474,25.782007 41.6322,38.865507 -13.177,15.19552 -26.08478,30.08053 -39.62927,45.14111 -2.7295,-1.14343 -4.82233,-2.46234 -6.9151,-3.78131 -19.7754,-18.36603 -39.55072,-36.73209 -59.0821,-55.47037 1.95038,-1.89072 4.04151,-3.14831 5.28431,-4.98114 2.73065,-4.0267 5.10418,-8.304377 7.46704,-12.566337 0.75238,-1.35703 1.88269,-3.49762 1.35015,-4.40873 -2.91625,-4.98904 -0.32232,-9.68945 0.3241,-14.43054 0.74518,-5.46564 1.96832,-10.86612 2.99951,-16.37839 -5.57904,-2.63565 -6.36102,-6.75698 -1.7865,-10.91598 1.51313,1.01947 3.02625,2.03894 4.68366,3.69916 1.74823,4.58853 3.35217,8.53634 5.02533,12.65466 1.37622,-0.98505 3.69348,-2.64371 6.0108,-4.30237 m -10.21521,0.50876 c -0.006,0.3761 -0.0115,0.7522 -0.0173,1.1283 0.15607,4.8e-4 0.44751,0.0123 0.44855,-2.2e-4 0.0315,-0.37445 0.0342,-0.75125 -0.43128,-1.12808 z"
   id="path256" /><path
   fill="#006499"
   opacity="1"
   stroke="none"
   d="m 248.18795,21.192793 c 0.54126,0.0469 1.08245,0.0938 2.00995,0.68418 1.12219,0.72531 1.85815,0.90707 2.59405,1.08883 5.28564,2.16052 10.57123,4.32102 16.26032,7.0069 0.97576,0.65042 1.54815,0.77548 2.12054,0.90051 0,0 0.25812,0.003 0.10724,0.39865 -1.20691,1.12763 -2.26288,1.85932 -3.60327,2.35126 -5.04084,0.97617 -9.79718,2.19211 -14.89521,3.47742 -10.05871,5.11856 -14.03161,13.6459 -14.62518,24.06942 -0.26434,4.64338 -0.0771,9.31247 -0.46844,13.96064 -4.94165,-1.91611 -9.35883,-4.42472 -14.10651,-5.61603 -13.73291,-3.44586 -27.59882,-6.36176 -41.61914,-9.74426 -4.82617,-4.91547 -9.76776,-9.30316 -13.95984,-14.31748 -3.15564,-3.77447 -5.10071,-8.53561 -8.03217,-12.52899 -4.20379,-5.72647 -10.0216,-9.00211 -17.15878,-9.8533 -2.32324,-0.2771 -4.61682,-0.80283 -8.13452,-1.43103 2.18347,-1.20468 3.09637,-1.93952 4.13583,-2.24783 23.3404,-6.92423 46.95331,-7.01163 70.70441,-2.59342 1.63294,0.30377 3.09845,1.50711 4.68494,2.65585 7.86035,2.66291 15.67639,4.9665 23.50494,7.22666 0.14307,0.0413 0.43561,-0.43527 0.88934,-0.90122 3.02997,-1.73117 5.82898,-3.23135 8.62799,-4.7315 0,0 -0.0674,0.0211 0.004,0.16504 0.36743,0.0892 0.66351,0.0344 0.9596,-0.0203 z"
   id="path262" /><path
   fill="#0e5279"
   opacity="1"
   stroke="none"
   d="m 214.15908,19.090373 c -1.5434,-0.785 -3.00891,-1.98834 -4.64185,-2.29211 -23.7511,-4.41821 -47.36401,-4.33081 -70.70441,2.59342 -1.03946,0.30831 -1.95236,1.04315 -4.13583,2.24783 3.5177,0.6282 5.81128,1.15393 8.13452,1.43103 7.13718,0.85119 12.95499,4.12683 17.15878,9.8533 2.93146,3.99338 4.87653,8.75452 8.03217,12.52899 4.19208,5.01432 9.13367,9.40201 13.8916,14.65912 -1.78534,0.5733 -3.77167,0.84723 -5.62121,0.46301 -5.52381,-1.1474 -11.13807,1.89695 -13.12604,7.37567 -0.42383,0.1178 -0.84772,0.2356 -1.7486,0.0928 -1.06763,0.0754 -1.6582,0.41141 -2.24878,0.74744 -14.74698,1.76559 -28.04477,7.76071 -41.87829,14.60272 0,-5.00141 0.0565,-9.55148 -0.0111,-14.09967 -0.16626,-11.17725 -3.991,-20.72815 -13.84958,-26.60034 -4.446293,-2.64838 -9.827333,-3.76169 -14.837313,-5.41016 -1.67612,-0.55148 -3.517,-0.6022 -5.29349,-1.56531 C 135.38562,4.7600133 189.91235,-0.11431672 247.03998,20.727663 c -2.61451,1.8205 -5.41352,3.32068 -8.7898,4.91693 -8.41522,-2.12069 -16.25311,-4.33746 -24.09106,-6.55426 z"
   id="path264" /><path
   fill="#141c29"
   opacity="1"
   stroke="none"
   d="m 587.72853,72.999893 c -2.59832,1.32242 -5.50067,3.0524 -8.64001,3.85376 -16.35394,4.17462 -31.34113,11.21674 -45.20776,20.77142 -8.31525,5.729647 -17.17047,10.789037 -24.93171,17.183017 -11.70739,9.64502 -22.81738,20.03653 -33.90057,30.41067 -7.9295,7.42209 -15.46179,15.27466 -23.03259,23.06989 -2.06116,2.12225 -3.62055,4.73187 -6.30683,8.31299 3.24207,3.11596 6.72284,6.24731 9.95447,9.61761 4.82019,5.02716 9.33344,10.35248 14.22705,15.30402 3.6521,3.69537 7.59778,7.12194 11.59412,10.4505 5.76379,4.80072 11.67505,9.42523 17.55499,14.08508 4.79999,3.80396 9.65631,7.53674 14.46485,11.32996 1.17016,0.92303 2.14605,2.12774 3.39587,2.90673 2.28888,1.42676 4.74438,2.58307 7.0777,3.94257 3.40625,1.98462 6.73449,4.10358 10.15088,6.06989 13.63501,7.84753 28.16681,13.3822 43.72516,15.72711 11.56652,1.74334 23.22692,3.54559 34.88268,3.83783 13.71845,0.34399 27.28092,-1.92267 40.46762,-6.21662 16.5816,-5.39935 30.8431,-14.3717 42.2098,-27.49102 6.1104,-7.05274 12.0288,-14.55091 16.4349,-22.71137 3.3976,-6.29248 4.4078,-13.90277 6.2738,-20.98132 0.9174,-3.47949 1.6781,-7.05628 1.9746,-10.63336 1.1577,-13.96473 -2.2427,-27.10025 -6.1739,-40.44638 -2.1646,-7.34815 -7.0346,-12.41584 -9.9316,-18.7294 -4.9055,-10.6905 -12.9392,-18.17011 -21.5969,-25.045997 -9.9803,-7.92633 -21.4812,-13.20135 -33.4937,-17.889 -15.4478,-6.02811 -31.14679,-5.62394 -47.04199,-5.69056 -3.78388,-0.0158 -7.56605,-0.44305 -11.59546,-1.04614 34.41333,-4.5957 67.14315,0.22153 94.94685,22.874 33.5012,27.294247 50.0462,75.378077 28.7626,119.187647 -10.7774,22.18365 -27.9207,38.27112 -50.6017,47.45971 -39.86972,16.15235 -79.41433,12.33893 -118.43454,-4.00042 -31.09356,-13.01996 -55.31347,-35.3703 -79.48504,-57.83594 -4.7572,-4.42157 -9.35443,-9.01605 -14.14209,-13.4035 -1.28022,-1.17322 -2.99146,-1.8761 -5.03235,-2.07239 13.14203,16.4599 28.53583,30.43829 44.46594,44.19452 -0.23614,0.48285 -0.41009,0.57867 -0.94604,0.63031 -2.73255,-1.46106 -5.3722,-2.56915 -7.42139,-4.35486 -5.3551,-4.6665 -10.41644,-9.66846 -15.66577,-14.45886 -2.9859,-2.72473 -6.18848,-5.21344 -9.15131,-7.96179 -2.86212,-2.65491 -5.32788,-5.77301 -8.35577,-8.20429 -3.7768,-3.03241 -7.88617,-5.67657 -12.02912,-8.19696 -0.56866,-0.34601 -2.48706,0.70935 -3.22064,1.58496 -4.65521,5.55628 -9.10168,11.28681 -13.71545,16.8786 -6.03449,7.31378 -12.16016,14.55237 -18.44098,21.80847 -0.47644,-0.0496 -0.68311,-0.19305 -0.83637,-0.72772 -0.41967,-0.63055 -0.81732,-0.97845 -1.43286,-1.39624 -0.21789,-0.0699 -0.55627,0.23822 -0.55627,0.23822 10.63379,-12.79706 21.24933,-25.60943 31.91522,-38.37958 2.45136,-2.93487 5.07617,-5.72485 7.83087,-8.81695 1.75421,2.06378 3.35675,3.9491 5.09162,5.99011 3.57,-4.18738 -3.01447,-5.17016 -1.82129,-9.53326 16.74524,-19.96973 36.48877,-38.98511 57.61755,-56.59861 16.55902,-13.80398 34.17798,-26.197717 53.91974,-34.838887 10.6864,-4.67759 22.49011,-6.80255 34.20312,-10.05817 z"
   id="path268" /><path
   fill="#151d29"
   opacity="1"
   stroke="none"
   d="m 341.00533,166.46071 c 1.98645,0.95355 4.07928,2.27246 6.518,3.60296 -23.50537,26.7674 -47.41705,53.6062 -77.33599,73.80817 -31.41822,21.21435 -66.41193,30.16467 -104.34925,26.46515 -29.54358,-2.88092 -54.01376,-15.47553 -73.249543,-38.27082 -25.104,-29.74945 -28.77451,-72.26135 -9.28204,-105.90042 13.68191,-23.61157 32.788973,-40.629507 58.964693,-48.734677 28.41113,-8.79727 56.50946,-6.63736 84.11352,4.18354 23.18109,9.08694 42.74152,23.585747 60.948,40.162957 15.75763,14.34735 31.41248,28.80795 47.24256,43.07446 1.63537,1.47385 3.21789,5.21805 6.43005,1.60868 m -187.65228,98.84344 c 6.85492,0.93005 13.68536,2.22321 20.57171,2.68817 6.88001,0.46442 13.84967,0.52789 20.71863,-0.0126 8.04016,-0.63275 16.33649,-1.07721 23.94238,-3.45575 11.91889,-3.72736 23.8667,-8.04236 34.84931,-13.89612 11.54364,-6.15277 22.7857,-13.45691 32.68011,-21.97607 13.6543,-11.75654 26.00318,-25.04261 38.73847,-37.84534 4.19842,-4.2207 8.02484,-8.84882 11.64929,-13.57599 0.86304,-1.12561 0.99426,-4.04797 0.15655,-5.02856 -3.6792,-4.30658 -7.67425,-8.38178 -11.85315,-12.21561 -10.95861,-10.05365 -22.15655,-19.84662 -33.10406,-29.91208 -13.38892,-12.31012 -26.96564,-24.40234 -42.58112,-33.849237 -11.47247,-6.94049 -23.3656,-13.27503 -36.52649,-16.37812 -10.07537,-2.37552 -20.28222,-4.66473 -30.55798,-5.61615 -18.29584,-1.694 -35.56439,3.3158 -51.88513,11.10828 -11.85638,5.66101 -22.46405,13.27771 -29.98303,24.489347 -3.487983,5.20105 -6.987093,10.40701 -10.747813,15.41034 -9.88467,13.1506 -12.90408,28.72229 -15.03991,44.35794 -0.86142,6.30585 0.54727,13.09296 1.84076,19.47504 1.35562,6.68878 2.82519,13.6773 5.97238,19.61999 9.5859,18.10065 21.714203,34.20386 39.901763,44.80518 9.52429,5.55151 19.53806,9.72509 31.25733,11.80737 z"
   id="path274" /><path
   fill="#18242e"
   opacity="1"
   stroke="none"
   d="m 297.19045,46.614883 c -4.30945,4.48792 -3.52747,8.60925 2.05157,11.2449 -1.03119,5.51227 -2.25433,10.91275 -2.99951,16.37839 -0.64642,4.74109 -3.24035,9.4415 -0.3241,14.43054 0.53254,0.91111 -0.59777,3.0517 -1.35015,4.40873 -2.36286,4.26196 -4.73639,8.539637 -7.46704,12.566337 -1.2428,1.83283 -3.33393,3.09042 -5.47388,4.67484 -9.13483,-6.26011 -17.89551,-12.507597 -26.46961,-19.001467 -1.20776,-0.91479 -2.15271,-3.05154 -2.10943,-4.59155 0.18542,-6.60642 0.26587,-13.28848 1.35553,-19.78 1.68396,-10.03244 8.1925,-16.56812 17.5777,-19.79892 8.10308,-2.7894 16.54528,-2.98831 25.20892,-0.5318 m -34.92365,15.95044 c -0.0414,0.19836 -0.0829,0.39673 -0.77447,0.87671 -4.19757,5.90155 -5.18634,14.11401 -2.15131,17.99445 1.32056,-5.73667 2.63825,-11.46058 4.5412,-17.37098 0.43976,-0.65521 0.87952,-1.31042 1.92291,-2.24865 3.62439,-3.01575 7.24884,-6.0315 10.87323,-9.04725 -0.59863,-0.6311 -1.19732,-1.2622 -1.79596,-1.89331 -3.58471,3.21067 -7.16943,6.42133 -11.2882,9.48822 -0.36774,0.54523 -0.73548,1.09049 -1.3274,2.20081 m 21.39374,44.946287 c 0,0 0.0532,0.0944 0,0 z"
   id="path276" /><path
   fill="#073550"
   opacity="1"
   stroke="none"
   d="m 97.252457,65.048723 c -2.04251,0.42282 -4.08502,0.84564 -6.37421,1.31949 -2.55185,-4.24713 -7.06924,-3.4986 -11.21963,-2.9737 -0.99463,0.1258 -2.20392,2.5485 -2.41495,4.04197 -0.4346,3.07525 -1.83777,4.15487 -4.69855,3.26968 -3.62417,-1.12146 -7.20452,-2.38449 -11.14673,-3.9639 -0.57586,-0.71988 -0.8088,-1.06238 -1.04174,-1.40484 -0.40839,0.58959 -0.81677,1.17919 -1.22516,1.76876 -3e-5,0 0.009,-0.029 -0.32999,-0.0389 -8.77347,5.64075 -14.53714,13.72614 -19.60974,22.19272 -4.54941,7.59335 -8.20767,15.720607 -12.47211,23.896387 -1.83404,4.47116 -3.55969,8.62125 -5.05694,12.85218 -5.05084,14.27249 -7.24915,28.99499 -6.56644,44.11822 0.0672,1.48981 -0.9956,5.01398 2.91562,2.70539 -0.85181,3.25042 -1.72311,6.49591 -2.54804,9.75317 -0.47836,1.88879 -0.88214,3.79639 -1.66674,6.16113 -1.88037,1.75665 -3.41352,3.04773 -4.9466297,4.33887 -0.17917,-12.24976 -1.35858,-24.58258 -0.3489,-36.73352 2.9614197,-35.63992 17.0736297,-66.670467 41.0819597,-93.157287 3.45646,-3.81323 7.33686,-7.24222 11.70206,-10.98504 2.97238,0.15759 5.26898,0.73715 7.55435,0.69586 10.45386,-0.189 19.53815,3.15933 27.42691,10.37964 0.39905,0.76922 0.69233,1.26647 0.9856,1.76373 z"
   id="path284" /><path
   fill="#025887"
   opacity="1"
   stroke="none"
   d="m 606.15474,329.09822 c 11.3852,-1.97589 22.88257,-3.4715 34.11681,-6.09424 7.6715,-1.79102 9.1964,-5.59821 6.6369,-13.1358 -4.0808,-12.01789 -3.0144,-23.49237 3.0825,-34.53193 0.6719,-1.21649 1.8747,-2.13977 2.962,-3.54858 1.6079,-0.80182 3.0851,-1.25421 5.2468,-1.84686 1.2237,0.95904 2.2867,2.0935 2.2157,3.15192 -0.4115,6.13122 -1.1963,12.23663 -1.656,18.36566 -0.8961,11.94604 4.3907,20.41552 15.2849,24.59857 2.7739,1.06506 5.6404,1.88934 8.1012,2.91241 -1.2434,0.7724 -2.3518,1.29663 -2.9646,2.16895 -2.4971,3.55523 -5.3682,5.76953 -10.0249,4.03973 -1.0127,-0.37622 -2.3192,-0.15893 -3.4534,0.02 -11.8669,1.87128 -23.67,4.46295 -35.60736,5.45868 -7.88201,0.65741 -15.95373,-0.95972 -23.94055,-1.55847 z"
   id="path288" /><path
   fill="#083148"
   opacity="1"
   stroke="none"
   d="m 569.71169,11.999133 c 1.76233,2.27667 3.11114,4.50757 4.24786,7.33175 -11.44598,3.30793 -15.57239,10.44352 -10.61157,21.0271 4.98468,10.63477 5.74707,21.32666 3.85223,32.55139 -2.08435,0.75437 -4.16864,1.50873 -6.63189,1.81391 0.86456,-14.95801 -1.77973,-28.52039 -9.98822,-40.79993 -3.29035,-4.92227 -6.34748,-10.00046 -9.51081,-15.00763 9.40967,-2.3208 18.81928,-4.6416 28.6424,-6.91659 z"
   id="path302" /><path
   fill="#111d27"
   opacity="1"
   stroke="none"
   d="m 267.96126,33.862873 c 1.05591,-0.73169 2.11188,-1.46338 3.36408,-2.47016 5.74853,2.8386 11.3009,5.95224 16.85321,9.06586 -0.0555,0.43265 -0.11096,0.86533 -0.16651,1.29797 -12.50122,-0.36822 -24.06244,2.08023 -32.16833,12.18439 -8.08429,10.07724 -7.72211,21.78595 -4.32056,34.57483 -4.29358,-2.22052 -7.69153,-3.97785 -11.29327,-6.39404 0.20849,-6.72559 0.73455,-12.78717 1.00763,-18.86017 0.45648,-10.1546 4.48474,-18.34552 13.19366,-24.36362 4.74225,-1.7327 9.13617,-3.38388 13.53009,-5.03506 z"
   id="path306" /><path
   fill="#141c29"
   opacity="1"
   stroke="none"
   d="m 540.68666,18.933733 c 3.54596,4.98916 6.60309,10.06735 9.89344,14.98962 8.20849,12.27954 10.85278,25.84192 9.61963,40.82831 -2.97797,1.83267 -5.96631,3.18777 -9.93946,4.98947 3.38635,-12.8053 5.66602,-24.90442 -3.23828,-35.91846 -8.75329,-10.8273 -20.47943,-13.22235 -33.51568,-12.48474 -0.11359,-0.43075 -0.22724,-0.86151 -0.34089,-1.29226 9.04615,-3.69797 18.09235,-7.39594 27.52124,-11.11194 z"
   id="path308" /><path
   fill="#141c29"
   opacity="1"
   stroke="none"
   d="m 494.05867,305.51381 c -32.26629,-19.4162 -59.22192,-45.19477 -85.71643,-71.52802 -0.46185,-0.45898 -1.06012,-0.78064 -2.03216,-1.52472 -0.89746,-1.16406 -1.35749,-1.96985 -1.40607,-2.91192 2.57831,0.81866 5.15869,1.31176 6.83612,2.81347 5.48566,4.91107 10.66754,10.16388 15.90894,15.34332 1.40838,1.39173 2.54943,3.0506 3.92315,4.48127 3.42774,3.56988 6.70008,7.33246 10.43555,10.55291 5.513,4.75318 11.3963,9.07483 17.07324,13.64087 1.914,1.53943 3.58246,3.39069 5.53211,4.87787 5.49463,4.19123 10.95214,8.45569 16.7044,12.26874 1.62751,1.07898 4.58045,1.53302 6.27271,0.789 2.07574,-0.91272 1.62781,-3.0628 0.89313,-5.67474 -1.81391,-6.44928 -2.31421,-13.26941 -3.31964,-19.94397 -0.46113,-3.06104 1.25768,-4.54944 3.90801,-5.45795 4.53461,-1.55438 8.95356,-3.53833 13.5832,-4.68988 3.01513,-0.74994 6.31726,-0.34564 9.17407,-0.25519 -6.45734,2.14679 -12.62,4.02381 -18.7287,6.06256 -2.96021,0.98792 -4.526,2.81031 -3.87879,6.36963 1.5962,8.77924 2.88117,17.61512 4.2577,26.82318 0.17077,2.91779 0.37512,5.44068 0.57946,7.96357 z"
   id="path310" /><path
   fill="#162d3d"
   opacity="1"
   stroke="none"
   d="m 673.17395,287.08094 c 6.6408,15.47205 18.7165,22.7154 35.4306,22.93634 0.1053,0.45746 0.2107,0.91492 0.316,1.37238 -5.2592,2.48132 -10.5183,4.96271 -16.4432,7.29285 -5.9295,-2.04468 -11.164,-4.02399 -16.4638,-5.80988 -6.5771,-2.21624 -11.527,-6.22162 -12.7624,-13.20514 -0.7205,-4.0719 -0.022,-8.39471 0.4828,-12.60028 3.4436,0.008 6.4417,0.0106 9.44,0.0137 z"
   id="path312" /><path
   fill="#073550"
   opacity="1"
   stroke="none"
   d="m 91.606767,105.99922 c -1.02023,-1.12308 -2.41196,-2.42749 -2.33823,-3.64304 0.24277,-4.003197 -1.15512,-6.445097 -4.82214,-8.312187 -2.20798,-1.12418 -4.19251,-3.35221 -5.43781,-5.55814 -2.29574,-4.06677 -0.77374,-9.97406 5.43369,-10.57544 4.7493,-0.46014 10.8504,-0.60135 10.05139,-8.47299 -0.0636,-0.62674 2.25406,-1.49521 4.05225,-2.1272 5.812413,8.37247 4.578373,17.79618 5.447933,26.83713 -2.05029,1.93253 -4.121583,3.84345 -6.145013,5.80374 -2.0059,1.943237 -3.9636,3.936247 -6.24207,6.048127 z"
   id="path314" /><path
   fill="#084a6e"
   opacity="1"
   stroke="none"
   d="m 605.91066,328.82679 c 8.2309,0.87018 16.30262,2.48731 24.18463,1.8299 11.93736,-0.99573 23.74046,-3.5874 35.60736,-5.45868 1.1342,-0.17889 2.4407,-0.39618 3.4534,-0.02 4.6567,1.7298 7.5278,-0.4845 10.0249,-4.03973 0.6128,-0.87232 1.7212,-1.39655 3.3005,-2.16071 2.0549,0.75232 3.411,1.58447 4.7672,2.41669 -12.4989,6.47253 -25.841,10.65936 -39.7013,12.28961 -15.29501,1.7992 -30.74655,2.26813 -46.49081,3.23523 -5.01197,-2.2326 -10.11029,-3.88043 -11.17487,-11.25915 5.30017,0.97216 10.54254,1.93377 16.02899,3.1668 z"
   id="path316" /><path
   fill="#0b5176"
   opacity="1"
   stroke="none"
   d="m 163.58126,67.985973 c 1.55352,-5.51406 7.16778,-8.55841 12.69159,-7.41101 1.84954,0.38422 3.83587,0.11029 5.82788,-0.20446 13.88189,2.78231 27.7478,5.69821 41.48071,9.14407 4.74768,1.19131 9.16486,3.69992 14.1723,6.00333 0.39758,1.44363 0.35584,2.49069 0.067,3.76025 -0.37549,0.64157 -0.50391,1.06067 -0.63227,1.47977 -15.33038,-6.56864 -31.03595,-11.97324 -47.80774,-12.99308 -8.41864,-0.51187 -16.90777,0.13413 -25.79943,0.22113 z"
   id="path324" /><path
   fill="#06304b"
   opacity="1"
   stroke="none"
   d="m 8.8238673,193.52754 c 1.5597197,-1.73334 3.0928697,-3.02442 4.9714997,-4.38062 1.569,1.37354 2.70245,2.90406 4.04474,4.22175 1.05615,1.0368 2.36996,1.81115 3.99511,3.04705 5.7414,5.61072 7.68985,5.6745 10.3075,0.66846 3.16092,-0.17035 6.32184,-0.3407 9.61664,0.0365 -0.44739,1.35205 -1.02866,2.15655 -1.96778,2.96936 -1.09765,0.70709 -1.83737,1.40582 -2.57711,2.10455 0,0 -0.0543,-0.0854 -0.29346,-0.0811 -0.42853,1.2e-4 -0.61792,-0.004 -1.1763,10e-4 -3.10034,1.66681 -5.83164,3.32385 -8.86911,5.12634 -4.3042,3.58088 -6.66083,10.32416 -14.03421,6.95752 -1.34802,-6.74304 -2.69605,-13.48608 -4.0175197,-20.67126 z"
   id="path330" /><path
   fill="#62c0e7"
   opacity="1"
   stroke="none"
   d="m 567.57375,72.915113 c 1.5213,-11.23047 0.75891,-21.92236 -4.22577,-32.55713 -4.96082,-10.58358 -0.83441,-17.71917 10.67352,-20.65924 12.48072,-1.43951 24.65973,-3.67038 36.94324,-2.06292 0.052,0.54525 0.10394,1.09051 0.15594,1.63577 -1.79382,0.26913 -3.58068,0.60214 -5.38256,0.79687 -10.07044,1.08835 -20.24103,1.59818 -30.19086,3.35932 -10.45447,1.85043 -13.15503,7.66406 -8.29456,16.98434 5.13178,9.84067 5.26984,20.08789 3.99012,31.05905 -1.05878,0.76447 -2.17713,1.10706 -3.66907,1.44394 z"
   id="path332" /><path
   fill="#e9eaec"
   opacity="1"
   stroke="none"
   d="m 294.83156,308.14808 c 0.0295,-0.62793 0.54254,-1.37622 0.35956,-1.86279 -4.04364,-10.75342 2.2218,-20.33728 3.42163,-30.48376 0.38635,-3.26703 1.08801,-6.49677 1.70978,-10.11829 -4.69299,-1.21936 -9.05707,-2.14697 -13.28528,-3.49939 -6.60077,-2.11133 -13.09168,-4.56415 -19.66937,-6.7511 -1.68518,-0.56024 -3.52143,-0.66607 -5.70453,-0.90893 1.25659,-1.08344 2.92944,-2.23865 4.91797,-3.45002 1.50665,0.94111 2.55499,2.49854 3.91205,2.84442 8.6734,2.21076 17.38745,4.28309 26.1416,6.14991 8.22888,1.75482 9.32855,2.96741 7.25738,11.06866 -2.86419,11.20362 -6.112,22.3089 -9.1098,33.47925 -0.22021,0.82062 0.25116,1.82678 0.7619,3.00903 0.0764,0.41809 -0.22851,0.5055 -0.71289,0.52301 z"
   id="path334" /><path
   fill="#06466c"
   opacity="1"
   stroke="none"
   d="m 97.254347,317.52003 c -0.13098,-1.32428 -0.11502,-2.31177 -0.11111,-3.29919 0.0215,-5.46521 5.383213,-11.60028 10.871673,-11.97852 1.28037,-0.0882 2.76602,1.10858 3.95938,1.98389 0.96912,0.71081 1.64182,1.82574 3.07096,2.935 1.12051,0.75586 1.61602,1.33819 1.83941,2.12707 -3.50802,3.83679 -3.29242,6.60382 1.37998,8.95111 3.988,2.00348 3.33923,5.46906 1.87231,8.87805 -0.55911,-0.0746 -1.11825,-0.14929 -1.92038,-0.60382 -0.52118,-0.3825 -0.79932,-0.38513 -1.07748,-0.38775 -6.58109,-2.75635 -13.1622,-5.5127 -19.884743,-8.60584 z"
   id="path338" /><path
   fill="#62c0e7"
   opacity="1"
   stroke="none"
   d="m 687.58375,321.32173 c -1.6913,-0.75965 -3.0474,-1.5918 -4.7394,-2.43225 -3.1596,-0.94318 -6.0261,-1.76746 -8.8,-2.83252 -10.8942,-4.18305 -16.181,-12.65253 -15.2849,-24.59857 0.4597,-6.12903 1.2445,-12.23444 1.656,-18.36566 0.071,-1.05842 -0.992,-2.19288 -1.9046,-3.28632 1.5949,-0.56799 3.5633,-1.14191 5.9831,-1.35101 -0.1007,6.44561 -0.653,12.52655 -1.2054,18.60742 -0.06,4.20996 -0.7579,8.53277 -0.037,12.60467 1.2354,6.98352 6.1853,10.9889 12.7624,13.20514 5.2998,1.78589 10.5343,3.7652 16.0996,5.95056 -1.197,1.00324 -2.6957,1.7146 -4.5294,2.49854 z"
   id="path340" /><path
   fill="#074166"
   opacity="1"
   stroke="none"
   d="m 120.41793,327.34742 c 1.18594,-3.63897 1.83471,-7.10455 -2.15329,-9.10803 -4.6724,-2.34729 -4.888,-5.11432 -1.02909,-8.91144 1.66346,0.30878 2.87235,0.58362 3.71738,1.2923 5.82355,4.88397 11.35935,10.15955 18.97372,12.32379 0.88175,0.25061 1.52008,1.35749 2.27124,2.06745 -2.01391,2.07709 -4.02786,4.15423 -6.04986,6.5888 -5.15512,-1.10266 -10.30213,-2.5628 -15.7301,-4.25287 z"
   id="path342" /><path
   fill="#e9eaec"
   opacity="1"
   stroke="none"
   d="m 493.51278,297.15529 c -1.4101,-8.81311 -2.69507,-17.64899 -4.29127,-26.42823 -0.64721,-3.55932 0.91858,-5.38171 3.87879,-6.36963 6.1087,-2.03875 12.27136,-3.91577 19.12622,-6.03454 1.77326,-0.25006 2.83215,-0.32489 4.30933,-0.40082 4.66406,-0.26263 8.90985,-0.52411 13.15564,-0.78558 0,0 -0.0467,-0.0472 -0.0505,-0.079 -10.88049,3.35662 -21.73035,6.83557 -32.65094,10.07629 -3.1142,0.92419 -4.1734,2.44385 -3.8476,5.68445 0.51374,5.11102 0.56647,10.26837 0.65149,16.02734 0.004,1.14679 0.17047,1.67237 0.33716,2.19794 0,0 0.0812,0.49329 0.0145,1.10809 -0.25543,2.07776 -0.44415,3.54071 -0.63287,5.00373 z"
   id="path346" /><path
   fill="#12aadd"
   opacity="1"
   stroke="none"
   d="m 238.06783,79.055683 c 0.0417,-1.04709 0.0835,-2.09415 0.0594,-3.52854 -0.048,-5.04471 -0.23523,-9.7138 0.0291,-14.35718 0.59357,-10.42352 4.56647,-18.95086 14.73035,-23.81777 0.69659,0.66394 0.94635,1.1456 1.1961,1.62725 -8.36059,5.93659 -12.38885,14.12751 -12.84533,24.28211 -0.27308,6.073 -0.79914,12.13458 -1.27637,18.63965 -0.70215,0.13082 -1.33936,-0.17673 -1.92792,-1.21173 0.0441,-1.02955 0.0394,-1.33167 0.0346,-1.63379 z"
   id="path354" /><path
   fill="#111d27"
   opacity="1"
   stroke="none"
   d="m 663.73395,287.06721 c 0.107,-6.08526 0.6593,-12.1662 1.1184,-18.68243 1.8592,-1.52765 3.8119,-2.61994 5.5842,-3.61145 0.9156,7.33636 1.8007,14.42785 2.7117,21.91351 -2.9726,0.39099 -5.9707,0.38788 -9.4143,0.38037 z"
   id="path356" /><path
   fill="#141c29"
   opacity="1"
   stroke="none"
   d="m 529.82662,256.75197 c -4.38092,0.64599 -8.62671,0.90747 -13.21106,0.82025 2.53747,-5.55072 2.1983,-5.55274 -2.81464,-8.34217 -4.98736,-2.77527 -9.47613,-6.44433 -14.19824,-9.70019 -1.81274,-1.24982 -3.91608,-2.19348 -5.43262,-3.72626 -1.61688,-1.63415 -2.69635,-3.79999 -4.01037,-5.7337 0.17389,-0.0958 0.34784,-0.19165 0.80041,-0.3927 13.18634,8.8266 26.094,17.75842 38.86652,27.07477 z"
   id="path358" /><path
   fill="#62c0e7"
   opacity="1"
   stroke="none"
   d="m 63.503827,50.001663 c 5.07801,0.27933 9.8812,0.43054 14.6467,0.93677 8.63449,0.91717 15.75162,4.78369 21.05692,11.83337 -1.13785,0.26203 -2.09208,0.25162 -3.04633,0.24121 -7.78302,-6.94833 -16.86731,-10.29666 -27.32117,-10.10766 -2.28537,0.0413 -4.58197,-0.53827 -7.27899,-0.8931 0.27994,-0.70035 0.96549,-1.33954 1.94287,-2.01059 z"
   id="path360" /><path
   fill="#10466a"
   opacity="1"
   stroke="none"
   d="m 40.149427,200.08174 c 0.58127,-0.80451 1.16254,-1.60901 1.87757,-2.67951 8.49865,-2.57678 16.91433,-4.33032 26.07092,-2.47796 0.97122,1.81256 1.51974,3.51349 2.26535,5.8255 -9.85437,-2.57739 -19.22739,-3.34174 -28.9722,0.0784 -0.68695,-0.46161 -0.93454,-0.64435 -1.24164,-0.74646 z"
   id="path362" /><path
   fill="#12aadd"
   opacity="1"
   stroke="none"
   d="m 96.266857,63.284993 c 0.84851,-0.26157 1.80274,-0.25116 3.10999,-0.25553 2.181883,4.48416 4.591923,8.84866 5.672273,13.52066 1.03104,4.45889 0.67685,9.23807 1.01334,14.33875 -0.42819,1.34985 -0.93814,2.23742 -1.75836,3.19171 -1.17981,-8.97418 0.0542,-18.39789 -5.390263,-26.9 -0.53021,-0.772 -0.84119,-1.29019 -1.40677,-1.97012 -0.54788,-0.659 -0.84116,-1.15625 -1.24021,-1.92547 z"
   id="path370" /><path
   fill="#073550"
   opacity="1"
   stroke="none"
   d="m 12.864027,214.58259 c 7.35074,2.98285 9.70737,-3.76043 14.00751,-6.94568 0.31842,1.04194 0.33469,1.83368 0.35095,2.62537 -1.65265,2.73047 -3.30533,5.46094 -5.53155,8.49194 -2.56379,1.30982 -4.55402,2.3191 -6.54425,3.32837 -0.75333,-2.37207 -1.50666,-4.74414 -2.28266,-7.5 z"
   id="path374" /><path
   fill="#1b2c38"
   opacity="1"
   stroke="none"
   d="m 717.10825,58.992753 c 1.3833,0.92526 2.4739,1.63257 3.9096,2.56357 -4.2073,2.93033 -7.3815,5.14111 -10.5556,7.35193 -0.2777,-0.13941 -0.5554,-0.27881 -0.8331,-0.41822 1.5288,-3.86346 3.0576,-7.72696 4.6923,-11.85797 1.0213,0.87741 1.7578,1.51004 2.7868,2.36069 z"
   id="path380" /><path
   fill="#18242e"
   opacity="1"
   stroke="none"
   d="m 313.02529,58.695783 c -2.1673,1.95813 -4.48456,3.61679 -5.86078,4.60184 -1.67316,-4.11832 -3.2771,-8.06613 -4.84369,-12.42071 3.54303,2.23528 7.04871,4.87734 10.70447,7.81887 z"
   id="path382" /><path
   fill="#3888ba"
   opacity="1"
   stroke="none"
   d="m 404.49257,229.6855 c 0.46002,0.80572 0.92005,1.61151 1.46582,2.68109 -0.68347,0.68506 -1.45276,1.10626 -2.62646,1.62378 -2.42298,-1.60431 -4.44153,-3.30487 -6.76319,-5.15375 0.42694,-1.19549 1.15705,-2.24267 2.14508,-3.44568 0.25788,-0.1557 0.59626,-0.4638 0.6634,-0.10852 0.57995,0.70136 1.09277,1.04736 1.60559,1.39337 0.13128,0.25214 0.33795,0.39557 0.91205,0.68524 0.58111,0.43488 0.87023,0.61494 1.25396,1.02552 0.46741,0.54211 0.84021,0.85382 1.23127,1.21301 0.0182,0.0476 0.11248,0.0859 0.11248,0.0859 z"
   id="path386" /><path
   fill="#10466a"
   opacity="1"
   stroke="none"
   d="m 27.564497,210.19209 c -0.35827,-0.7215 -0.37454,-1.51324 -0.38675,-2.70056 2.73532,-2.05274 5.46662,-3.70978 8.65216,-5.19019 0.61252,0.40637 0.8133,0.5893 1.05664,0.72553 -2.99334,2.36499 -5.98669,4.72998 -9.32205,7.16522 z"
   id="path390" /><path
   fill="#62c0e7"
   opacity="1"
   stroke="none"
   d="m 493.47921,297.55024 c 0.22229,-1.85797 0.41101,-3.32092 0.6795,-5.14904 1.04199,4.32708 2.00421,9.01934 3.02246,14.10937 -0.93725,0.13672 -1.93048,-0.12439 -3.02313,-0.69116 -0.30371,-2.82849 -0.50806,-5.35138 -0.67883,-8.26917 z"
   id="path392" /><path
   fill="#073550"
   opacity="1"
   stroke="none"
   d="m 39.791547,200.09004 c 0.66498,0.0938 0.91257,0.27655 1.20505,0.74914 -0.95557,0.5907 -2.01544,0.97217 -3.42874,1.35456 0.38635,-0.69788 1.12607,-1.39661 2.22369,-2.1037 z"
   id="path402" /><path
   fill="#0b5176"
   opacity="1"
   stroke="none"
   d="m 159.42714,68.833083 c 0.31287,-0.3782 0.90344,-0.7142 1.64081,-0.81732 -0.3565,0.44174 -0.8598,0.65063 -1.64081,0.81732 z"
   id="path404" /><path
   fill="#e9eaec"
   opacity="1"
   stroke="none"
   d="m 293.56978,309.08833 c -0.0817,0.0262 0.20239,-0.27808 0.29779,-0.22119 0.0955,0.057 -0.21606,0.19494 -0.29779,0.22119 z"
   id="path422" /><path
   fill="#073550"
   opacity="1"
   stroke="none"
   d="m 37.017407,202.82661 c -0.3742,0.064 -0.57498,-0.1189 -0.81845,-0.53503 0.10413,-0.18219 0.29352,-0.17798 0.76624,-0.15345 0.28335,0.0203 0.18307,0.48816 0.0522,0.68848 z"
   id="path424" /><path
   fill="#064066"
   opacity="1"
   stroke="none"
   d="m 169.89534,276.01533 c -0.0355,0.17706 -0.31445,0.25373 -0.67675,0.1659 0.0889,-0.19843 0.2611,-0.23237 0.67675,-0.1659 z"
   id="path432" /><path
   fill="#006499"
   opacity="1"
   stroke="none"
   d="m 237.8207,79.278153 c 0.25189,0.0797 0.25659,0.38177 0.19555,1.13824 -0.0657,0.45438 -0.46704,0.53727 -0.64746,0.4394 -0.052,-0.51697 0.0764,-0.93607 0.45191,-1.57764 z"
   id="path448" /><path
   fill="#074166"
   opacity="1"
   stroke="none"
   d="m 117.32457,326.29841 c 0.0927,-0.16992 0.37082,-0.16729 0.66837,0.0372 -0.14804,0.17957 -0.31546,0.15741 -0.66837,-0.0372 z"
   id="path450" /><path
   fill="#467699"
   opacity="1"
   stroke="none"
   d="m 459.3854,78.319653 c 9.07415,-6.77014 17.83618,-13.36831 26.75628,-19.74533 1.20496,-0.86148 3.20429,-0.61175 4.83582,-0.87655 -0.83985,1.40246 -1.37342,3.18185 -2.56574,4.15042 -16.36365,13.29422 -32.81872,26.4758 -49.24963,39.687247 -2.6355,2.11914 -5.26251,4.24884 -8.271,5.93561 7.59455,-11.462517 17.93939,-20.160577 28.49427,-29.151397 z"
   id="path706" /><path
   fill="#467699"
   opacity="1"
   stroke="none"
   d="m 536.78078,47.407573 c 7.66632,8.86976 9.37219,15.22516 6.39087,23.02433 -2.401,-6.10266 -3.52222,-13.33783 -7.58392,-18.02494 -3.94648,-4.55423 -10.90857,-6.49524 -16.44129,-9.52615 2.38703,-2.73666 9.81122,-1.16223 17.63434,4.52676 z"
   id="path708" /><path
   fill="#146993"
   opacity="1"
   stroke="none"
   d="m 735.51755,210.37355 c -4.9965,23.47064 -25.9061,51.06079 -39.1917,50.0061 19.3856,-17.91583 34.0111,-38.00598 39.2043,-63.8504 0.6099,0.20923 1.2197,0.41845 1.8296,0.62762 -0.5675,4.27222 -1.135,8.54438 -1.8422,13.21668 z"
   id="path712" /><path
   fill="#62c0e7"
   opacity="1"
   stroke="none"
   d="m 494.20632,290.72334 c -0.24189,-0.20544 -0.40851,-0.73102 -0.41248,-1.41504 0.27094,0.25934 0.37927,0.67713 0.41248,1.41504 z"
   id="path714" /><path
   fill="#023a59"
   opacity="1"
   stroke="none"
   d="m 142.59154,325.02675 c -1.14481,-0.72522 -1.78314,-1.8321 -2.66489,-2.08271 -7.61437,-2.16424 -13.15017,-7.43982 -18.97372,-12.32379 -0.84503,-0.70868 -2.05392,-0.98352 -3.44528,-1.49884 -0.84638,-0.62201 -1.34189,-1.20434 -2.10089,-1.91199 -0.0384,-2.5816 0.18658,-5.03802 0.5747,-7.80981 10.12818,1.17212 20.11527,2.5271 30.05365,4.17542 19.38526,3.21508 38.85529,3.60803 58.34394,1.59075 12.81091,-1.32611 25.53863,-3.44799 38.3432,-4.85278 1.91449,-0.21008 5.01043,1.0589 5.79095,2.56214 0.70172,1.35143 -0.40045,5.01733 -1.79016,5.84649 -7.34076,4.37909 -14.63159,9.4867 -22.67248,11.9093 -15.40546,4.64142 -31.49372,6.04328 -47.63422,5.41114 -9.69873,-0.37977 -19.38,-1.19324 -29.07489,-1.70246 -1.43579,-0.0755 -2.90341,0.45319 -4.74991,0.68714 z"
   id="path716" /><path
   fill="#3888ba"
   opacity="1"
   stroke="none"
   d="m 73.332287,291.91719 c 6.07007,4.38196 11.88303,8.51098 17.65018,12.70312 0.45694,0.3321 0.59573,1.10187 0.93372,1.76972 -14.93921,-0.125 -57.73444,-41.87793 -58.63397,-59.12879 11.63647,16.29212 23.71066,32.18378 40.05007,44.65595 z"
   id="path718" /><path
   fill="#3888ba"
   opacity="1"
   stroke="none"
   d="m 242.65273,322.4958 c -14.49732,4.76843 -28.79614,7.99335 -43.53784,6.31598 22.73474,-5.6413 45.56146,-11.30548 68.08062,-16.89331 -1.55951,3.15704 -10.56628,7.16919 -24.54278,10.57733 z"
   id="path720" /><path
   fill="#1085b5"
   opacity="1"
   stroke="none"
   d="m 285.60683,269.40248 c -7.99091,-1.84668 -15.59131,-3.57202 -24.39416,-5.57031 4.88879,-3.38831 28.88867,2.65594 31.19708,7.22509 -2.56708,-0.61389 -4.48969,-1.07373 -6.80292,-1.65478 z"
   id="path722" /><path
   fill="#3888ba"
   opacity="1"
   stroke="none"
   d="m 18.008037,172.38753 c -3.90737,2.75323 -2.84454,-0.77094 -2.91177,-2.26075 -0.68271,-15.12323 1.5156,-29.84573 6.56644,-44.11822 1.49725,-4.23093 3.2229,-8.38102 5.41061,-12.76807 1.15521,0.19095 1.74369,0.58188 2.33215,0.97281 -2.08297,5.86743 -5.03021,11.58594 -6.07214,17.63275 -2.28787,13.27747 -3.61169,26.72101 -5.32529,40.54148 z"
   id="path724" /><path
   fill="#146993"
   opacity="1"
   stroke="none"
   d="m 29.639297,113.97035 c -0.82229,-0.14798 -1.41077,-0.53891 -2.3529,-1.01395 3.69769,-7.9758 7.35595,-16.103057 11.90536,-23.696407 5.0726,-8.46658 10.83627,-16.55197 19.62479,-22.19476 -2.9101,4.57397 -6.45176,8.96963 -9.38205,13.74078 -6.67969,10.87598 -13.05963,21.936097 -19.7952,33.164337 z"
   id="path726" /><path
   fill="#073550"
   opacity="1"
   stroke="none"
   d="m 31.903827,196.79573 c -2.37876,5.29449 -4.32721,5.23071 -9.70008,-0.37329 3.11557,-0.19721 6.28836,-0.0562 9.70008,0.37329 z"
   id="path728" /><path
   fill="#146993"
   opacity="1"
   stroke="none"
   d="m 59.440997,67.090653 c 0.0989,-0.57404 0.50726,-1.16364 0.91565,-1.75323 0.23294,0.34246 0.46588,0.68496 0.6629,1.34478 -0.44696,0.34253 -0.858,0.36774 -1.57855,0.40845 z"
   id="path730" /><path
   fill="#18242e"
   opacity="1"
   stroke="none"
   d="m 303.19655,59.504193 c 0.22907,0.37665 0.22632,0.75345 0.19483,1.1279 -0.001,0.0125 -0.29248,7e-4 -0.44855,2.2e-4 0.006,-0.3761 0.0115,-0.7522 0.25372,-1.12812 z"
   id="path732" /><path
   fill="#0e222f"
   opacity="1"
   stroke="none"
   d="m 400.96083,226.39326 c -0.49084,-0.0635 -1.00366,-0.40948 -1.36572,-1.04095 0.5484,0.0625 0.94605,0.4104 1.36572,1.04095 z"
   id="path760" /><path
   fill="#467699"
   opacity="1"
   stroke="none"
   d="m 263.29696,64.252003 c -1.31769,5.7239 -2.63538,11.44781 -3.95594,17.18448 -3.03503,-3.88044 -2.04626,-12.0929 2.58667,-17.92072 0.65143,0.32645 0.91876,0.50067 1.27216,0.62958 0.0349,0.0332 0.0971,0.10666 0.0971,0.10666 z"
   id="path766" /><path
   fill="#1f5071"
   opacity="1"
   stroke="none"
   d="m 264.12831,60.508253 c 3.58466,-3.21063 7.16938,-6.42129 10.75409,-9.63196 0.59864,0.63111 1.19733,1.26221 1.79596,1.89331 -3.62439,3.01575 -7.24884,6.0315 -11.41498,9.07612 -0.73956,-0.42661 -0.93731,-0.88205 -1.13507,-1.33747 z"
   id="path768" /><path
   fill="#467699"
   opacity="1"
   stroke="none"
   d="m 263.86122,60.436353 c 0.46485,0.52732 0.6626,0.98276 1.10035,1.55088 -0.19983,0.76785 -0.63959,1.42306 -1.37195,2.17154 -0.29266,0.0932 -0.35492,0.0198 -0.39844,-0.30201 -0.26233,-0.83337 -0.4812,-1.34494 -0.70013,-1.8565 0.36767,-0.54526 0.73541,-1.09052 1.37017,-1.56391 z"
   id="path770" /><path
   fill="#1f5071"
   opacity="1"
   stroke="none"
   d="m 262.37892,62.282793 c 0.33106,0.22903 0.54993,0.7406 0.77747,1.54077 -0.30994,0.19287 -0.57727,0.0187 -0.90369,-0.44861 -0.0688,-0.4129 -0.0273,-0.61127 0.12622,-1.09216 z"
   id="path772" /><path
   fill="#111d27"
   opacity="1"
   stroke="none"
   d="m 283.68715,107.55882 c 0.0266,0.0472 -0.0266,-0.0472 0,0 z"
   id="path774" /><path
   fill="#141c29"
   opacity="1"
   stroke="none"
   d="m 403.14882,228.38655 c 0.41541,0.0384 0.92548,0.30731 1.32422,0.87085 -0.48401,-0.017 -0.85681,-0.32874 -1.32422,-0.87085 z"
   id="path802" />
</svg>
