<svg width="372.99" height="265.4" version="1.1" viewBox="0 0 372.99 265.4" xmlns="http://www.w3.org/2000/svg">
 <g transform="matrix(.74449 0 0 .74449 .37225 -53.659)">
  <g fill="none">
   <g stroke="#ebebeb">
    <rect y="382.4" width="500" height=".25"/>
    <rect x="416.78" y="398.49" width="33.12" height=".25"/>
    <rect x="292.75" y="398.62" width="8.69" height=".25"/>
    <rect x="354.33" y="389.21" width="61.44" height=".25"/>
    <rect x="212.45" y="395.11" width="12.69" height=".25"/>
    <rect x="166.72" y="395.11" width="36.83" height=".25"/>
    <rect x="52.46" y="390.89" width="25.43" height=".25"/>
    <rect x="83.89" y="390.89" width="74.89" height=".25"/>
   </g>
   <path d="m335.44 303.54c-2.25-3.42-0.65-9.29 3.34-11.91 10.78-7.1 24.77-12.44 27.45-8.37s-7.83 15-18.61 22.06c-3.99 2.68-9.93 1.68-12.18-1.78z" stroke="#e0e0e0"/>
   <path d="m319.29 283.79c-16.06 0-32.12 10.06-32.12 20.94 0 29.41 13 63.08 32.12 63.08s32.12-33.67 32.12-63.08c0-10.88-16.06-20.94-32.12-20.94z" stroke="#e6e6e6"/>
   <path d="m319.29 283.79a41.81 41.81 0 0 0-12.29 1.91 57.33 57.33 0 0 0 16.17 2.24 61.46 61.46 0 0 0 11.66-1.11 42.11 42.11 0 0 0-15.54-3.04z" stroke="#e0e0e0"/>
   <path d="m304.66 298.9c-0.19-4.09-4.79-8-9.56-7.75-12.89 0.6-27.49 4.6-27.27 9.47s15.14 7.49 28 6.89c4.8-0.22 9.02-4.51 8.83-8.61z" stroke="#e6e6e6"/>
   <path d="m319.26 243.36c-18.29 1.92-35.6 13.12-35 18.59 1.55 14.77 17.7 25.9 39.45 23.62s35.25-16.52 33.7-31.29c-0.6-5.46-19.86-12.84-38.15-10.92z" stroke="#e6e6e6"/>
   <path d="m319.62 246.76c-15.35 1.61-29.88 11-29.4 15.59 1.3 12.4 14.85 21.74 33.11 19.82s29.57-13.85 28.27-26.25c-0.48-4.59-16.6-10.77-31.98-9.16z" stroke="#f0f0f0"/>
   <g stroke="#e6e6e6">
    <ellipse transform="rotate(-5.99)" cx="276.58" cy="296.55" rx="8.15" ry="10.89"/>
    <path d="m312.68 265.39c0.39 3.72-1.55 7-4.34 7.27s-5.36-2.49-5.75-6.21 1.55-7 4.34-7.27 5.36 2.49 5.75 6.21z"/>
    <path d="m345.05 262c0.63 6-2.49 11.22-7 11.68s-8.61-4-9.24-10 2.49-11.21 7-11.68 8.62 4 9.24 10z"/>
    <path d="m330.26 263.54c0.39 3.73 3 6.51 5.75 6.21s4.73-3.54 4.34-7.26-3-6.51-5.75-6.21-4.73 3.54-4.34 7.26z"/>
    <path d="m93.79 308.21c1.06-3.08 5.54-4.92 9.13-3.68 9.71 3.36 19.86 9.59 18.6 13.26s-13.25 2.32-23-1c-3.52-1.28-5.8-5.5-4.73-8.58z"/>
   </g>
   <path d="m118.08 108.14c3.62-1.79 5.8-3 5.8-3l0.62-5.13-4.31-2.84s-2.33 0.89-6 2.49c-8.44 3.66-24 11-35.11 20-1.21 1-2.39 2-3.48 3 1.48-0.18 3-0.42 4.55-0.71 13.98-2.65 29.67-9.74 37.93-13.81z" stroke="#e0e0e0"/>
   <g stroke="#e6e6e6">
    <path d="m126.19 101.71 11.39 19.46s-18.58 31.53-39.9 40.05c14.41-15.19 26.7-40.73 26.7-40.73l-8.66-13.93z"/>
    <path d="m125.18 100.38-4.84-22s-35.02-10.6-56.49-2.38c20.9 1.38 47.25 11.79 47.25 11.79l3.1 16.11z"/>
    <path d="m113.33 105.93a10.61 10.61 0 0 1 4.75-14.2l17.65-8.8a5.27 5.27 0 0 1 7.05 2.36l4.76 9.55a5.27 5.27 0 0 1-2.36 7l-17.65 8.79a10.62 10.62 0 0 1-14.2-4.7z"/>
   </g>
   <path d="m149.27 81.9 4.7799 9.5954a4.1 4.1 0 0 1-1.8417 5.498l-9.9982 4.9805a8.25 8.25 0 0 1-11.063-3.7059l-1.079-2.1661a8.25 8.25 0 0 1 3.7059-11.063l9.9982-4.9805a4.1 4.1 0 0 1 5.498 1.8417z" stroke="#ebebeb"/>
   <path d="m136.89 82.16a18 18 0 0 1 24.32-7.5l29.63 15.65a9 9 0 0 1 3.72 12.08l-8.46 16a9 9 0 0 1-12.1 3.74l-29.6-15.65a18 18 0 0 1-7.51-24.32z" stroke="#e6e6e6"/>
   <circle transform="rotate(-59.43)" cx=".89285" cy="221.49" r="26.11" stroke="#e6e6e6"/>
   <ellipse transform="rotate(-56.46)" cx="11.718" cy="229.88" rx="20.94" ry="16.14" stroke="#ebebeb"/>
   <path d="m189.74 121.26c6.36-2 14.45-8.18 17.79-13.42a3.36 3.36 0 0 1 5.05-0.84c7.58 7.26 10.58 16 20 26.62 10.94 12.26 36.55 25.93 42.06 39.3-12.69 8.72-37.42 16-41.07 30.39-22.52-14.48-40.65-57-46.07-77.42-0.5-1.98 0.29-4.03 2.24-4.63z" stroke="#e6e6e6"/>
   <path d="m207.45 382.4h56.35a5.68 5.68 0 0 0 2.83-10.61c-15.48-8.82-36.81-19.93-46.09-19.93-18.06 0-13.09 30.54-13.09 30.54z" stroke="#e6e6e6"/>
   <path d="m201.66 379.16c26.48-4.37 31.21-21.48 31.21-21.48l-30.27 1.24z" stroke="#e0e0e0"/>
   <circle cx="209.25" cy="318.02" r="48" stroke="#e6e6e6"/>
   <ellipse transform="rotate(-49.95)" cx="-110.26" cy="378.97" rx="36.95" ry="31.29" stroke="#ebebeb"/>
   <path d="m211.08 382.4h-56.36a5.68 5.68 0 0 1-2.83-10.61c15.48-8.79 36.81-19.93 46.11-19.93 18 0 13.08 30.54 13.08 30.54z" stroke="#e6e6e6"/>
   <circle transform="rotate(-36.26)" cx="93.204" cy="313.74" r="35.73" stroke="#e6e6e6"/>
   <ellipse transform="rotate(-26.36)" cx="144.87" cy="305" rx="28.66" ry="22.08" stroke="#ebebeb"/>
   <path d="m210.56 300.56c-1.31-15-15.29-24.81-21.47-26.1 1.18-20.55 29.53-53.61 39.45-61 3.47 5.74 23.56 2.45 29.76-4.64s26.27 1.17 21.26 13-44.56 21.72-44.56 56.9c8 6.47 11.05 12.85 10.2 22.52-0.83 7.07-21.38 12.28-34.64-0.68z" stroke="#e6e6e6"/>
   <g stroke="#fff" stroke-width="2">
    <ellipse cx="255" cy="416.24" rx="193.89" ry="11.32" fill="none" stroke="#fff" stroke-width="2"/>
   </g>
  </g>
  <g stroke="#fff" stroke-width="2">
   <g>
    <path d="m166 300.59c5.22-1.58 12.1 2.69 13.94 8.76 5 16.43 6.49 36.3 0.29 38.18s-16.13-15.65-21.11-32.08c-1.84-6.08 1.67-13.28 6.88-14.86z" fill="#263238"/>
    <path d="m137.93 286.15c-21.36 0-42.73 13.39-42.73 27.86 0 39.12 17.32 83.91 42.73 83.91s42.74-44.79 42.74-83.91c0-14.47-21.37-27.86-42.74-27.86z" fill="#0b5477"/>
    <path d="m137.93 286.15a55.71 55.71 0 0 0-16.41 2.54 76.09 76.09 0 0 0 21.51 3 82 82 0 0 0 15.52-1.48 55.9 55.9 0 0 0-20.62-4.06z" fill="#e1ddd4" opacity=".1"/>
    <path d="m104.59 304-9.39 10a147.57 147.57 0 0 0 3.89 33.25c5.71-5.91 11.65-17.35 12.68-28.53 1.09-11.92-1.93-13.23-7.18-14.72z" fill="#263238"/>
    <path d="m113 300.3c-4.77-2.63-12.38-0.11-15.44 5.45-8.28 15-13.89 34.39-8.21 37.52s19-12 27.3-27c3.03-5.57 1.09-13.34-3.65-15.97z" fill="#0b5477"/>
    <g fill="#fff">
     <path d="m144.42 384.39c-19.17 0-32.53-33.36-32.53-63.31 0-11 15.81-21.4 32.53-21.4s32.52 10.4 32.52 21.4c0 29.92-13.36 63.31-32.52 63.31zm0-83.55c-15.83 0-31.37 10-31.37 20.24 0 29.4 12.88 62.15 31.37 62.15s31.36-32.75 31.36-62.15c0-10.21-15.54-20.24-31.36-20.24z"/>
     <path d="m145 383.94-1.13-0.26c7.67-32.75 5.62-77.54 0.16-83l0.82-0.82c6.32 6.34 7.51 52.55 0.15 84.08z"/>
     <path d="m128.14 365.71c0.43 0.65 0.49 1.38 0.13 1.61s-1-0.1-1.43-0.76-0.49-1.37-0.13-1.61 1 0.11 1.43 0.76z"/>
     <path d="m130.41 369.17c0.43 0.65 0.48 1.37 0.12 1.61s-1-0.11-1.42-0.76-0.49-1.38-0.13-1.61 1.02 0.1 1.43 0.76z"/>
     <path d="m131.69 365.85c0.43 0.66 0.49 1.38 0.13 1.61s-1-0.1-1.43-0.76-0.49-1.37-0.13-1.61 1 0.11 1.43 0.76z"/>
     <path d="m134 369.31c0.43 0.65 0.48 1.37 0.12 1.61s-1-0.11-1.42-0.76-0.49-1.38-0.13-1.61 0.96 0.1 1.43 0.76z"/>
     <path d="m132.67 372.62c0.43 0.65 0.49 1.38 0.13 1.61s-1-0.1-1.43-0.76-0.48-1.37-0.13-1.61 1 0.14 1.43 0.76z"/>
    </g>
   </g>
   <path d="m189.82 185.55c2.77-3.89 4.38-6.36 4.38-6.36l-2.2-5.69-6.08-0.56s-1.93 2.23-4.9 6c-6.75 8.53-18.84 24.91-25.41 40.45q-1.09 2.56-2 5.09c1.45-1 2.91-2.12 4.35-3.29 13.14-10.64 25.53-26.79 31.86-35.64z" fill="#263238"/>
   <path d="m194.11 181.68 11.52 24s-25 35.33-50.95 43.26c18.46-16.48 35.45-45.35 35.45-45.35l-8.82-17.27z" fill="#263238"/>
   <path d="m148.26 221c-23.66-6.23-50.48-0.44-52.34 6.63-5 19.11 9.83 40.56 38 48s51.63-4 56.66-23.06c1.83-7.1-18.66-25.34-42.32-31.57z" fill="#0b5477"/>
   <path d="m147.1 225.39c-19.85-5.22-42.35-0.37-43.91 5.56-4.19 16.05 8.24 34.05 31.81 40.26s43.33-3.32 47.55-19.36c1.6-5.93-15.55-21.23-35.45-26.46z" fill="#e1ddd4" opacity=".1"/>
   <ellipse transform="rotate(-75.25)" cx="-204.2" cy="178.95" rx="14.49" ry="10.85" fill="#263238"/>
  </g>
  <g fill="#fff" stroke="#fff" stroke-width="2">
   <path d="m102.54 245.51c-1.29 0-2.56-0.93-3.59-2.64a17.37 17.37 0 0 1-1.23-13.42c0.74-2 1.92-3.17 3.3-3.29s2.74 0.81 3.84 2.63a15.93 15.93 0 0 1 2 6.59 15.81 15.81 0 0 1-0.74 6.83c-0.75 2-1.92 3.17-3.3 3.29zm-1.28-18.4h-0.15c-1 0.09-1.89 1.06-2.49 2.67a16.46 16.46 0 0 0 1.15 12.58c0.89 1.47 2 2.25 2.93 2.17s1.89-1.06 2.49-2.67a14.93 14.93 0 0 0 0.67-6.4 14.65 14.65 0 0 0-1.83-6.18c-0.83-1.39-1.84-2.17-2.77-2.17z"/>
   <path d="m177.48 265.22a3 3 0 0 1-1.71-0.51c-2.28-1.58-1.63-6.32 1.48-10.8a15.85 15.85 0 0 1 4.95-4.76c1.85-1.05 3.5-1.19 4.64-0.4s1.59 2.38 1.25 4.49a17.38 17.38 0 0 1-7.67 11.07 6.19 6.19 0 0 1-2.94 0.91zm7.65-16a5.16 5.16 0 0 0-2.46 0.78 15 15 0 0 0-4.63 4.47c-2.7 3.9-3.49 8.23-1.72 9.46 0.81 0.56 2.13 0.4 3.62-0.45a16.5 16.5 0 0 0 7.2-10.38c0.27-1.7 0-3-0.85-3.55a2 2 0 0 0-1.16-0.34z"/>
   <path d="m129.7 245.31c-1.27 4.81-5.21 7.94-8.82 7s-5.5-5.63-4.23-10.44 5.22-8 8.82-7 5.53 5.62 4.23 10.44z"/>
  </g>
  <g stroke="#fff" stroke-width="2">
   <path d="m171.58 256.33c-2 7.74-8.39 12.77-14.18 11.25s-8.84-9-6.8-16.77 8.4-12.81 14.18-11.25 8.83 9.03 6.8 16.77z" fill="#263238"/>
   <ellipse transform="rotate(-75.25)" cx="-204.21" cy="218.16" rx="9.01" ry="6.75" fill="#fff"/>
   <path d="m183 172.88-26.32-4.23s-26.81 33.95-27.06 61.13c10.54-22.39 33.38-46.86 33.38-46.86l19.07 3.57z" fill="#263238"/>
   <path d="m180.12 188.49a12.56 12.56 0 0 1 1.21-17.66l17.57-15.32a6.23 6.23 0 0 1 8.77 0.6l8.29 9.5a6.25 6.25 0 0 1-0.6 8.77l-17.57 15.32a12.57 12.57 0 0 1-17.67-1.21z" fill="#0b5477"/>
   <path d="m214.12 150.28 8.3338 9.5566a4.84 4.84 0 0 1-0.46675 6.8289l-9.9486 8.6756a9.75 9.75 0 0 1-13.756-0.94023l-1.8797-2.1555a9.75 9.75 0 0 1 0.94023-13.756l9.9486-8.6756a4.84 4.84 0 0 1 6.8289 0.46674z" fill="#e1ddd4" opacity=".1"/>
   <path d="m199.19 166.53a21.33 21.33 0 0 1 10.13-28.33l35.81-16.94a10.59 10.59 0 0 1 14.06 5l9.17 19.37a10.59 10.59 0 0 1-5 14.06l-35.8 16.95a21.34 21.34 0 0 1-28.37-10.11z" fill="#263238"/>
   <path d="m222.42 175.48a21.85 21.85 0 0 1-19.77-12.48 0.55462 0.55462 0 0 1 1-0.48 20.75 20.75 0 0 0 27.59 9.87l35.81-16.94a0.55462 0.55462 0 1 1 0.48 1l-35.81 16.94a21.76 21.76 0 0 1-9.3 2.09z" fill="#fff" opacity=".1"/>
   <circle transform="rotate(-76.34)" cx="-66.135" cy="288.27" r="30.87" fill="#0b5477"/>
   <ellipse transform="rotate(-87.03)" cx="-119.21" cy="281.32" rx="24.76" ry="19.08" fill="#e1ddd4" opacity=".1"/>
  </g>
  <g fill="#fff" stroke="#fff" stroke-width="2">
   <path d="m255.25 158.4a14.5 14.5 0 0 1-5.69-1.23 23 23 0 0 1-10.45-9.4c-5.48-9-4.62-19.55 1.92-23.53s16.31 0.09 21.79 9.09 4.62 19.55-1.92 23.54a10.76 10.76 0 0 1-5.65 1.53zm-8.58-35a10.07 10.07 0 0 0-5.28 1.43c-6.21 3.78-7 13.91-1.69 22.58a22.37 22.37 0 0 0 10.13 9.12c3.92 1.65 7.72 1.56 10.71-0.26 6.21-3.78 7-13.91 1.69-22.58-3.93-6.44-10.1-10.29-15.56-10.29z"/>
   <path d="m242.43 126.89a0.37 0.37 0 0 1-0.24-0.1 0.34 0.34 0 0 1 0-0.48 0.35 0.35 0 0 1 0.38-0.08 0.28 0.28 0 0 1 0.11 0.08 0.34 0.34 0 0 1 0 0.48 0.26 0.26 0 0 1-0.11 0.07 0.35 0.35 0 0 1-0.14 0.03z"/>
   <path d="m258.86 133.22a0.34 0.34 0 0 1 0.08-0.48 0.35 0.35 0 0 1 0.48 0.07 0.34 0.34 0 0 1-0.08 0.48 0.31 0.31 0 0 1-0.2 0.07 0.35 0.35 0 0 1-0.28-0.14zm-1.34-1.66a0.34 0.34 0 0 1 0-0.48 0.35 0.35 0 0 1 0.49 0 0.36 0.36 0 0 1 0 0.49 0.34 0.34 0 0 1-0.23 0.08 0.31 0.31 0 0 1-0.26-0.09zm-1.52-1.56a0.35 0.35 0 0 1 0-0.49 0.34 0.34 0 0 1 0.48 0 0.35 0.35 0 0 1 0 0.49 0.36 0.36 0 0 1-0.25 0.11 0.33 0.33 0 0 1-0.23-0.11zm-1.65-1.37a0.34 0.34 0 0 1-0.07-0.47 0.34 0.34 0 0 1 0.48-0.08 0.35 0.35 0 0 1 0.07 0.48 0.35 0.35 0 0 1-0.27 0.14 0.33 0.33 0 0 1-0.19-0.03zm-1.78-1.16a0.35 0.35 0 0 1-0.13-0.47 0.35 0.35 0 0 1 0.47-0.13 0.36 0.36 0 0 1 0.13 0.47 0.35 0.35 0 0 1-0.3 0.18 0.34 0.34 0 0 1-0.15-0.01zm-1.91-0.92a0.33 0.33 0 0 1-0.19-0.45 0.34 0.34 0 0 1 0.44-0.19 0.34 0.34 0 0 1 0.19 0.45 0.35 0.35 0 0 1-0.32 0.22 0.27 0.27 0 0 1-0.1 0.01zm-6.59-0.8a0.33 0.33 0 0 1 0.25-0.42 0.34 0.34 0 0 1 0.42 0.24 0.34 0.34 0 0 1-0.25 0.42h-0.09a0.34 0.34 0 0 1-0.31-0.2zm4.57 0.19a0.34 0.34 0 0 1-0.27-0.41 0.35 0.35 0 0 1 0.41-0.26 0.34 0.34 0 0 1 0.26 0.4 0.34 0.34 0 0 1-0.34 0.28h-0.06zm-2.43-0.56a0.34 0.34 0 0 1 0.34-0.34 0.35 0.35 0 0 1 0.35 0.34 0.35 0.35 0 0 1-0.35 0.34 0.34 0.34 0 0 1-0.32-0.3z"/>
   <path d="m260.36 135.17a0.35 0.35 0 0 1-0.25-0.1 0.41 0.41 0 0 1-0.11-0.07 0.28 0.28 0 0 1 0-0.13 0.31 0.31 0 0 1 0-0.13 0.41 0.41 0 0 1 0.07-0.11l0.11-0.08a0.36 0.36 0 0 1 0.38 0.08 0.26 0.26 0 0 1 0.07 0.11 0.31 0.31 0 0 1 0 0.13 0.28 0.28 0 0 1 0 0.13 0.26 0.26 0 0 1-0.07 0.11 0.31 0.31 0 0 1-0.2 0.06z"/>
  </g>
  <g stroke="#fff" stroke-width="2">
   <path d="m275.77 148.83c1.34-7.76-0.9-19.62-4.64-25.94a4.08 4.08 0 0 1 1.82-5.77c10.61-5 27.92-5.92 44.55-3.32 19.2 3 52.58 17.53 62.36 31.55-12.44 13.31-39.11 28-39.67 45.56-13.49-21.62-35.09-34.92-60.71-37.3a4.11 4.11 0 0 1-3.71-4.78z" fill="#263238"/>
   <path d="m377.7 156.32a1.11 1.11 0 0 1-0.95-0.53c-8.8-14.58-41.62-31.06-59.44-35.07-16.92-3.79-33.79-3.67-44 0.34a1.1114 1.1114 0 0 1-0.81-2.07c10.64-4.15 28-4.32 45.32-0.43 18 4 51.44 20.49 60.85 36.08a1.11 1.11 0 0 1-0.37 1.52 1.1 1.1 0 0 1-0.6 0.16z" fill="#e1ddd4"/>
   <path d="m366.32 220.69a0.55 0.55 0 0 1-0.54-0.45c-3.17-16.07-26.75-42.47-44.15-53.6-14.69-9.4-30.71-15.12-41.81-14.81a0.54 0.54 0 0 1-0.56-0.54 0.55 0.55 0 0 1 0.54-0.56c11.32-0.26 27.56 5.46 42.43 15 15.45 9.89 41.14 36.6 44.63 54.33a0.55 0.55 0 0 1-0.43 0.65z" fill="#fff" opacity=".1"/>
   <path d="m340 416.24h66.63a6.72 6.72 0 0 0 3.37-12.55c-18.29-10.42-43.51-23.55-54.48-23.55-21.37 0-15.52 36.1-15.52 36.1z" fill="#263238"/>
  </g>
  <g stroke="#fff" stroke-width="2">
   <path d="m333.18 412.41c31.3-5.17 36.9-25.4 36.9-25.4l-35.79 1.48z" fill="#e1ddd4"/>
   <circle cx="342.15" cy="340.13" r="56.74" fill="#0b5477"/>
   <ellipse transform="rotate(-49.95)" cx="-41.948" cy="497.51" rx="43.68" ry="37" fill="#e1ddd4" opacity=".1"/>
  </g>
  <g fill="#fff" stroke="#fff" stroke-width="2">
   <path d="m306.91 375.16c-10.62 0-19.26-15.71-19.26-35s8.64-35 19.26-35 19.26 15.72 19.26 35-8.64 35-19.26 35zm0-69c-10 0-18.15 15.22-18.15 33.92s8.14 33.92 18.15 33.92 18.16-15.21 18.16-33.92-8.15-33.87-18.16-33.87z"/>
   <path d="m306.91 310.54a0.46 0.46 0 0 1-0.21 0 0.55 0.55 0 0 1-0.3-0.3 0.57 0.57 0 0 1 0-0.42 0.66 0.66 0 0 1 0.12-0.17 0.36 0.36 0 0 1 0.18-0.12 0.51 0.51 0 0 1 0.42 0 0.61 0.61 0 0 1 0.29 0.29 0.47 0.47 0 0 1 0 0.42 0.36 0.36 0 0 1-0.12 0.18 0.66 0.66 0 0 1-0.17 0.12 0.52 0.52 0 0 1-0.21 0z"/>
   <path d="m321.47 336.82a0.54 0.54 0 0 1 0.52-0.57 0.55 0.55 0 0 1 0.58 0.51 0.55 0.55 0 0 1-0.51 0.58 0.56 0.56 0 0 1-0.59-0.52zm-0.27-3.28a0.55 0.55 0 0 1 0.48-0.61 0.55 0.55 0 0 1 0.6 0.49 0.54 0.54 0 0 1-0.48 0.6h-0.06a0.54 0.54 0 0 1-0.54-0.48zm-0.48-3.26a0.55 0.55 0 0 1 0.45-0.63 0.54 0.54 0 0 1 0.63 0.44 0.55 0.55 0 0 1-0.44 0.64h-0.09a0.57 0.57 0 0 1-0.55-0.45zm-0.67-3.22a0.55 0.55 0 0 1 0.4-0.66 0.55 0.55 0 0 1 0.66 0.4 0.57 0.57 0 0 1-0.4 0.67h-0.13a0.54 0.54 0 0 1-0.53-0.41zm-0.91-3.15a0.55 0.55 0 0 1 0.36-0.69 0.55 0.55 0 0 1 0.69 0.35 0.55 0.55 0 0 1-0.35 0.69 0.52 0.52 0 0 1-0.17 0 0.55 0.55 0 0 1-0.53-0.35zm-1.14-3.07a0.55 0.55 0 0 1 0.29-0.72 0.55 0.55 0 0 1 0.72 0.29 0.55 0.55 0 0 1-0.29 0.72 0.54 0.54 0 0 1-0.22 0 0.54 0.54 0 0 1-0.5-0.29zm-1.44-2.93a0.57 0.57 0 0 1 0.21-0.75 0.55 0.55 0 0 1 0.74 0.21 0.55 0.55 0 0 1-0.2 0.75 0.54 0.54 0 0 1-0.27 0.07 0.55 0.55 0 0 1-0.49-0.28zm-1.78-2.71a0.55 0.55 0 0 1 0.1-0.77 0.54 0.54 0 0 1 0.76 0.1 0.55 0.55 0 0 1-0.1 0.77 0.51 0.51 0 0 1-0.33 0.11 0.54 0.54 0 0 1-0.44-0.21zm-2.2-2.33a0.55 0.55 0 0 1-0.06-0.78 0.56 0.56 0 0 1 0.78-0.06 0.56 0.56 0 0 1 0 0.78 0.55 0.55 0 0 1-0.41 0.19 0.61 0.61 0 0 1-0.32-0.13zm-2.65-1.69a0.55 0.55 0 0 1-0.29-0.72 0.55 0.55 0 0 1 0.72-0.29 0.55 0.55 0 0 1 0.29 0.72 0.54 0.54 0 0 1-0.51 0.33 0.52 0.52 0 0 1-0.22-0.04z"/>
   <path d="m322.11 340.68a0.78 0.78 0 0 1-0.21 0 0.57 0.57 0 0 1-0.18-0.12 0.42 0.42 0 0 1-0.11-0.18 0.46 0.46 0 0 1-0.05-0.21 0.54 0.54 0 0 1 0.05-0.21 0.45 0.45 0 0 1 0.11-0.17 0.71 0.71 0 0 1 0.18-0.12 0.51 0.51 0 0 1 0.42 0 0.57 0.57 0 0 1 0.18 0.12 0.66 0.66 0 0 1 0.12 0.17 0.57 0.57 0 0 1 0 0.42 0.57 0.57 0 0 1-0.12 0.18 0.55 0.55 0 0 1-0.39 0.12z"/>
  </g>
  <path d="m344.31 416.24h-66.63a6.72 6.72 0 0 1-3.34-12.55c18.3-10.42 43.52-23.55 54.49-23.55 21.35 0 15.48 36.1 15.48 36.1z" fill="#263238" stroke="#fff" stroke-width="2"/>
  <g fill="#0b5477" stroke="#fff" stroke-width="2">
   <path d="m411.82 160.92a44.94 44.94 0 0 0-4.4-8.31l0.92-0.62a46.52 46.52 0 0 1 4.51 8.51z"/>
   <path d="m404 148.16a44.87 44.87 0 0 0-20.88-13.53l0.32-1.06a46 46 0 0 1 21.4 13.86z"/>
   <circle transform="rotate(-67.51)" cx="-22.62" cy="409.89" r="42.25"/>
  </g>
  <ellipse transform="rotate(-38.83)" cx="175.84" cy="384.58" rx="33.88" ry="26.11" fill="#e1ddd4" opacity=".1" stroke="#fff" stroke-width="2"/>
  <g fill="#fff" stroke="#fff" stroke-width="2">
   <path d="m345.92 197.06a14.44 14.44 0 0 1-4.13-0.61c-4.89-1.49-8.68-5.5-10.67-11.3a31.63 31.63 0 0 1 0.07-19.23c4.18-13.8 15.73-22.55 25.76-19.51s14.78 16.73 10.6 30.53a31.65 31.65 0 0 1-10.62 16 18.26 18.26 0 0 1-11.01 4.12zm6.92-50.31c-8.48 0-17.24 7.9-20.74 19.44a30.68 30.68 0 0 0-0.08 18.65c1.89 5.51 5.46 9.31 10 10.7s9.66 0.21 14.29-3.32a30.74 30.74 0 0 0 10.29-15.56c4-13.29-0.44-26.45-10-29.34a13.28 13.28 0 0 0-3.76-0.57z"/>
   <path d="m355.88 150.42a0.48 0.48 0 0 1-0.34-0.14 0.47 0.47 0 0 1-0.13-0.33 0.57 0.57 0 0 1 0-0.18 0.78 0.78 0 0 1 0.1-0.15 0.44 0.44 0 0 1 0.16-0.1 0.48 0.48 0 0 1 0.51 0.1 0.49 0.49 0 0 1 0.1 0.15 0.57 0.57 0 0 1 0 0.18 0.43 0.43 0 0 1-0.13 0.33 0.72 0.72 0 0 1-0.15 0.11 0.57 0.57 0 0 1-0.12 0.03z"/>
   <path d="m364.41 173.36a0.46 0.46 0 0 1-0.36-0.56 0.47 0.47 0 0 1 0.55-0.36 0.47 0.47 0 0 1 0.37 0.56 0.48 0.48 0 0 1-0.47 0.37h-0.09zm0.52-2.93a0.47 0.47 0 0 1-0.42-0.52 0.48 0.48 0 0 1 0.52-0.41 0.47 0.47 0 0 1 0.42 0.52 0.48 0.48 0 0 1-0.47 0.42h-0.05zm0.24-3a0.47 0.47 0 0 1-0.47-0.47 0.47 0.47 0 0 1 0.48-0.46 0.46 0.46 0 0 1 0.46 0.48 0.47 0.47 0 0 1-0.47 0.46zm-0.58-3.39a0.48 0.48 0 0 1 0.42-0.51 0.47 0.47 0 0 1 0.51 0.43 0.46 0.46 0 0 1-0.42 0.51 0.47 0.47 0 0 1-0.51-0.39zm-0.44-2.88a0.46 0.46 0 0 1 0.36-0.56 0.46 0.46 0 0 1 0.56 0.36 0.47 0.47 0 0 1-0.36 0.56h-0.1a0.47 0.47 0 0 1-0.46-0.32zm-0.8-2.79a0.47 0.47 0 0 1 0.27-0.61 0.48 0.48 0 0 1 0.61 0.28 0.47 0.47 0 0 1-0.28 0.6 0.45 0.45 0 0 1-0.16 0 0.45 0.45 0 0 1-0.44-0.23zm-1.22-2.62a0.47 0.47 0 0 1 0.17-0.65 0.46 0.46 0 0 1 0.64 0.18 0.47 0.47 0 0 1-0.17 0.64 0.46 0.46 0 0 1-0.23 0.06 0.45 0.45 0 0 1-0.41-0.19zm-1.68-2.33a0.46 0.46 0 0 1 0-0.66 0.47 0.47 0 0 1 0.67 0 0.48 0.48 0 0 1 0 0.67 0.47 0.47 0 0 1-0.31 0.12 0.48 0.48 0 0 1-0.36-0.09zm-2.15-1.86a0.47 0.47 0 0 1-0.14-0.65 0.46 0.46 0 0 1 0.65-0.13 0.48 0.48 0 0 1 0.13 0.65 0.49 0.49 0 0 1-0.4 0.21 0.49 0.49 0 0 1-0.24-0.04z"/>
   <path d="m363.77 176.26a0.44 0.44 0 0 1-0.33-0.13 0.57 0.57 0 0 1-0.11-0.16 0.48 0.48 0 0 1 0-0.18 0.57 0.57 0 0 1 0-0.18 0.53 0.53 0 0 1 0.11-0.15 0.4 0.4 0 0 1 0.15-0.1 0.48 0.48 0 0 1 0.51 0.1 0.47 0.47 0 0 1 0.14 0.33 0.48 0.48 0 0 1-0.14 0.34 0.4 0.4 0 0 1-0.15 0.1 0.57 0.57 0 0 1-0.18 0.03z"/>
  </g>
  <g stroke="#fff" stroke-width="2">
   <path d="m343.7 319.49c-1.55-17.71-18.08-29.33-25.39-30.86 1.41-24.3 9.05-73.64 18.6-84.76 5.47 5.74 27.82-3.18 33.17-13s30.62-5.35 27.85 9.6-22.22 41.53-25.36 93.2c9.41 7.65 13.07 15.18 12.05 26.62-0.95 8.37-25.24 14.51-40.92-0.8z" fill="#263238"/>
   <path d="m339.73 300.58a0.55 0.55 0 0 1-0.29-1c10.77-6.59 27-6.81 30.75-6.5a0.55184 0.55184 0 1 1-0.09 1.1c-3.68-0.3-19.57-0.09-30.08 6.34a0.51 0.51 0 0 1-0.29 0.06z" fill="#fff" opacity=".1"/>
   <path d="m375 329h-0.22a1.12 1.12 0 0 1-0.87-1.31c2.45-11.94-2.4-25.24-12.07-33.12a1.08 1.08 0 0 1-0.41-0.92c1.8-29.62 9.66-50 16.6-67.94 5.22-13.53 9.73-25.21 10.76-38.34a1.1033 1.1033 0 1 1 2.2 0.17c-1.05 13.45-5.61 25.28-10.9 39-6.83 17.7-14.57 37.75-16.42 66.72 10 8.42 15 22.38 12.41 34.91a1.11 1.11 0 0 1-1.08 0.83z" fill="#e1ddd4"/>
   <path d="m188.15 191c-2.26 0-5.09-1.72-7.17-4.59-2.8-3.85-3.21-8.34-0.92-10 1.14-0.83 2.74-0.85 4.5-0.08a12.26 12.26 0 0 1 4.74 4c2.79 3.85 3.2 8.33 0.91 10a3.4 3.4 0 0 1-2.06 0.67zm-6-14.67a2.89 2.89 0 0 0-1.76 0.53c-2 1.48-1.58 5.62 1 9.22s6.41 5.32 8.45 3.84 1.58-5.62-1-9.23a11.56 11.56 0 0 0-4.51-3.84 5.39 5.39 0 0 0-2.18-0.54z" fill="#fff"/>
  </g>
 </g>
 <script/>
</svg>
