<?xml version="1.0" encoding="utf-8"?>
<!-- Generator: Adobe Illustrator 19.0.0, SVG Export Plug-In . SVG Version: 6.00 Build 0)  -->
<svg version="1.1" xmlns="http://www.w3.org/2000/svg" xmlns:xlink="http://www.w3.org/1999/xlink" x="0px" y="0px"
	 viewBox="0 0 841.9 595.3" style="enable-background:new 0 0 841.9 595.3;" xml:space="preserve">
<style type="text/css">
	.st0{display:none;}
	.st1{display:inline;}
	.st2{fill:#FFFFFF;stroke:#020304;stroke-width:8;stroke-miterlimit:10;}
	.st3{fill:#010202;stroke:#000000;stroke-width:8;stroke-miterlimit:10;}
	.st4{fill:#FFFFFF;stroke:#FFFFFF;stroke-width:5;stroke-miterlimit:10;}
	.st5{fill:#FFFFFF;}
	.st6{fill:none;stroke:#000000;stroke-miterlimit:10;}
	.st7{fill:#010202;}
	.st8{fill:#FFFFFF;stroke:#010202;stroke-miterlimit:10;}
	.st9{opacity:0.3;fill:none;stroke:#FFFFFF;stroke-miterlimit:10;}
	.st10{opacity:0.5;fill:none;stroke:#FFFFFF;stroke-miterlimit:10;}
	.st11{opacity:0.3;}
	.st12{fill:none;stroke:#FFFFFF;stroke-miterlimit:10;}
	.st13{opacity:0.8;}
	.st14{opacity:0.7;fill:#FFFFFF;}
	.st15{fill:#FFDE00;}
	.st16{stroke:#FFFFFF;stroke-miterlimit:10;}
	.st17{fill:#FFFFFF;stroke:#FFFFFF;stroke-miterlimit:10;}
	.st18{fill:none;}
	.st19{fill:#FFFFFF;stroke:#010202;stroke-width:8;stroke-miterlimit:10;}
</style>
<g id="Calque_1" class="st0">
	<g id="XMLID_5360_" class="st1">
		<path id="XMLID_4889_" class="st2" d="M691.2,158.5L629.7,170c-43-70.5-120.6-117.5-209.3-117.5c-88.5,0-166.1,47-209.1,117.3
			l-61.6-11.3l5,278l56-12.3c42.9,70.9,120.8,118.3,209.8,118.3c89.4,0,167.5-47.9,210.3-119.3l60.4,13.3V158.5z"/>
		<circle id="XMLID_4888_" class="st3" cx="417.2" cy="291.7" r="206.5"/>
		<g id="XMLID_4858_">
			<line id="XMLID_4885_" class="st4" x1="418.4" y1="89.2" x2="418.4" y2="111.2"/>
			<path id="XMLID_4884_" class="st5" d="M422.1,151.8c23.8,0.7,41.8,6.3,41,34.4s-20.8,50.5-44.6,49.8
				c-23.8-0.7-42.5-24.1-41.7-52.3S398.2,151.1,422.1,151.8z"/>
			<line id="XMLID_4883_" class="st6" x1="382.6" y1="165.4" x2="381.2" y2="174.7"/>
			<g id="XMLID_4859_">
				<rect id="XMLID_4882_" x="378.2" y="106.6" class="st5" width="80.8" height="26.2"/>
				<polygon id="XMLID_4881_" class="st5" points="444.2,148.7 394.6,148.7 378.2,136.3 459,136.3 				"/>
				<ellipse id="XMLID_4880_" class="st7" cx="393.1" cy="121.1" rx="10" ry="7.8"/>
				<ellipse id="XMLID_4879_" class="st7" cx="443.1" cy="121.1" rx="10" ry="7.8"/>
				<ellipse id="XMLID_4878_" class="st5" cx="373.9" cy="121.1" rx="6.7" ry="9.6"/>
				<ellipse id="XMLID_4877_" class="st5" cx="463.2" cy="121.1" rx="6.7" ry="9.6"/>
				<path id="XMLID_4876_" class="st5" d="M372.2,121.1c0-1.1,2-26.1,2-26.1l2,26.1H372.2z"/>
				<path id="XMLID_4875_" class="st5" d="M461.2,121.1c0-1.1,2-26.1,2-26.1l2,26.1H461.2z"/>
				<ellipse id="XMLID_4874_" class="st5" cx="418.6" cy="92.6" rx="6.2" ry="4.9"/>
				<path id="XMLID_4873_" class="st5" d="M439,127.2c2.4,0.9,5.2,0.9,7.7,0c2.4-0.8,4.5-2.5,5.7-4.6c-0.1,1.5-1.6,2.7-2.9,3.7
					c-0.6,0.4-1.2,0.9-1.9,1.2c-1.8,0.9-4,1.3-6.1,1.1c-1-0.1-2.2-0.5-2.7-1.3c0.1-0.1,0.2-0.1,0.3-0.2"/>
				<path id="XMLID_4872_" class="st5" d="M384.6,123.3c0.8,1.2,2.1,2,3.4,2.7c1.5,0.7,3.2,1.2,4.9,1.1c3.1,0,5.8-1.4,8.4-2.8
					c-0.3,1.1-1.1,2-2.1,2.6c-1.7,1-3.8,1.2-5.9,1.3c-0.9,0-1.7,0.1-2.6-0.1c-1.1-0.2-2.2-0.8-3.1-1.4c-1.2-0.8-2.5-1.7-3.2-2.9
					C384.5,123.7,384.4,123.4,384.6,123.3"/>
				<path id="XMLID_4871_" class="st7" d="M459.1,114.1c0.2-0.1,1.3-1.9,2.8-2c1.5-0.2,3.9-0.7,6.1,3c2.2,3.7,1.2,8.3,1.2,8.3h-0.7
					c0,0,1.1-4.2-0.9-7.7c-2-3.5-4.1-3.2-5.5-2.9c-1.4,0.3-2,1.8-2,1.8L459.1,114.1z"/>
				<path id="XMLID_4870_" class="st7" d="M378.7,113.9v-6.9h11.5C390.2,107.1,379.3,107.5,378.7,113.9z"/>
				<polygon id="XMLID_4869_" class="st5" points="390.2,157 372.2,153.3 378.7,173.5 				"/>
				<path id="XMLID_4868_" class="st5" d="M373.8,158.4c0.4,1.3-6.6,28.5-6.6,28.5l13.3-7.8l2.3-15.8L373.8,158.4z"/>
				<polyline id="XMLID_4867_" class="st5" points="460.6,173.5 449.1,157 467.1,153.3 				"/>
				<path id="XMLID_4866_" class="st8" d="M427.6,171.1c1.8,5.6-14.5,15.8-36.3,22.7s-22.7,2.2-24.4-3.5s-3.9-10,18-16.9
					S425.8,165.5,427.6,171.1z"/>
				<path id="XMLID_4865_" class="st5" d="M465.6,158c-0.7,1.2,0.1,29.2,0.1,29.2l-11.2-10.5l1.2-15.9L465.6,158z"/>
				<path id="XMLID_4864_" class="st8" d="M406,178.1c-1.3,5.7,15.7,14.6,38,19.8c22.3,5.2,22.8,0.4,24.1-5.4s3.1-10.3-19.2-15.5
					C426.5,171.9,407.4,172.4,406,178.1z"/>
				<line id="XMLID_4863_" class="st6" x1="454.2" y1="170.1" x2="455.5" y2="179.4"/>
				<path id="XMLID_4862_" d="M421.9,187.7c0.2-0.9,38.2,10,42.1,4.8c3.9-5.2,1.8,6.5-5.1,6.3C451.9,198.1,420.4,193.3,421.9,187.7z
					"/>
				<path id="XMLID_4861_" class="st7" d="M367.3,186.9l2.7,7.5c0,0,1.1,2,5.9,1.5c4.7-0.5,18.6-3.9,18.6-3.9
					S370.3,195.2,367.3,186.9z"/>
				<path id="XMLID_4860_" class="st7" d="M384.3,164.1c0-0.8-1.4,8.5-1.4,8.5l21-5.6C403.9,167,383.9,172.4,384.3,164.1z"/>
			</g>
		</g>
		<polygon id="XMLID_4857_" class="st9" points="464,494.5 448.6,502.6 433.9,493.3 434.5,475.9 450,467.8 464.7,477.1 		"/>
		<polygon id="XMLID_4856_" class="st10" points="419.6,467.3 404.1,475.5 389.4,466.2 390.1,448.7 405.5,440.6 420.2,449.9 		"/>
		<g id="XMLID_4852_" class="st11">
			<polygon id="XMLID_4855_" class="st12" points="389.2,466.3 373.8,474.5 359.1,465.2 359.7,447.7 375.2,439.6 389.9,448.9 			"/>
			<polygon id="XMLID_4854_" class="st12" points="405.8,440.9 390.4,449 375.7,439.7 376.3,422.3 391.8,414.2 406.5,423.5 			"/>
			<polygon id="XMLID_4853_" class="st12" points="375,439.8 359.6,447.9 344.8,438.6 345.5,421.2 360.9,413.1 375.7,422.4 			"/>
		</g>
		<g id="XMLID_4815_" class="st11">
			<polygon id="XMLID_4851_" class="st10" points="479.9,469.3 464.5,477.5 449.7,468.2 450.4,450.7 465.8,442.6 480.6,451.9 			"/>
			<polygon id="XMLID_4850_" class="st10" points="496.5,443.9 481.1,452 466.3,442.7 467,425.3 482.4,417.2 497.2,426.5 			"/>
			<polygon id="XMLID_4849_" class="st10" points="493.8,495.9 478.4,504.1 463.6,494.8 464.3,477.4 479.7,469.2 494.5,478.5 			"/>
			<polygon id="XMLID_4848_" class="st10" points="498.8,392.3 483.3,400.4 468.6,391.1 469.3,373.7 484.7,365.6 499.4,374.9 			"/>
			<polygon id="XMLID_4847_" class="st10" points="557.9,446.3 542.5,454.4 527.7,445.1 528.4,427.7 543.8,419.5 558.6,428.8 			"/>
			<polygon id="XMLID_4846_" class="st12" points="433.7,493.5 418.3,501.6 403.5,492.3 404.2,474.9 419.6,466.8 434.4,476.1 			"/>
			<polygon id="XMLID_4845_" class="st12" points="510.2,470.3 494.8,478.5 480,469.2 480.7,451.7 496.1,443.6 510.9,452.9 			"/>
			<polygon id="XMLID_4844_" class="st12" points="435.4,442.2 420,450.3 405.2,441 405.9,423.6 421.3,415.5 436.1,424.8 			"/>
			<polygon id="XMLID_4843_" class="st12" points="465.7,443.2 450.3,451.3 435.6,442 436.2,424.6 451.7,416.5 466.4,425.8 			"/>
			<polygon id="XMLID_4842_" class="st12" points="452,416.7 436.6,424.9 421.8,415.6 422.5,398.1 437.9,390 452.7,399.3 			"/>
			<polygon id="XMLID_4841_" class="st12" points="402.9,492.5 387.4,500.6 372.7,491.3 373.4,473.9 388.8,465.8 403.5,475.1 			"/>
			<g id="XMLID_4837_">
				<polygon id="XMLID_4840_" class="st12" points="405.5,440.9 390,449 375.3,439.7 376,422.3 391.4,414.2 406.1,423.5 				"/>
				<polygon id="XMLID_4839_" class="st12" points="422.1,415.4 406.6,423.5 391.9,414.2 392.5,396.8 408,388.7 422.7,398 				"/>
				<polygon id="XMLID_4838_" class="st12" points="391.2,414.4 375.8,422.5 361,413.2 361.7,395.8 377.1,387.6 391.9,396.9 				"/>
			</g>
			<g id="XMLID_4833_">
				<polygon id="XMLID_4836_" class="st12" points="341.8,490.3 326.4,498.4 311.6,489.1 312.3,471.7 327.7,463.6 342.5,472.9 				
					"/>
				<polygon id="XMLID_4835_" class="st12" points="358.4,464.9 343,473 328.2,463.7 328.9,446.3 344.3,438.1 359.1,447.4 				"/>
				<polygon id="XMLID_4834_" class="st12" points="327.5,463.8 312.1,471.9 297.4,462.6 298,445.2 313.5,437.1 328.2,446.4 				"/>
			</g>
			<g id="XMLID_4829_">
				<polygon id="XMLID_4832_" class="st12" points="343.7,439 328.3,447.1 313.6,437.9 314.2,420.4 329.7,412.3 344.4,421.6 				"/>
				<polygon id="XMLID_4831_" class="st12" points="360.3,413.6 344.9,421.7 330.2,412.4 330.8,395 346.3,386.8 361,396.1 				"/>
				<polygon id="XMLID_4830_" class="st12" points="329.5,412.5 314.1,420.6 299.3,411.3 300,393.9 315.4,385.8 330.2,395.1 				"/>
			</g>
			<g id="XMLID_4825_">
				<polygon id="XMLID_4828_" class="st12" points="296.3,463.2 280.9,471.3 266.1,462 266.8,444.6 282.2,436.4 297,445.7 				"/>
				<polygon id="XMLID_4827_" class="st12" points="312.9,437.7 297.5,445.8 282.7,436.5 283.4,419.1 298.8,411 313.6,420.3 				"/>
				<polygon id="XMLID_4826_" class="st12" points="282,436.6 266.6,444.8 251.9,435.5 252.5,418.1 268,409.9 282.7,419.2 				"/>
			</g>
			<polygon id="XMLID_4824_" class="st12" points="372.7,491.5 357.2,499.6 342.5,490.3 343.2,472.9 358.6,464.8 373.3,474.1 			"/>
			<polygon id="XMLID_4823_" class="st12" points="298.6,411.4 283.2,419.5 268.4,410.2 269.1,392.8 284.6,384.6 299.3,393.9 			"/>
			<polygon id="XMLID_4822_" class="st12" points="407.4,388.6 392,396.7 377.2,387.4 377.9,370 393.3,361.9 408.1,371.2 			"/>
			<polygon id="XMLID_4821_" class="st12" points="467.9,391.3 452.5,399.4 437.7,390.1 438.4,372.7 453.8,364.6 468.6,373.9 			"/>
			<polygon id="XMLID_4820_" class="st12" points="513,418.2 497.6,426.4 482.8,417.1 483.5,399.6 498.9,391.5 513.7,400.8 			"/>
			<polygon id="XMLID_4819_" class="st12" points="543.9,419.2 528.4,427.4 513.7,418.1 514.4,400.7 529.8,392.5 544.5,401.8 			"/>
			<polygon id="XMLID_4818_" class="st12" points="541,471.9 525.6,480 510.8,470.7 511.5,453.3 526.9,445.2 541.7,454.5 			"/>
			<polygon id="XMLID_4817_" class="st12" points="574.7,420.2 559.3,428.4 544.5,419.1 545.2,401.7 560.7,393.5 575.4,402.8 			"/>
			<polygon id="XMLID_4816_" class="st12" points="588.8,447.5 573.3,455.6 558.6,446.3 559.3,428.9 574.7,420.7 589.4,430 			"/>
		</g>
		<g id="XMLID_5359_" class="st13">
			<g id="XMLID_5357_">
				<path id="XMLID_5027_" class="st14" d="M300.2,395.6c10-8.8,25.6-12.1,56.1,0.3c30.5,12.4,51.1,32,46,43.8
					c-5.1,11.8-69.9,4.7-100.4-7.7C271.4,419.6,290.7,405.2,300.2,395.6z"/>
				<path id="XMLID_5026_" class="st14" d="M334.2,411.3c6.7-5.9,17.2-8.1,37.8,0.2c20.5,8.4,34.4,21.5,31,29.5s-47.1,3.2-67.6-5.2
					C314.8,427.4,327.8,417.8,334.2,411.3z"/>
				<path id="XMLID_4999_" class="st14" d="M534.8,394.4c-10.2-8.5-25.9-11.3-56,1.9s-50.2,33.4-44.8,45.1
					c5.4,11.6,70,2.7,100.1-10.6C564.3,417.5,544.6,403.7,534.8,394.4z"/>
				<path id="XMLID_4998_" class="st14" d="M501.3,411.1c-6.9-5.7-17.4-7.6-37.7,1.3c-20.3,8.9-33.8,22.5-30.1,30.3
					c3.6,7.8,47.1,1.8,67.4-7.1C521.2,426.6,507.9,417.3,501.3,411.1z"/>
			</g>
			<g id="XMLID_5358_">
				<path id="XMLID_4926_" class="st15" d="M376.2,419.2c-0.4-24.7,19.9-61.8,38.1-62.1c18.2-0.3,35.5,36.3,35.9,61
					c0.4,24.7-16.4,28.2-34.6,28.5C397.4,446.9,376.5,444,376.2,419.2z"/>
				<g id="XMLID_4983_">
					<g id="XMLID_4957_">
						<path id="XMLID_4943_" d="M462.6,415.3c-8.8,5.5-15,11.1-13.9,12.3c1.1,1.3,9.1-2.2,17.9-7.7c8.8-5.5,15-11.1,13.9-12.3
							C479.4,406.3,471.4,409.8,462.6,415.3z"/>
						<path id="XMLID_4942_" d="M459,401.8c11,2.3,19.8,5,19.8,6c0,1-8.9-0.1-19.9-2.4c-11-2.3-19.8-5-19.8-6
							C439.2,398.4,448.1,399.5,459,401.8z"/>
						<path id="XMLID_4941_" d="M476.3,409.7c-1.4-1.7-1.5-3.8-0.1-4.6c1.4-0.9,3.7-0.2,5.1,1.5c1.4,1.7,1.5,3.8,0.1,4.6
							C480.1,412.1,477.8,411.4,476.3,409.7z"/>
						<path id="XMLID_4940_" d="M442.1,427.2c2-3.4,6.1-5.2,9.1-3.9c3,1.3,3.9,5.1,1.9,8.6c-2,3.4-6.1,5.2-9.1,3.9
							S440.1,430.7,442.1,427.2z"/>
					</g>
					<g id="XMLID_4958_">
						<path id="XMLID_4962_" d="M464.7,398.4c-8.8,5.5-15,11.1-13.9,12.3c1.1,1.3,9.1-2.2,17.9-7.7s15-11.1,13.9-12.3
							C481.5,389.4,473.5,392.9,464.7,398.4z"/>
						<path id="XMLID_4961_" d="M461.1,384.9c11,2.3,19.8,5,19.8,6c0,1-8.9-0.1-19.9-2.4s-19.8-5-19.8-6
							C441.2,381.5,450.1,382.5,461.1,384.9z"/>
						<path id="XMLID_4960_" d="M478.4,392.8c-1.4-1.7-1.5-3.8-0.1-4.6c1.4-0.9,3.7-0.2,5.1,1.5c1.4,1.7,1.5,3.8,0.1,4.6
							C482.1,395.2,479.8,394.5,478.4,392.8z"/>
						<path id="XMLID_4959_" d="M444.1,410.3c2-3.4,6.1-5.2,9.1-3.9c3,1.3,3.9,5.1,1.9,8.6c-2,3.4-6.1,5.2-9.1,3.9
							C443,417.6,442.1,413.7,444.1,410.3z"/>
					</g>
					<g id="XMLID_4963_">
						<path id="XMLID_4967_" d="M462.7,384.7c-8.8,5.5-15,11.1-13.9,12.3c1.1,1.3,9.1-2.2,17.9-7.7c8.8-5.5,15-11.1,13.9-12.3
							C479.5,375.7,471.5,379.1,462.7,384.7z"/>
						<path id="XMLID_4966_" d="M459.1,371.1c11,2.3,19.8,5,19.8,6c0,1-8.9-0.1-19.9-2.4s-19.8-5-19.8-6
							C439.2,367.7,448.1,368.8,459.1,371.1z"/>
						<path id="XMLID_4965_" d="M476.4,379.1c-1.4-1.7-1.5-3.8-0.1-4.6c1.4-0.9,3.7-0.2,5.1,1.5s1.5,3.8,0.1,4.6
							C480.1,381.4,477.8,380.8,476.4,379.1z"/>
						<path id="XMLID_4964_" d="M442.1,396.5c2-3.4,6.1-5.2,9.1-3.9c3,1.3,3.9,5.1,1.9,8.6c-2,3.4-6.1,5.2-9.1,3.9
							C441,403.8,440.1,400,442.1,396.5z"/>
					</g>
				</g>
				<g id="XMLID_4984_">
					<g id="XMLID_4978_">
						<path id="XMLID_4982_" d="M364.7,416.5c8.9,5.3,15.3,10.6,14.3,11.9s-9.1-1.9-18.1-7.2c-8.9-5.3-15.3-10.6-14.3-11.9
							S355.7,411.2,364.7,416.5z"/>
						<path id="XMLID_4981_" d="M367.9,402.8c-10.9,2.6-19.7,5.6-19.6,6.6c0,1,8.9-0.4,19.8-3s19.7-5.6,19.6-6.6
							C387.6,398.9,378.8,400.2,367.9,402.8z"/>
						<path id="XMLID_4980_" d="M350.8,411.3c1.4-1.7,1.4-3.8,0-4.6c-1.4-0.8-3.7-0.1-5.1,1.6s-1.4,3.8,0,4.6
							C347.1,413.7,349.4,413,350.8,411.3z"/>
						<path id="XMLID_4979_" d="M385.6,427.8c-2.1-3.4-6.2-5-9.2-3.6c-3,1.4-3.7,5.2-1.6,8.6c2.1,3.4,6.2,5,9.2,3.6
							C386.9,435,387.7,431.1,385.6,427.8z"/>
					</g>
					<g id="XMLID_4973_">
						<path id="XMLID_4977_" d="M362.1,399.6c8.9,5.3,15.3,10.6,14.3,11.9s-9.1-1.9-18.1-7.2s-15.3-10.6-14.3-11.9
							C345.1,391.1,353.2,394.3,362.1,399.6z"/>
						<path id="XMLID_4976_" d="M365.4,386c-10.9,2.6-19.7,5.6-19.6,6.6c0,1,8.9-0.4,19.8-3c10.9-2.6,19.7-5.6,19.6-6.6
							C385.1,382,376.2,383.3,365.4,386z"/>
						<path id="XMLID_4975_" d="M348.3,394.4c1.4-1.7,1.4-3.8,0-4.6c-1.4-0.8-3.7-0.1-5.1,1.6c-1.4,1.7-1.4,3.8,0,4.6
							C344.6,396.9,346.9,396.1,348.3,394.4z"/>
						<path id="XMLID_4974_" d="M383,410.9c-2.1-3.4-6.2-5-9.2-3.6c-3,1.4-3.7,5.2-1.6,8.6c2.1,3.4,6.2,5,9.2,3.6
							C384.4,418.1,385.1,414.3,383,410.9z"/>
					</g>
					<g id="XMLID_4968_">
						<path id="XMLID_4972_" d="M363.7,385.8c8.9,5.3,15.3,10.6,14.3,11.9s-9.1-1.9-18.1-7.2c-8.9-5.3-15.3-10.6-14.3-11.9
							S354.8,380.5,363.7,385.8z"/>
						<path id="XMLID_4971_" d="M367,372.2c-10.9,2.6-19.7,5.6-19.6,6.6c0,1,8.9-0.4,19.8-3s19.7-5.6,19.6-6.6
							C386.7,368.2,377.8,369.5,367,372.2z"/>
						<path id="XMLID_4970_" d="M349.9,380.6c1.4-1.7,1.4-3.8,0-4.6c-1.4-0.8-3.7-0.1-5.1,1.6s-1.4,3.8,0,4.6
							C346.2,383.1,348.5,382.3,349.9,380.6z"/>
						<path id="XMLID_4969_" d="M384.7,397.1c-2.1-3.4-6.2-5-9.2-3.6c-3,1.4-3.7,5.2-1.6,8.6c2.1,3.4,6.2,5,9.2,3.6
							C386,404.3,386.7,400.5,384.7,397.1z"/>
					</g>
				</g>
				<g id="XMLID_4769_">
					<polygon id="XMLID_4924_" class="st8" points="428.5,488.7 431.1,488.7 431.5,517.9 					"/>
					<polygon id="XMLID_4925_" class="st8" points="408.3,489.4 405.7,489.5 406.1,518.7 					"/>
					<g id="XMLID_5346_">
						<path id="XMLID_5347_" class="st16" d="M383.3,475.7c-0.2-15.4,19.6-40.9,32.7-41.1c13.1-0.2,32.6,24.7,32.8,40.2
							c0.2,15.4-18.9,15.6-32,15.8C403.7,490.7,383.5,491.1,383.3,475.7z"/>
						
							<ellipse id="XMLID_5348_" transform="matrix(-0.9652 0.2615 -0.2615 -0.9652 977.2759 800.9365)" class="st17" cx="435.3" cy="465.5" rx="12.2" ry="15.3"/>
						
							<ellipse id="XMLID_5349_" transform="matrix(0.9723 0.2338 -0.2338 0.9723 119.9237 -79.5646)" class="st17" cx="395.6" cy="466.1" rx="12.2" ry="15.3"/>
					</g>
				</g>
				<polygon id="XMLID_5350_" class="st7" points="384.9,383 442.4,383 445.7,390.4 381.8,390.3 				"/>
				<polygon id="XMLID_5351_" class="st7" points="379.5,396.7 448.6,398 450.6,403.2 450.2,404.7 376.2,403.6 				"/>
				<polygon id="XMLID_5352_" class="st7" points="376.4,411.5 451,413.1 450.2,421.7 376.2,419.2 				"/>
			</g>
		</g>
		<path id="XMLID_5353_" class="st7" d="M432.3,453.5c1.4-1.8,4.8-1.4,7.6,0.8c2.7,2.2,4.2,8.6,2.3,7.2
			C437.5,458,430.8,455.3,432.3,453.5z"/>
		<path id="XMLID_5354_" class="st7" d="M394.9,454.5c1.4-1.8,4.8-1.4,7.6,0.8c2.7,2.2,4.2,8.6,2.3,7.2
			C400.1,459,393.5,456.3,394.9,454.5z"/>
		<path id="XMLID_x5F_434_x5F_" class="st18" d="M228.2,425.5c0,0,71.4,117,192.2,106.7c120.8-10.3,155.2-44.9,192-104.5"/>
		<text id="XMLID_5356_">		<textPath  xlink:href="#XMLID_x5F_434_x5F_" startOffset="6.714%">
<tspan  class="st7" style="font-family:'DINCondensed-Bold'; font-size:16px; letter-spacing:366;">          UNSOLDERING SINCE 2003</tspan>		</textPath>
</text>
		<g id="XMLID_4770_">
			<path id="XMLID_4814_" class="st5" d="M357.1,202.6L210.3,177c-9.6,14.8-17.4,30.6-23.3,47.3c-1.2,3.3-2.3,6.6-3.3,10
				c-0.8,2.5-1.5,5.1-2.2,7.7c-4.7,17.9-7.1,36.6-7.1,55.8c0,43.9,12.9,84.9,35.2,119.8l148.9-31.1c41.7-8.7,85.1-8.7,126.8,0
				l144.4,30.1c22-34.8,34.7-75.4,34.7-118.9c0-44.2-13.1-85.5-35.7-120.6l-141.9,25.2C444,210,399.9,210,357.1,202.6z"/>
			<path id="XMLID_4771_" class="st7" d="M248,196.4c0.5,0,1.1,0.6,1.9,1.9v30.4c0,0.5-0.6,1.1-1.9,1.8h-36.7v41.3h31.3
				c0.5,0,1.1,0.6,1.8,1.8v30c0,0.5-0.6,1.1-1.8,1.8h-31.3v41.3H248c0.5,0,1.1,0.6,1.9,1.8v30.5c0,0.4-0.6,1-1.9,1.8h-68
				c-2.1,0-3.2-1.4-3.2-4v-176c0-2.8,1.1-4.1,3.2-4.1H248z M189,213.6l-0.9-1.4c0-0.6,0.9-0.9,2.8-0.9v-0.4h-3.3
				c-0.6,0.1-0.9,0.4-0.9,0.9c0,0.5,0.6,1.1,1.9,1.8H189z M186.8,226.3v0.9h0.5v-0.9H186.8z M186.8,248.5c0.6,0.8,0.9,1.6,0.9,2.3
				h0.5v-2.3c0-0.5-0.5-0.9-1.4-1.3V248.5z M186.8,259.8v1.4h0.5v-1.4H186.8z M186.8,338.8v3.6h0.5c0-1.9,0.1-3,0.4-3.3L186.8,338.8
				z M186.8,342.9v0.9h0.5v-0.9H186.8z M186.8,344.7v1.3c0.6,0,0.9-0.3,0.9-0.9L186.8,344.7z M186.8,352.4v2.3
				c0.8,0,2.2,0.3,4.1,0.9v2.8c-1.3,0-1.9,0.8-1.9,2.3c1.3,0.4,1.9,0.8,1.9,1.3c-0.8,1.5-2.2,2.3-4.1,2.3v6.4h0.9
				c0.6,0,1.8-0.5,3.6-1.4v-0.5c-2.7,0-4-0.3-4-0.9c1.2,0,2-1.1,2.3-3.2l2.7,0.5c1.9-1.3,2.8-2,2.8-2.3l1.4-2.3
				c-3.6-2.8-5.4-4.9-5.4-6.4v-0.4h-2.8c-0.6,0-0.9-0.5-0.9-1.4H186.8z M187.6,273.9v1.4h0.5v-1.4H187.6z M188.1,237.7v0.5
				c0.3,0.7,0.5,1.1,0.5,1.3l0.9-0.4c-0.3-0.7-0.5-1.1-0.5-1.4H188.1z M189.5,267.6c0,0.7-0.5,1.6-1.4,2.7c0,0.4,0.5,0.9,1.4,1.4
				h0.4c0-0.9,0.3-1.6,1-2.3v-1.8H189.5z M189.9,351v-1.4c-0.3,0-0.8,0.5-1.3,1.4H189.9z M189.9,273.1h1c0-0.6-0.3-0.9-1-0.9V273.1z
				 M190.9,334.3l-0.5,0.9l1.8,0.9c0-0.7,0.2-1.3,0.5-1.8H190.9z M191.3,257.6v0.5l0.9,1.4v0.9h-1.3c0.1,0.6,0.4,0.9,0.9,0.9h0.4
				l0.5-2.3c-0.3-0.7-0.5-1.1-0.5-1.4H191.3z M190.9,358.3h0.4c0.6,0.1,0.9,0.4,0.9,0.9l-0.9,0.4l-0.4-0.9V358.3z M192.2,361v1.4
				c-0.6,0-0.9-0.3-0.9-0.9L192.2,361z M193.2,252.2c0,0.6-0.5,0.9-1.4,0.9v0.5c0.1,0.6,0.4,0.9,0.9,0.9l1.4-1.8L193.2,252.2z
				 M192.2,276.2v0.9h0.5v-0.9H192.2z M192.2,341.1v1.4h1c-0.3-0.8-0.5-1.3-0.5-1.4H192.2z M192.7,250.4c0.3,0.7,0.5,1.1,0.5,1.4
				h0.4v-1.4H192.7z M193.2,321.6l0.4,0.9v0.9l-0.9,1.4v0.9c0.9-0.2,1.4-1.4,1.4-3.5v-1L193.2,321.6z M193.6,353.3
				c0.1,0.6,0.4,0.9,0.9,0.9h1c0-0.6-0.3-0.9-1-0.9H193.6z M196.7,366c0,0.7-0.6,1.3-1.8,1.8c0,0.4-0.5,0.9-1.4,1.4
				c0.3,0.7,0.5,1.1,0.5,1.4h0.9l1.4-0.9c0.5,0.3,1,0.4,1.4,0.4c0-0.3,0.1-0.4,0.4-0.4l-0.4-2.3V366H196.7z M195.8,347h-0.4v0.4
				c0.9,0,1.3,0.3,1.3,0.9v1c0,0.9-0.9,1.3-2.7,1.3v0.5c0.5,0,1.1,0.3,1.8,0.9h0.5c0.9,0,1.6-1.8,2.3-5.4c-0.8,0.6-1.4,0.9-1.9,0.9
				L195.8,347z M194.1,347.4v0.5h0.9v-0.5H194.1z M197.2,254.4c0,1.5-0.8,2.3-2.3,2.3v0.9l0.5,4.5h0.4c0-0.9,0.5-1.3,1.4-1.3h1.4
				c0-0.9,0.3-1.4,0.9-1.4c-0.3-0.7-0.5-1.1-0.5-1.4l-0.9,0.5c-0.6,0-0.9-0.3-0.9-1c0.1-0.6,0.4-0.9,0.9-0.9l0.9,0.5v-0.5
				c-0.9-0.9-1.3-1.7-1.3-2.3H197.2z M194.9,331.1v0.4c0.1,0.6,0.4,0.9,0.9,0.9h0.5V332c0-0.6-0.3-0.9-0.9-0.9H194.9z M194.9,366
				h0.9c0-0.6-0.3-0.9-0.9-0.9V366z M195.8,235.9v0.9c0.6,0,0.9-0.3,0.9-0.9H195.8z M196.7,207.7v1.4h0.5v-1.4H196.7z M198.1,231.7
				V230c-0.4,0-0.9,0.6-1.4,1.8H198.1z M197.7,245.8c0,0.6-0.3,0.9-1,0.9v0.5h1l0.4-1v-0.4H197.7z M196.7,355.6v0.9
				c0.5,0,1.6,0.9,3.3,2.8h0.4v-0.5c-0.7-0.9-1.1-2-1.4-3.2l-0.9,0.5h-0.4L196.7,355.6z M197.2,214.1h1.4c0.5,0,0.9-0.6,1.4-1.9
				h-0.5c-1.1,0.9-1.8,1.4-2.3,1.4V214.1z M197.2,234.5v1.4h0.5v-1.4H197.2z M198.1,249.5v0.4h0.9v-0.4H198.1z M200.4,272.2
				c0,0.4-0.5,1.2-1.4,2.3c-0.3,0.5-0.4,1-0.4,1.3c0.3,0.5,0.4,1.1,0.4,1.9c-0.6,0.1-0.9,0.4-0.9,0.9v0.5c0.1,0.6,0.4,0.9,0.9,0.9
				l2.3-7.7H200.4z M198.6,210.5v0.9h0.4v-0.9H198.6z M199,216.4v0.4h1.4v-0.4H199z M199,369.2c2.1,0.9,4.3,1.4,6.8,1.4h0.5v-0.9
				c-1,0-1.8-0.2-2.3-0.5l-2.8,0.5c0-0.5-0.6-0.9-1.8-1.4L199,369.2z M200,239.4l-0.5,1v0.9h0.9c0.6,0,0.9-0.3,0.9-0.9L200,239.4z
				 M199.5,248.1v0.9h0.5c0.6,0,0.9-0.3,0.9-0.9H199.5z M199.5,282.1v1.8l0.9-0.4c-0.3-0.6-0.4-1.1-0.4-1.4H199.5z M200,237.7
				c0.1,0.6,0.4,0.9,0.9,0.9h0.4v-0.9H200z M200.4,241.7v1h0.5v-1H200.4z M201.3,266.3v-1.4c-0.6,0.1-0.9,0.4-0.9,0.9L201.3,266.3z
				 M200.9,356.1c0,0.6,0.5,0.9,1.4,0.9h0.9v-0.5L200.9,356.1z M200.9,363.8v0.9h0.4v-0.9H200.9z M201.3,362.9l1.9-0.5
				c2.1,0,3.2,1.1,3.2,3.2h0.5v-0.9c-0.7-0.9-1-1.7-1-2.3c0.8-0.3,1.3-0.5,1.4-0.5v-1.3c-0.7,0-1.3-0.2-1.8-0.5
				c0,1.2-1.4,1.8-4.1,1.8V362.9z M201.3,365.1v1.3h0.5v-1.3H201.3z M204.9,210.5v0.5h0.9v-0.5H204.9z M208.1,214.5
				c-0.6-0.7-0.9-1.5-0.9-2.3c-0.6,0.1-0.9,0.4-0.9,1c0.9,1.5,1.5,2.3,1.8,2.3V214.5z M207.7,210c1.2,0,1.8,0.5,1.8,1.4v0.5h0.9
				c0.4,0,0.9-0.5,1.4-1.4c-0.9,0-1.8-0.5-2.7-1.4c-0.8,0.3-1.3,0.5-1.4,0.5V210z M207.7,359.6v1h0.9v-1H207.7z M208.1,363.3v2.3h1
				c0.6,0,0.9-0.3,0.9-0.9c-0.9,0-1.4-0.5-1.4-1.4H208.1z M208.6,215.9v0.9h0.5v-0.9H208.6z M210.3,370.6h0.5
				c0.7-0.3,1.1-0.5,1.4-0.5v-0.4h-0.5c-0.5,0.3-1,0.4-1.4,0.4V370.6z M211.3,215.5v0.9h0.9v-0.9H211.3z M212.6,209.1v0.9h0.5v-0.9
				H212.6z M214.9,370.6c0-0.6-0.3-1.8-0.9-3.6c-0.7,0.3-1.1,0.5-1.4,0.5c0.9,1.5,1.4,2.6,1.4,3.2H214.9z M213.1,218.1v0.5
				c0.1,0.6,0.4,0.9,0.9,0.9v-1.4H213.1z M215.8,358.7v0.9h0.4v-0.9H215.8z M216.2,356.5v1.9h0.5c0-0.4,0.1-0.9,0.4-1.4L216.2,356.5
				z M217.1,361.5v0.4h1v-0.4H217.1z M218.5,208.7v1.3h0.5v-1.3H218.5z M219.4,290.3v0.9c0.7,0,1-0.3,1-0.9H219.4z M221.3,206.4v0.9
				c0.7-0.3,1.1-0.5,1.4-0.5v-0.4H221.3z M223.9,288.4v0.9h1.9v-0.4L223.9,288.4z M224.4,220.4h0.9V219c-0.6,0.1-0.9,0.4-0.9,1
				V220.4z M224.4,367.4v0.4c0.3,0,0.7,0.2,1.4,0.5h0.4v-0.5c-0.3,0-0.8-0.1-1.3-0.4H224.4z M232.1,363.3v-0.9
				c-0.6,0.1-0.9,0.4-0.9,0.9H232.1z M233,283v0.9h0.5c0.5-0.3,1-0.4,1.4-0.4V283H233z M235.3,360.1v0.5h1.4v-0.5H235.3z
				 M235.3,361.9v0.5c0.3,0.5,0.5,1.1,0.5,1.8h0.5v-0.9c-0.3-0.7-0.5-1.1-0.5-1.4H235.3z M235.8,369.2v0.9h0.9v-0.9H235.8z
				 M236.6,365.5v0.9h0.5v-0.9H236.6z"/>
			<path id="XMLID_4992_" class="st7" d="M304.4,211.4c0.4,0,1,0.5,1.6,1.7v16.6c0,0.8,0.2,1.2,0.4,1.2l-0.4,2v125
				c0,0.6,0.2,1.2,0.4,1.7c-0.3,0.4-0.4,1-0.4,1.6v13.9c0,0.4-0.5,0.9-1.6,1.6h-26.1c-1.9,0-2.8-1.2-2.8-3.6v-158
				c0-2.5,1-3.7,2.8-3.7H304.4z M284.8,238.3c0,0.6-0.2,1.2-0.4,1.6h0.8v-1.6H284.8z M284.3,252.6l0.8,1.2v0.4l-0.8,1.2v0.4
				c1-0.8,1.6-1.2,2-1.2c-0.3-1.7-0.9-2.5-2-2.5V252.6z M284.3,270.9v0.8h0.4v-0.8H284.3z M285.1,241.6c0,0.3-0.1,0.7-0.4,1.2l1.6,2
				h0.4c0.5,0,0.8-0.3,0.8-0.9c-1.1-1.1-1.6-1.9-1.6-2.4H285.1z M284.8,259.9c0.3,0.4,0.4,0.9,0.4,1.2h0.4v-0.9
				c-0.3,0-0.4-0.1-0.4-0.4c0.7-0.3,1.2-0.4,1.2-0.4c0.4,0.3,1.1,0.4,2,0.4l0.8-1.2v-0.8h-0.4c-2.5,1-3.7,1.6-3.7,2H284.8z
				 M285.6,267.6c0,0.7-0.3,1.4-0.8,2h0.8c0.4,0,0.8-0.4,1.2-1.2L285.6,267.6z M286,222.1v0.4h0.8v-0.4H286z M286.4,231.4
				c0,1-0.1,1.6-0.4,2h0.8c0-1,0.1-1.6,0.4-2H286.4z M286,257.1h0.4l2-1.7c0.8,1.3,1.4,2,1.7,2h1.2c0-0.1,0.2-0.5,0.4-1.2
				c-0.4,0-1.3-0.7-2.8-2c-0.4,0-1,0.5-1.7,1.7c-0.4,0.3-0.9,0.4-1.2,0.4V257.1z M286,332v0.4c0.4,0,1,0.3,1.6,0.8l0.4-0.8
				c-0.6,0-1.2-0.2-1.7-0.4H286z M286.8,271.4c0.1,0.5,0.4,0.8,0.8,0.8v-0.8H286.8z M287.2,338.6c0,0.3-0.1,0.7-0.4,1.2h0.8v-1.2
				H287.2z M287.2,313.2v0.9l0.9,0.4h0.4v-0.4c-0.5,0-0.8-0.3-0.8-0.9H287.2z M288.1,239.9c0,1.3-0.2,2-0.4,2
				c0.3,0.4,0.4,1.1,0.4,1.7l2-0.4v1.2c-0.9,0-1.4,1.9-1.7,5.7c-0.5,0.1-0.8,0.4-0.8,0.9c0.5,0,0.8,1,0.8,2.8c0.5,0,0.8-0.3,0.8-0.8
				c-0.3-0.5-0.4-1-0.4-1.2c0.6-0.3,1-0.4,1.2-0.4l-0.4-0.8v-1.2c0.1-0.5,0.4-0.8,0.8-0.8c0.1,0.5,0.4,0.8,0.8,0.8h0.4l-0.4-2
				c0-0.6,0.2-1.2,0.4-1.6c-0.4-1.6-1.5-2.9-3.3-4.1v-1.7H288.1z M287.6,326.3c0.1,0.5,0.4,0.8,0.8,0.8v-0.4c0-0.5-0.3-0.8-0.8-0.8
				V326.3z M288.4,232.7v0.4h0.8v-0.4H288.4z M288.4,236.8h0.8c0-0.6-0.3-0.9-0.8-0.9V236.8z M288.9,275v0.4h0.8V275H288.9z
				 M289.2,247.3h0.9v0.4h-0.9V247.3z M289.2,263.2c0.6,0.8,0.9,1.5,0.9,2h0.4l-0.4-2.5L289.2,263.2z M290.9,237.9
				c-0.8,1.7-1.2,2.7-1.2,2.9h0.4l1.2-0.9c0.1,0.6,0.4,0.9,0.9,0.9l-0.4-2.9H290.9z M291.7,322.6c-1.3,0.4-2,0.8-2,1.2
				c0.4,0,1,0.3,1.6,0.8L291.7,322.6z M290.9,233.8c0.5,0,0.8-0.3,0.8-0.8v-0.8c-0.5,0.1-0.8,0.4-0.8,0.8V233.8z M290.9,329.5v2.5
				c0.1,0.5,0.4,0.8,0.8,0.8l0.8-2c-0.8,0-1.2-0.4-1.2-1.2H290.9z M291.3,326.3c0.1,0.5,0.4,0.8,0.9,0.8v-0.8H291.3z M291.7,339.7
				v0.9h0.4v-0.9H291.7z M292.1,277v0.4h0.8V277H292.1z M292.1,279.5h1.2v-0.9c-0.6,0.3-1,0.4-1.2,0.4V279.5z M292.5,242.9v0.4
				c0.8,1,1.2,1.6,1.2,2h0.4c0-0.8,0.3-1.2,0.8-1.2c-0.3-1.3-1-2-2-2L292.5,242.9z M293.3,274.2c0,0.4-0.3,1-0.8,1.6h2
				c-0.5-0.6-0.8-1.2-0.8-1.6H293.3z M292.5,299.9v0.4h1.7v-0.4H292.5z M292.9,221.3v0.8h0.8v-0.8H292.9z M292.9,228.2v0.4h0.8v-0.4
				H292.9z M294.2,253.8c0.6,1.9,1.3,2.8,2,2.8v1.2h-0.9l-0.8-0.4c0,0.5-0.3,0.8-0.8,0.8l-0.8-0.4v2.4c0.1,0,0.5,0.2,1.2,0.4
				c0-0.8,0.3-1.2,0.8-1.2h1.2c0-0.5,0.4-0.8,1.2-0.8v-2c-1.3,0-2-0.4-2-1.2c0-0.5,0.5-0.8,1.7-0.8v-0.4L294.2,253.8z M292.9,255.1
				v0.8h0.4v-0.8H292.9z M293.7,268.1v0.8h-0.8v0.8c0.6-0.5,1.2-0.8,1.6-0.8c0.6,0.3,1,0.4,1.2,0.4v-1.7c-1.1,0-1.6-0.4-1.6-1.2
				c-0.7,0.3-1.2,0.4-1.2,0.4L293.7,268.1z M294.2,281.9c0,0.5-0.4,0.8-1.2,0.8c0.1,0.6,0.4,0.9,0.8,0.9h0.4c0-0.4,0.1-0.8,0.4-1.2
				v-0.4H294.2z M293.3,262.8v0.4h0.9v-0.4H293.3z M294.5,278.6c1.2-0.4,2-1.2,2.5-2h-0.4c-1.9,1.1-2.8,1.8-2.8,2H294.5z
				 M296.2,329.2c0.5,1.3,0.8,2.2,0.8,2.8h0.4v-2c0-0.8-1.2-1.3-3.6-1.6c0.3,0.6,0.4,1,0.4,1.2L296.2,329.2z M294.2,365v0.8h0.4V365
				H294.2z M294.5,261.2v0.4c0,0.4,0.8,0.9,2.5,1.7h0.4V262c-0.4,0-0.9-0.3-1.6-0.8H294.5z M294.5,264v1.2h0.4V264H294.5z
				 M294.5,338.9v0.4h0.8v-0.4H294.5z M295,231.4v0.4h1.2v-0.4H295z M295,271.7c0.3,0.4,0.4,0.9,0.4,1.2h0.9c0-0.6,0.1-1.2,0.4-1.6
				h-0.8L295,271.7z M295,286.8v0.4h0.8v-0.4H295z M295.3,349.5h0.9c0-0.8,0.4-1.2,1.2-1.2v-0.4c-0.4,0-0.9-0.3-1.6-0.8
				c0,0.8-0.3,1.2-0.8,1.2C295.2,348.7,295.3,349.2,295.3,349.5z M295.3,249.3c0.6,0.6,0.9,1.5,0.9,2.8h0.4c0-0.4,0.3-1,0.8-1.6
				v-1.2H295.3z M295.3,281.9v0.8h0.4v-0.8H295.3z M296.6,243.2c0,0.4-0.1,0.8-0.4,1.2l0.8,0.4l0.4-0.9v-0.8H296.6z M296.6,226.1
				v1.2h0.4v-1.2H296.6z M296.6,320.2h0.8c0-0.6-0.3-0.9-0.8-0.9V320.2z M297,273.4v1.2h0.4v-1.2H297z"/>
			<path id="XMLID_5052_" class="st7" d="M360.3,213.6c15.7,0,25.7,3.9,30.1,11.6c3.9,4.6,5.8,12.7,5.8,24.3v22.4
				c0,13.7-5,22.8-15.1,27.4v0.3c12.2,35.6,19.9,55.3,22.8,65.4c-0.4,1.3,0.6,2.5-0.8,2.5l-29,2.7c-1.2,0-3.8-7.7-7.7-23.1
				c-0.3-0.1-2.5-8.1-6.9-24.3h-0.4v44.8c0,1.8-0.9,2.7-2.7,2.7h-23.6c-1.8,0-2.7-0.9-2.7-2.7V216.4c0-1.8,0.9-2.8,2.7-2.8H360.3z
				 M341.8,227.1c-0.4-0.3-0.9-0.3-1.5-0.3c0,1-0.7,1.5-1.9,1.5v1.6c0.4,0,1.3-0.8,2.7-2.3h0.3l1.2,0.8l0.8-0.3
				c-0.3-0.4-0.3-0.9-0.3-1.6L341.8,227.1z M338.7,267.3v0.3h0.8v-0.3H338.7z M339.1,226.8h0.8c0-0.5-0.3-0.8-0.8-0.8V226.8z
				 M339.4,231.4v0.8c0.9,0,2.1,0.3,3.5,0.8v-0.3l-0.8-1.2l-0.8,0.4h-1.1L339.4,231.4z M339.4,343.3h1.6v-0.4
				c-0.3,0-0.8-0.1-1.2-0.3L339.4,343.3z M341,305.1c0.5,0,0.8-0.3,0.8-0.8c0-0.5-0.3-0.8-0.8-0.8c0,0.4-0.3,0.9-0.8,1.6H341z
				 M342.5,314.7h0.8c0-0.6-0.3-0.8-0.8-0.8V314.7z M343,304.7v0.4c0.3,0.4,0.3,0.8,0.3,1.1h0.4v-1.1L343,304.7z M343.3,360.2
				c0.5-0.3,0.9-0.3,1.2-0.3v-0.8c-0.4,0.3-0.8,0.3-1.2,0.3V360.2z M344.1,223.3v1.2h1.1v-1.2H344.1z M344.1,292.4v0.3h0.8v-0.3
				H344.1z M344.1,351.7v0.4c0,0.4,0.3,0.8,1.1,1.2h0.8c0.5,0,0.8-0.3,0.8-0.8c-0.9,0-1.8-0.3-2.3-0.8H344.1z M344.5,355.6
				c0.1,0.5,0.3,0.8,0.8,0.8h0.8v-0.8H344.5z M346.1,233.3v-0.8h-0.4c-0.5,0.1-0.8,0.3-0.8,0.8H346.1z M344.9,238.4h0.3
				c0.3,0,0.8-0.8,1.6-2.3v-0.8c-0.8,1-1.3,1.5-1.9,1.5V238.4z M349.1,222.2l0.4,0.8c-0.9,1.5-1.5,2.3-1.9,2.3l-2.3-0.3v0.3
				c0.5,0,1.5,0.7,3.1,1.9h0.8l-0.3-1.9c1.3-0.5,2.3-0.8,3.1-0.8v0.8c0.5,0,0.8-0.3,0.8-0.8h-0.8v-1.5l0.3-0.8H351v1.1
				c-0.5,0-0.8-0.3-0.8-1.1H349.1z M345.2,260.8v0.3h0.8v-0.3H345.2z M346.1,349.5v-0.8c-0.6,0.1-0.8,0.3-0.8,0.8H346.1z
				 M345.6,294.3v0.8h0.4v-0.8H345.6z M346.1,228v0.3c0.2,0,0.5,0.2,1.1,0.4V228H346.1z M346.4,230.7v0.8l0.8,1.2v0.3l-0.8,1.2
				l0.8,0.4l1.2-1.9c-0.8-0.9-1.2-1.5-1.2-1.9H346.4z M346.8,239.5l0.3,2.3c0.6,0,0.8-0.3,0.8-0.8c-0.6,0-0.8-0.3-0.8-0.8l0.4-0.8
				H346.8z M347.1,278.1v0.3h1.6v-0.3H347.1z M349.5,339.4V339c0-0.4-0.4-0.8-1.2-1.1c0,0.6-0.1,1.1-0.3,1.5H349.5z M348,354.8v0.4
				h1.5v-0.8c-0.3,0-0.8-0.1-1.2-0.3L348,354.8z M352.2,226.8c0,1-1,1.5-3.1,1.5v1.2l1.6-1.2h1.9c0.3-0.4,0.3-0.8,0.3-1.2
				L352.2,226.8z M349.1,230.2v0.8c0.8,0,1.2,0.4,1.2,1.2c0.3,0,1-0.7,1.9-1.9H349.1z M350.2,359.9c0.5,0,0.8-0.3,0.8-0.8v-0.8
				c-0.3,0-0.8-0.3-1.5-0.8c0,0.3-0.2,0.6-0.4,1.2C349.8,358.7,350.2,359.1,350.2,359.9z M349.5,237.2v0.8h0.4v-0.8H349.5z
				 M349.5,240.6v0.8c0.5,0,0.8-0.3,0.8-0.8H349.5z M349.5,243.4v0.3h1.2v-0.3H349.5z M349.5,344.4v0.8h1.2c0-0.5-0.3-0.8-0.8-0.8
				H349.5z M350.2,349.8v0.4h0.8v-0.4H350.2z M350.2,355.6v0.4h0.8v-0.4H350.2z M353.8,226.4h0.8V226c0-0.6-0.3-0.8-0.8-0.8V226.4z
				 M356,223.7v-0.8h-0.8c-0.5,0.1-0.8,0.3-0.8,0.8H356z M354.9,231l2.8-0.3l0.3,0.8l-1.5,1.5c0.8,0,1.2,0.4,1.2,1.2h1.1
				c0-1,0.2-1.5,0.4-1.5c-0.9-2.6-1.7-3.9-2.3-3.9c0,1-0.7,1.7-1.9,1.9V231z M355.3,226.8v1.2h0.4v-1.2H355.3z M357.2,240.6v39h2.7
				c6.2,0,9.3-2.9,9.3-8.9v-21.2c0-6-2.1-8.9-6.2-8.9H357.2z M357.2,307.8v0.8h0.4v-0.8H357.2z M358.4,226.4
				c0.3,0.4,0.3,0.8,0.3,1.2c0.6,0,0.8-0.3,0.8-0.8l-0.8-0.4H358.4z M358.7,222.2c0.6,0.6,0.8,1.3,0.8,2.3h0.3
				c0-0.8,0.4-1.2,1.2-1.2v-0.3c0-0.5-0.3-0.8-0.8-0.8H358.7z M360.3,226.8c0.3,0.4,0.3,1,0.3,1.9h0.8v-1.9l0.8-1.2v-0.4
				L360.3,226.8z M360.3,230.2v1.2c0.5,0,0.8-0.3,0.8-0.8v-0.4H360.3z M362.6,232.6h0.4c0-0.8,0.5-1.2,1.5-1.2v-0.8
				c-1.3,0.3-1.9,0.8-1.9,1.5V232.6z M364.5,233.3v0.4h1.2v-0.4H364.5z M365.3,222.5v0.4l1.9,0.3v-0.8H365.3z M365.7,227.1v0.4h1.6
				v-0.4H365.7z M368,300.1v1.2l1.2,0.8v-0.4c-0.6-0.6-0.8-1.1-0.8-1.5H368z M368,312.4v1.2h0.3v-1.2H368z M369.5,225.2
				c0.1,0.6,0.3,0.8,0.8,0.8l0.4-0.8H369.5z M372.6,336.3h1.2c0.5,0,0.8-0.3,0.8-0.8s-0.3-0.8-0.8-0.8L372.6,336.3z M373.4,237.2
				v0.8h0.4v-0.8H373.4z M373.4,320.9v0.4c0.3,0.6,0.4,0.9,0.4,1.2h0.3v-1.6H373.4z M373.8,333.2h0.8c0-0.5-0.3-0.8-0.8-0.8V333.2z
				 M378.4,335.5c-0.3,1.6-0.6,2.3-1.2,2.3c-0.3-0.5-0.3-0.9-0.3-1.2h-0.8c0,1-0.3,1.5-1.1,1.5c0.3,1.1,0.6,1.9,1.1,2.7
				c0,0.6-0.3,0.8-0.8,0.8c0.3,0.6,0.4,0.9,0.4,1.1v1.2c0.5,0,0.8,0.7,0.8,1.9h0.4V344l-0.4-1.5l1.2-1.2l-0.4-0.8v-0.8
				c0.6,0,1.4-0.4,2.7-1.2v-0.4h-1.1v-2.7H378.4z M376.5,329.3c0,0.3-0.2,0.6-0.4,1.2c0.5-0.3,0.9-0.3,1.2-0.3v-0.8H376.5z
				 M377.2,346.4c0,1.5-0.4,2.3-1.2,2.3v0.8h0.8c0.6-0.6,1.2-0.8,1.9-0.8v-0.3c-0.6-0.6-0.8-1.3-0.8-1.9H377.2z M376.5,228.3v1.2
				h0.4v-1.2H376.5z M376.9,332.1v0.3h0.8v-0.3H376.9z M379.9,344.8l-0.3,1.9c0.8,0,1.2,0.3,1.2,0.8v1.1c0,0.6-0.3,0.8-0.8,0.8h-0.3
				l-0.8-0.4c0,1.3-0.7,1.9-1.9,1.9v1.2h1.1c0-0.8,0.3-1.2,0.8-1.2l1.9,0.8h0.3v-0.3h-0.8V351c0-0.5,0.4-0.8,1.2-0.8l-0.4-0.8V349
				l0.4-1.9c-0.5,0-0.8-0.3-0.8-0.8c0-0.3,0.1-0.4,0.3-0.4c-0.3-0.4-0.3-0.8-0.3-1.2H379.9z M378.4,353.6v0.8h0.4v-0.8H378.4z
				 M379.9,352.5c0.3,0.4,0.4,1.3,0.4,2.3h0.4v-2.7L379.9,352.5z M380.3,266.1v0.4h0.8v-0.4H380.3z M381.5,256.9v0.3h1.5v-0.3H381.5
				z M381.5,340.6c0.1,0.6,0.8,1.3,2.3,2.3h0.4v-1.5c-0.6,0-1.3-0.3-1.9-0.8H381.5z M382.7,349.5c0,0.2-0.2,0.5-0.4,1.1h0.4
				c0.5,0,0.8-0.3,0.8-0.8L382.7,349.5z M382.3,352.9v1.2c0.5,0,0.8-0.3,0.8-0.8v-0.4H382.3z M382.7,247.3v0.3h1.1v-0.3H382.7z
				 M384.2,337.5l-0.4,1.9l1.2,0.8l-0.3-2.7H384.2z M384.2,349.5v0.8h0.4v-0.8H384.2z M385.7,344.8l-1.1,1.6v0.3h1.1
				c0-0.8,0.2-1.5,0.4-1.9H385.7z M384.6,351.4v1.1h0.8c-0.3-0.6-0.4-0.9-0.4-1.1H384.6z M385,356.7c0,0.3-0.1,0.8-0.3,1.2h0.8v-1.2
				H385z M385,353.6c0.1,0.5,0.3,0.8,0.8,0.8v-0.8H385z M386.1,348.3c0,0.9-0.3,1.7-0.8,2.3l2.3,1.6v-0.8l-1.1-1.6l0.8-1.5H386.1z
				 M385.7,359.9v0.8h0.8v-0.8H385.7z M386.1,267.6v0.8h0.4v-0.8H386.1z M386.9,353.6v2.3h0.8c0-1.1,0.2-1.9,0.4-2.3H386.9z
				 M388.1,356.3l-0.4,1.9c0.7-0.5,1.2-0.8,1.6-0.8c-0.3-0.6-0.4-0.9-0.4-1.2H388.1z M391.2,359.9c0,0.6-0.3,1.3-0.8,1.9h0.3
				c1.1-0.3,1.6-0.5,1.6-0.8c-0.3-0.7-0.4-1.1-0.4-1.2H391.2z"/>
			<path id="XMLID_5135_" class="st7" d="M447.4,220.6c14.6,0,23.8,3.5,27.7,10.3c3.8,5.2,5.7,12.3,5.7,21.3v22.4
				c0,7.7-2.2,13.7-6.8,18c4.6,4.3,6.8,10.3,6.8,18.1v22.4c0,15.6-5.7,25.5-17,29.8c-3.3,1.2-9.9,1.8-19.9,1.8h-23.1
				c-1.6,0-2.5-0.8-2.5-2.5V223.2c0-1.7,0.8-2.5,2.5-2.5H447.4z M425.8,312.9l1.8,0.4v-0.7c-0.8,0-1.4-0.2-1.8-0.4V312.9z
				 M427.2,322.1c0,0.7-0.5,1.1-1.4,1.1l0.3,1.8l-0.3,0.7v0.4h0.3c0-0.7,0.7-1.1,2.2-1.1l-0.4-0.7v-0.4l0.4-1.8H427.2z M426.5,337.4
				c0,0.4-0.2,0.8-0.7,1.4v1.8h0.3l1.1-0.7c-0.2-1-0.4-1.9-0.4-2.5H426.5z M425.8,341.7v0.7c0.4,0,0.9,0.4,1.8,1.1h0.7V343
				c-0.5-0.5-0.7-1-0.7-1.4H425.8z M425.8,344.5v1.4h0.7c-0.2-0.4-0.4-0.8-0.4-1.4H425.8z M425.8,348.8c0.5,1.6,0.7,2.5,0.7,2.9
				l3.2-2.5h0.4l0.7,0.3v-0.7c-0.7,0-1.1-0.2-1.1-0.7c0-0.5,0.7-0.7,2.2-0.7V347c-1.6,0-2.5-0.7-2.5-2.2c-1.9,1.9-3.1,2.9-3.5,2.9
				V348.8z M425.8,351.9v1.8c2.3,0.2,3.6,0.4,3.9,0.4v-1.8h-0.7c0,0.9-0.2,1.4-0.7,1.4l-2.2-1.8H425.8z M426.1,237.4
				c0.1,0.5,0.3,0.7,0.7,0.7v-0.7H426.1z M426.1,308.3v0.3h0.7v-0.3H426.1z M426.1,319v0.3h0.7V319H426.1z M428.9,347.7v0.4
				c0,0.4-0.5,0.8-1.4,1.4h-0.4c-0.5,0-0.7-0.2-0.7-0.7v-0.4c0.5-0.9,1.2-1.4,2.1-1.4L428.9,347.7z M427.2,336v0.8h0.4V336H427.2z
				 M428.2,320.4v1.1h0.3v-1.1H428.2z M428.5,338.8v0.7h0.4v-0.7H428.5z M428.9,337.4v1.1c0.5,0,0.7-0.2,0.7-0.8L428.9,337.4z
				 M430.7,308.3c0,0.9-0.5,1.4-1.4,1.4v0.4h1.8l0.3-1.8H430.7z M431.4,321.8v-0.3c-0.5-1-1.2-1.5-2.1-1.5c0.2,0.6,0.8,1.2,1.8,1.8
				H431.4z M431.1,356.9c0-0.5-0.2-0.7-0.8-0.7H430c-0.5,0.1-0.7,0.3-0.7,0.7H431.1z M430,316.4v0.4h0.7v-0.4H430z M430,330.6
				c0.8,0,1.4,0.2,1.8,0.4v-0.7c0-0.5-0.2-0.7-0.7-0.7c0,0.5-0.4,0.7-1.1,0.7V330.6z M430.3,334.9v0.7h1.1v-0.7
				c0-0.5-0.2-0.8-0.7-0.8L430.3,334.9z M430.7,354.1v1.4h0.4v-1.4H430.7z M431.1,336.7v0.3c0.2,0,0.5,0.2,1,0.4v-0.7
				c0-0.5-0.2-0.8-0.7-0.8L431.1,336.7z M432.1,352.7l-0.3,0.7c0.9,1.3,1.4,2.5,1.4,3.5h1.8c0-0.7,0.4-1.1,1.1-1.1l1.8,1.1l0.4-0.7
				v-0.4c-0.7,0-1.5-0.6-2.2-1.8c0,0.7-0.2,1.1-0.7,1.1h-1.5c-0.5,0-0.7-0.2-0.7-0.7l1.5-1.8l-1.8,0.3L432.1,352.7z M432.1,350.5
				v0.4c0.2,0.5,0.4,0.8,0.4,1h0.4v-0.3c-0.2-0.5-0.4-0.8-0.4-1.1H432.1z M434.3,345.6v1.4c1,0,1.8,0.2,2.2,0.4v-0.8
				c-0.7,0-1.1-0.3-1.1-1H434.3z M435.3,304v0.8c0.5,0,0.7-0.2,0.7-0.8H435.3z M435.6,244.8h0.4c0.3,0,0.7-0.4,1.1-1.1h-0.7
				c-0.5,0.1-0.8,0.3-0.8,0.8V244.8z M436,235.6h1.4l-0.3-0.8c-0.5,0.2-0.8,0.4-1.1,0.4V235.6z M436.4,351.6l0.7,1.1
				c-0.4,0.2-0.8,0.3-1.1,0.3v0.4h1.4c0-0.8,0.2-1.4,0.4-1.8H436.4z M436.4,229.5v0.8c0.1,0.5,0.3,0.7,0.7,0.7h0.7v-1.1L436.4,229.5
				z M438.5,233.1v0.8h0.4v-0.8H438.5z M440.3,355.9v1.1h1.5c0-0.3-0.4-0.7-1.1-1.1H440.3z M442.7,228.5v0.3h0.8v-0.3H442.7z
				 M443.1,229.2l-0.4,2.1h0.8v-2.1H443.1z M443.1,245.5v35.9h3.2c6.4,0,9.6-2.5,9.6-7.5v-18.4c0-6.6-1.9-10-5.7-10H443.1z
				 M443.1,304v35.9h7.5c3.5,0,5.3-3.2,5.3-9.6v-17c0-6.2-2.7-9.3-8.2-9.3H443.1z M444.2,350.5v0.7h0.3v-0.7H444.2z M444.9,230.6
				c-0.2,0.5-0.4,0.8-0.4,1.1h0.8c0-0.8,0.5-1.7,1.4-2.9v-0.3h-1.1c-0.3,0-0.7,0.5-1.1,1.4L444.9,230.6z M444.9,348.4v0.4h1.1v-0.4
				H444.9z M447.4,238.8v0.7h0.4v-0.7H447.4z M448.8,230.3v0.7c0.1,0.5,0.3,0.7,0.7,0.7c0.5-0.2,0.8-0.4,1.1-0.4
				c0-0.4-0.4-0.7-1.1-1H448.8z M449.5,238.1l0.7-0.4c1.5,0.2,2.4,0.4,2.9,0.4l0.7-1.8h-1.1c-1,0.7-2.1,1.1-3.2,1.1V238.1z
				 M449.8,228.5v0.7c1.2,0,2,0.2,2.5,0.7v-1.1h-1.8L449.8,228.5z M449.8,232.4v0.4h0.8v-0.4H449.8z M453.4,233.1v-0.3l-0.7-1.5
				c-0.4,0.2-0.8,0.4-1.4,0.4c0,0.3,0.6,0.8,1.8,1.4H453.4z M454.2,233.8v0.7l1-0.7c0,0.2,0.4,0.6,1.1,1h0.4c-0.5-0.5-0.7-1-0.7-1.4
				L454.2,233.8z M456.9,229.5c0,1.5-0.1,2.3-0.3,2.5h1.1l-0.4-2.5H456.9z M460.5,232v-0.4c-0.5-0.6-0.7-1.1-0.7-1.4h-0.7
				c-0.4,0-0.7,0.3-1.1,1L460.5,232z M458,237.4v0.3h0.7v-0.3H458z M458,242.3h1.1v-1.1c-0.5,0.2-0.8,0.4-1.1,0.4V242.3z
				 M458.4,240.1h0.3c0.4,0,0.8-0.5,1.5-1.4h-0.4c-0.9,0.4-1.4,0.7-1.4,1.1V240.1z M463.3,250.5v0.7h0.7v-0.7H463.3z M463.3,298.4
				v0.7h0.4v-0.7H463.3z M464,232.7v0.3h0.8v-0.3H464z M464.8,257.9v0.4h0.7v-0.4H464.8z M465.8,240.5v0.7h1.5v-0.7H465.8z
				 M465.8,256.1c0.1,0.5,0.3,0.8,0.8,0.8l0.3-0.8H465.8z M465.8,332.8h0.8c0-0.5-0.2-0.7-0.8-0.7V332.8z M466.2,339.2h1.1v-0.4
				c-0.3,0-0.7-0.1-1.1-0.3V339.2z M467.3,234.8v-0.7c-0.5,0.1-0.7,0.3-0.7,0.7H467.3z M467.3,326.8c0.1,0.5,0.3,0.7,0.7,0.7h1.1
				c0-0.4-0.6-0.8-1.8-1.1V326.8z M468,241.6v0.3h0.7v-0.3H468z M468,256.5v0.4h0.7v-0.4H468z M468.3,333.2c0.1,0.5,0.3,0.7,0.7,0.7
				h0.3v-0.7c-0.2,0-0.5-0.2-1-0.4V333.2z M468.7,337.7h1.5V337c-0.4,0.2-0.9,0.4-1.5,0.4V337.7z M469,313.7h1.4l0.4-0.8v-0.3
				c-0.6,0.5-1.2,0.7-1.8,0.7V313.7z M470.1,303.3c0,0.2-0.2,0.5-0.4,1.1h0.7v-1.1H470.1z M469.7,327.5v0.7h0.4v-0.7H469.7z
				 M469.7,331.4v0.3c0.1,0.5,0.3,0.7,0.7,0.7v-1H469.7z M469.7,342.7v0.3h1.4v-0.3H469.7z M470.8,316.8c1.2-0.5,2-0.7,2.5-0.7
				c0-0.3-0.4-0.7-1.1-1.1c0,0.7-0.6,1.1-1.8,1.1L470.8,316.8z M470.8,249.4v0.7h0.3v-0.7H470.8z M471.1,253.3
				c0.1,0.5,0.4,0.7,0.8,0.7l0.3-0.7H471.1z M471.9,308v0.4h0.7V308H471.9z M472.6,323.9v0.7h0.3v-0.7H472.6z"/>
			<path id="XMLID_5213_" class="st7" d="M573.2,248.1v92.9c0,16.9-4.5,28-13.5,33c-4.9,3.8-12.2,5.7-22.1,5.7h-2.4
				c-16.4,0-27-7.1-31.8-21.2c-1.3-4.1-2-8.3-2-12.7V243.2c0-16.5,7.4-27.2,22-32.2c3.9-1.2,8.5-1.7,13.9-1.7c16.7,0,27.6,6,32.6,18
				C572.2,231.4,573.2,238.3,573.2,248.1z M512.9,239.6v0.4h0.8v-0.4H512.9z M514.1,229.8v0.4h1.2v-0.4H514.1z M514.5,236.7v0.4h0.8
				v-0.4H514.5z M515.7,227.7v1.2c0.8,0,1.2,0.5,1.2,1.6c0.4,0,0.8-0.4,1.2-1.2v-0.9l-0.9,0.4c-0.5,0-0.8-0.4-0.8-1.2H515.7z
				 M518.2,227.4v0.4h1.6v-0.4H518.2z M518.2,313.3v0.8h0.8v-0.8H518.2z M518.2,317.4v0.4c0.5,0,0.8,0.7,0.8,2l0.8-0.4
				c-0.4-1.3-0.8-2-1.2-2H518.2z M519,233v0.8h0.4V233H519z M519.4,324.3v0.4h0.9v-0.4H519.4z M519.4,364.3c0.1,0.5,0.4,0.8,0.9,0.8
				h1.6c0-0.5-0.8-1.1-2.5-1.6V364.3z M520.6,223.7c0.4,0,1-0.5,1.7-1.6h-0.4c-0.4,0-0.8,0.4-1.2,1.2V223.7z M522.6,231.5v0.8h0.4
				v-0.8H522.6z M523.4,361v0.4h0.9V361H523.4z M524.3,365.5v0.8h0.8v-0.8H524.3z M525.9,368.3v0.4h0.8v-0.4H525.9z M526.4,225.3
				v0.4h0.8v-0.4H526.4z M529.2,364.7v-0.8c-0.5,0.1-0.8,0.4-0.8,0.8H529.2z M529.2,367.5v0.4c0.3,0.4,0.4,1,0.4,1.6h0.4V368
				L529.2,367.5z M530,342.7c0,5.8,2.2,8.6,6.6,8.6h2c4.1,0,6.1-3.9,6.1-11.8v-89.7c0-8.2-2.5-12.2-7.4-12.2
				c-4.9,0.5-7.4,3.5-7.4,8.9V342.7z M551.2,270.2v0.8h0.4v-0.8H551.2z M552.4,250.9l2.5,0.4v-1.6h-0.4c-0.6,0.5-1.2,0.8-2,0.8
				V250.9z M553.2,268.5v0.4h0.8v-0.4H553.2z M553.6,243.2v0.4h1.2v-0.4H553.6z M554,288.1v0.8h2c0-0.5-0.3-0.8-0.8-0.8H554z
				 M554,311.7c0.1,0.5,0.4,0.8,0.9,0.8c0.5,0,0.8-0.3,0.8-0.8H554z M554.4,240.8v0.9h0.4v-0.9H554.4z M554.4,267.2v1.2h0.4v-1.2
				H554.4z M554.9,244v1.2h0.4V244H554.9z M555.7,255v0.9l0.8,1.2v0.4c0,0.5-0.5,0.8-1.6,0.8v0.8h0.4c1.3-1.1,2.2-1.6,2.5-1.6v-1.2
				c0-0.4-0.4-0.8-1.2-1.2H555.7z M554.9,281.2v0.8h1.2c0-0.5-0.3-0.8-0.8-0.8H554.9z M555.2,224.1v0.4h0.8v-0.4H555.2z
				 M555.2,248.1v1.2h0.8c-0.3-0.4-0.4-0.9-0.4-1.2H555.2z M555.7,273.8v0.8h0.4v-0.8H555.7z M556,230.2v0.8c0.6,0,0.9-0.3,0.9-0.8
				H556z M556,233.8v1.2h0.4v-1.2H556z M556.5,260v0.8h0.8V260H556.5z M558.5,276.3v-1.7c-0.6,0.5-1.2,0.8-2,0.8
				c0.1,0.6,0.4,0.9,0.8,0.9H558.5z M557.3,235.9h1.7l0.4-0.8H559c-0.4,0.3-1.1,0.4-1.7,0.4V235.9z M557.3,242h1.2v-0.8
				c-0.6,0.3-1,0.4-1.2,0.4V242z M558.5,286c0,0.3-0.2,0.6-0.4,1.2c0.4,1.1,0.9,1.6,1.2,1.6V286H558.5z M563.4,242.8
				c0,0.6-0.4,0.9-1.2,0.9l0.4,0.8l-1.2,2.4c0.9,0,1.6,0.7,2,2c0,0.4-0.4,0.8-1.2,1.2H561v-0.8l0.4-0.8l-0.8-0.4H559v0.4l4.1,2.8
				h0.4c0-1.7,0.4-2.5,1.2-2.5l-0.8-1.2c0-0.3,0.1-0.4,0.4-0.4c-0.5-1.4-0.8-2.5-0.8-3.3l0.4-0.8v-0.4H563.4z M559,271l0.4,2h0.4v-2
				H559z M559.3,227.7v0.8h0.4v-0.8H559.3z M563,259.5c0,0.9-1.2,1.6-3.7,2v2.8h0.4c0-1.5,0.7-2.7,2-3.3h0.8
				c0.5,0.1,0.8,0.4,0.8,0.9c0.6-0.3,1-0.4,1.2-0.4l-0.4-2H563z M561.8,237.6c0,0.8-0.7,1.2-2,1.2v0.9l0.4,0.8
				c0.7-0.3,1.2-0.4,1.2-0.4l2,0.4v-2.8H561.8z M559.8,300.7v0.4h0.8v-0.4H559.8z M560.1,230.2v0.8h0.4v-0.8H560.1z M560.1,241.6
				v0.8h0.4v-0.8H560.1z M561,266.5v-0.8c-0.6,0.1-0.9,0.4-0.9,0.8H561z M560.1,277.4l1.7,0.4l0.8-1.2c-0.3,0-0.4-0.1-0.4-0.4
				c-0.4,0.3-1.1,0.4-2,0.4V277.4z M560.6,279.5c0,0.6-0.2,1.2-0.4,1.7h1.7v-0.8c0-0.6-0.3-0.9-0.8-0.9H560.6z M560.1,292.9v0.8h0.4
				v-0.8H560.1z M560.1,311.7v0.4l2,0.4v-0.8l-0.8,0.4l-0.8-0.4H560.1z M560.6,232.3h0.8c0-0.5-0.3-0.8-0.8-0.8V232.3z M562.1,266.9
				l0.4,0.8v1.2h-0.4l-0.8-0.4l-0.8,1.2c0.4,0,1,0.3,1.6,0.8c0-0.5,0.8-1.9,2.5-4.1v-0.4c-0.3-0.7-0.4-1.2-0.4-1.2L562.1,266.9z
				 M561,266.9v1.2c0.5,0,0.8-0.3,0.8-0.9L561,266.9z M561.3,289.7v0.4h0.8v-0.4H561.3z M561.3,297c0.4,0,1-0.5,1.7-1.6h-0.4
				c-0.4,0-0.8,0.4-1.2,1.2V297z M561.8,264.1v0.4c0.1,0.5,0.4,0.8,0.8,0.8c0.8-1.9,1.2-2.7,1.2-2.8c-0.4,0-1,0.5-1.7,1.7H561.8z
				 M561.8,273.4v0.9h2.8v-0.4l-2-0.4H561.8z M562.1,283.6c0,0.6,0.5,0.9,1.7,0.9v0.8c0,0.5-0.3,0.8-0.8,0.8c-0.3-0.6-0.4-1-0.4-1.2
				l-0.8,0.4c0.3,0.4,0.4,1,0.4,1.6l2.5-0.4V284L562.1,283.6z M561.8,306.4c0.1,0.5,0.4,0.8,0.8,0.8v-0.8H561.8z M562.1,271.8h0.9
				c0-0.5-0.3-0.8-0.9-0.8V271.8z M562.6,292.1l-0.4,1.6c0.5-0.3,1-0.4,1.2-0.4c-0.3-0.4-0.4-0.9-0.4-1.2H562.6z M564.6,316.6
				c0-0.5-0.3-0.8-0.8-0.8H563c-0.6,0.1-0.9,0.4-0.9,0.8H564.6z M563.4,298.7c-0.2,1.1-0.4,1.6-0.8,1.6c0.3,0.6,0.4,1,0.4,1.2h0.4
				c0-1.6,0.2-2.6,0.4-2.8H563.4z M563,324.3v0.4h1.2v-0.4H563z M563.4,255.5c0.3,1.9,0.7,2.8,1.2,2.8v-1.2l-0.4-2L563.4,255.5z
				 M563.4,277.1h1.2v-0.8c-0.3,0-0.6-0.2-1.2-0.4V277.1z M564.2,251.8v0.8h0.4v-0.8H564.2z M564.2,270.5v1.2h0.4v-1.2H564.2z"/>
			<path id="XMLID_5286_" class="st7" d="M669.4,200.4c0.5,0,1.2,0.6,1.9,2v32.4c0,0.5-0.6,1.2-1.9,1.9h-22.3v157
				c0,2.2-1.2,3.4-3.4,3.4h-30c-2.2,0-3.4-1.2-3.4-3.4v-157h-22.9c-1.3-0.3-1.9-1.8-1.9-4.3v-27.2c0-2.4,0.8-4.1,2.4-4.8H669.4z
				 M598.7,220.3v0.5h1.5v-0.5H598.7z M604,219.4v0.4h0.9v-0.4H604z M604.4,224.2v0.4c0.1,0.7,0.4,1.1,1.1,1.1l0.4-1.1v-0.4H604.4z
				 M605.5,212.1c0,0.5,0.4,0.9,1.4,1.5c1.4-0.7,2.5-1.1,3.5-1.1v-0.4H605.5z M605.5,217.9v0.9h0.4v-0.9H605.5z M608.9,219.4v0.9
				h0.4v-0.9H608.9z M612.2,214c0,0.5-0.3,1.4-0.9,2.4h0.9c0-0.7,0.2-1.4,0.5-1.9V214H612.2z M614.7,223.3v-1.1h-0.5
				c-0.6,0.1-0.9,0.4-0.9,1.1c0.1,0.6,0.4,0.9,0.9,0.9L614.7,223.3z M616.6,217c0.1,0.6,0.5,0.9,1.1,0.9V217H616.6z M617.1,219.8
				v1.1h0.5l1.4-1.1c0.8,0.6,2,1.2,3.5,1.5l0.4-0.9c-0.5,0-2.3-0.5-5.3-1.5L617.1,219.8z M617.6,222.7c0,0.3-0.2,0.7-0.5,1.5
				c0.5,0,1.2,0.3,1.9,0.9c0-0.6,0.8-0.9,2.4-0.9v-0.9l-0.9,0.4H619L617.6,222.7z M618.6,225.7v0.9h0.4v-0.9H618.6z M619.5,215h0.9
				c0-1.3,0.3-1.9,0.9-1.9h1.1l0.9,0.5c0-0.3,0.1-0.5,0.4-0.5c-0.4-1.3-0.8-1.9-1.4-1.9c-0.3,0.9-1.3,1.4-2.9,1.4V215z M620.5,230.5
				v0.9h0.5v-0.9H620.5z M620.5,240.7c0.1,0.6,0.4,0.9,0.9,0.9c0.7,0,1.1-0.3,1.1-0.9v-0.4c-0.5,0-1.3-0.3-2-1.1V240.7z M621,216
				v0.4c0,0.4,0.5,0.9,1.5,1.5h2.4v-0.5c-0.9,0-1.5-0.4-1.5-1.4H621z M621.4,326.4v1.1h0.5v-1.1H621.4z M621.9,226.1v0.5h0.9v-0.5
				H621.9z M621.9,316.3v0.9c0.6,0,0.9-0.3,0.9-0.9H621.9z M622.5,235.8h1.4v-0.9c-0.7,0.3-1.2,0.5-1.4,0.5V235.8z M622.9,230.5v0.4
				h0.9v-0.4H622.9z M623.4,238.2h0.9c0-0.6-0.3-0.9-0.9-0.9V238.2z M624.4,211.6v0.5h0.9v-0.5H624.4z M626.8,222.7
				c0,1.4-0.8,2.4-2.4,2.9v0.4c0.9,0,1.5,0.3,1.5,0.9l-0.5,1.1h1.5l-0.5-2.4c0.9-1.4,1.5-2.4,1.5-2.9H626.8z M625.3,221.3l4.8,0.5
				l-1.5-2.4v-0.9c0.1-0.7,0.4-1.1,1.1-1.1c0.1,0.7,0.4,1.1,0.9,1.1c0.5-0.3,1.2-0.5,1.9-0.5V217l-0.9,0.4c-0.5,0-1.6-0.3-2.9-0.9
				c-0.8,0-2,1.5-3.4,4.4V221.3z M625.3,324.5c0.1,0.6,0.4,0.9,0.9,0.9h0.5v-0.9H625.3z M626.8,215.5c0-0.6,0.6-0.9,1.9-0.9
				l-0.4-0.9c-0.9,0.3-1.7,0.9-2,1.9H626.8z M626.8,231.5c0,0.1-0.2,0.6-0.5,1.5v0.9h0.5c0-0.7,0.2-1.5,0.5-2v-0.4H626.8z
				 M626.8,237.3c0.3,1.3,1.2,1.9,2.4,1.9v-0.9c-0.5,0-1.2-0.3-1.9-0.9H626.8z M627.3,315.3c0.1,0.6,0.4,0.9,0.9,0.9v-0.9H627.3z
				 M628.2,264.5v0.4h0.9v-0.4H628.2z M628.7,233v0.9h0.5V233H628.7z M628.7,332.7v0.5h1.1v-0.5H628.7z M629.2,211.2v0.9h2.4v-0.9
				H629.2z M629.2,224.2c0.9,1.2,1.5,1.9,1.5,2.4h1.5v-2c-1.2,0-2.2-0.3-2.9-0.9V224.2z M629.2,243.1v0.9h0.5v-0.9H629.2z
				 M629.7,241.2v0.4h0.9v-0.4H629.7z M630.1,214.5v0.4c0.5,0,1.3,0.3,2,1.1v-1.5H630.1z M632.1,234.9h0.9v-0.9
				c0-0.6-0.3-0.9-0.9-0.9V234.9z M632.6,223.3c0.7-0.3,1.2-0.5,1.5-0.5v-0.5c0-0.5-0.5-0.9-1.5-1.4V223.3z M632.6,312.9v0.9h0.9
				v-0.9H632.6z M633.5,211.2v1.4h1.1c0-0.3,0.1-0.8,0.4-1.4H633.5z M633.5,219.8v0.5h1.1v-0.5H633.5z M635,220.3
				c0,0.5,1.5,1.9,4.4,3.9v-0.9c-0.9,0-1.7-0.8-2-2.4L635,220.3z M636.5,214.5v0.9h2.4V215L636.5,214.5z M638.9,212.1v0.9h0.5v-0.9
				H638.9z M642.3,215l-1.9,3.5h2.4l0.4-2.9L642.3,215z M642.8,211.2l0.4,2.4h0.5v-2.4H642.8z M642.8,221.8v0.9h0.4v-0.9H642.8z
				 M642.8,224.6v0.5c0.7,0,1.6,0.3,2.4,0.9v-1.9L642.8,224.6z M645.2,215v1.1h0.9V215H645.2z M648,215c0.6-0.3,1.2-0.4,1.5-0.4
				c-0.3-0.5-0.4-1.1-0.4-1.5h-0.5c-0.4,0-0.9,0.5-1.5,1.5L648,215z M649.1,211.6v0.9c1.1,0,1.9,0.2,2.4,0.5v-0.9L649.1,211.6z
				 M650,216h0.9c0-0.7-0.3-1.1-0.9-1.1V216z M652.5,221.8v0.9h0.4v-0.9H652.5z M652.9,216.4c0.3,0.5,0.5,1.3,0.5,2h0.5V216
				L652.9,216.4z M653.9,224.2v1.5h0.4v-1.5H653.9z M654.4,211.2c0.6,0.7,0.9,1.5,0.9,2.4h0.5v-2l-0.9-0.4H654.4z"/>
		</g>
	</g>
</g>
<g id="Calque_3">
	<path id="XMLID_561_" class="st19" d="M745.9,139.6l-72.1,13.5C623.4,70.5,532.4,15.3,428.5,15.3c-103.8,0-194.7,55.1-245.2,137.6
		L111,139.6l5.9,325.9l65.6-14.5c50.3,83.2,141.6,138.7,245.9,138.7c104.8,0,196.4-56.1,246.6-139.9l70.8,15.6V139.6z"/>
	<circle id="XMLID_560_" class="st3" cx="424.6" cy="295.9" r="242.2"/>
	<g id="XMLID_532_">
		<line id="XMLID_559_" class="st4" x1="426" y1="58.4" x2="426" y2="84.2"/>
		<path id="XMLID_558_" class="st5" d="M430.4,131.8c27.9,0.8,49,7.3,48.1,40.4s-24.4,59.2-52.3,58.4c-27.9-0.8-49.8-28.3-48.8-61.3
			S402.4,131,430.4,131.8z"/>
		<line id="XMLID_557_" class="st6" x1="384.1" y1="147.8" x2="382.4" y2="158.7"/>
		<g id="XMLID_533_">
			<rect id="XMLID_556_" x="378.9" y="78.8" class="st5" width="94.8" height="30.7"/>
			<polygon id="XMLID_555_" class="st5" points="456.3,128.1 398.2,128.1 378.9,113.6 473.7,113.6 			"/>
			<ellipse id="XMLID_554_" class="st7" cx="396.4" cy="95.8" rx="11.7" ry="9.2"/>
			<ellipse id="XMLID_553_" class="st7" cx="455" cy="95.8" rx="11.7" ry="9.2"/>
			<ellipse id="XMLID_552_" class="st5" cx="373.9" cy="95.8" rx="7.8" ry="11.3"/>
			<ellipse id="XMLID_551_" class="st5" cx="478.5" cy="95.8" rx="7.8" ry="11.3"/>
			<path id="XMLID_550_" class="st5" d="M371.9,95.8c0-1.3,2.3-30.6,2.3-30.6l2.3,30.6H371.9z"/>
			<path id="XMLID_549_" class="st5" d="M476.2,95.8c0-1.3,2.3-30.6,2.3-30.6l2.3,30.6H476.2z"/>
			<ellipse id="XMLID_548_" class="st5" cx="426.3" cy="62.3" rx="7.3" ry="5.7"/>
			<path id="XMLID_547_" class="st5" d="M450.2,103c2.9,1,6.1,1,9,0c2.9-1,5.3-3,6.6-5.4c-0.2,1.8-1.8,3.2-3.4,4.3
				c-0.7,0.5-1.5,1-2.3,1.4c-2.2,1.1-4.7,1.6-7.2,1.3c-1.2-0.1-2.6-0.6-3.1-1.5c0.1-0.1,0.3-0.2,0.4-0.3"/>
			<path id="XMLID_546_" class="st5" d="M386.5,98.3c0.9,1.4,2.4,2.4,4,3.1c1.8,0.8,3.8,1.4,5.8,1.3c3.6,0,6.8-1.7,9.9-3.3
				c-0.4,1.2-1.3,2.4-2.5,3.1c-1.9,1.2-4.5,1.4-6.9,1.5c-1,0.1-2,0.1-3-0.1c-1.3-0.3-2.5-0.9-3.7-1.6c-1.5-0.9-2.9-2-3.7-3.4
				C386.3,98.8,386.2,98.5,386.5,98.3"/>
			<path id="XMLID_545_" class="st7" d="M473.7,87.6c0.2-0.1,1.5-2.2,3.2-2.4s4.6-0.8,7.2,3.5c2.6,4.3,1.4,9.7,1.4,9.7h-0.9
				c0,0,1.3-4.9-1-9c-2.3-4.1-4.8-3.8-6.4-3.4c-1.6,0.4-2.4,2.2-2.4,2.2L473.7,87.6z"/>
			<path id="XMLID_544_" class="st7" d="M379.5,87.4v-8H393C393,79.3,380.3,79.8,379.5,87.4z"/>
			<polygon id="XMLID_543_" class="st5" points="393,137.8 371.9,133.6 379.5,157.2 			"/>
			<path id="XMLID_542_" class="st5" d="M373.8,139.5c0.5,1.5-7.7,33.4-7.7,33.4l15.6-9.1l2.7-18.5L373.8,139.5z"/>
			<polyline id="XMLID_541_" class="st5" points="475.6,157.2 462.1,137.8 483.1,133.6 			"/>
			<path id="XMLID_540_" class="st8" d="M436.8,154.5c2.1,6.6-17,18.5-42.6,26.7c-25.6,8.1-26.6,2.5-28.7-4.1
				c-2.1-6.6-4.5-11.7,21.1-19.8C412.3,149.1,434.8,147.9,436.8,154.5z"/>
			<path id="XMLID_539_" class="st5" d="M481.4,139.1c-0.8,1.4,0.1,34.2,0.1,34.2L468.3,161l1.4-18.7L481.4,139.1z"/>
			<path id="XMLID_538_" class="st8" d="M411.5,162.7c-1.6,6.7,18.4,17.2,44.5,23.3s26.7,0.5,28.3-6.3c1.6-6.7,3.6-12-22.6-18.1
				S413.1,155.9,411.5,162.7z"/>
			<line id="XMLID_537_" class="st6" x1="468" y1="153.2" x2="469.6" y2="164.1"/>
			<path id="XMLID_536_" d="M430.2,173.9c0.3-1.1,44.8,11.7,49.4,5.7s2.1,7.6-6,7.4C465.3,186,428.4,180.5,430.2,173.9z"/>
			<path id="XMLID_535_" class="st7" d="M366.1,172.9l3.1,8.8c0,0,1.3,2.3,6.9,1.8c5.5-0.5,21.8-4.6,21.8-4.6
				S369.6,182.7,366.1,172.9z"/>
			<path id="XMLID_534_" class="st7" d="M386,146.2c0-1-1.6,10-1.6,10l24.6-6.6C409,149.6,385.6,156,386,146.2z"/>
		</g>
	</g>
	<polygon id="XMLID_531_" class="st9" points="479.6,533.6 461.5,543.1 444.2,532.2 445,511.8 463.1,502.2 480.4,513.1 	"/>
	<polygon id="XMLID_530_" class="st10" points="427.4,501.7 409.3,511.3 392,500.4 392.8,479.9 410.9,470.4 428.2,481.3 	"/>
	<g id="XMLID_526_" class="st11">
		<polygon id="XMLID_529_" class="st12" points="391.9,500.6 373.8,510.1 356.5,499.2 357.3,478.8 375.4,469.2 392.7,480.1 		"/>
		<polygon id="XMLID_528_" class="st12" points="411.3,470.7 393.2,480.2 375.9,469.3 376.7,448.9 394.8,439.4 412.1,450.3 		"/>
		<polygon id="XMLID_527_" class="st12" points="375.1,469.5 357.1,479 339.8,468.1 340.6,447.7 358.6,438.1 375.9,449 		"/>
	</g>
	<g id="XMLID_489_" class="st11">
		<polygon id="XMLID_525_" class="st10" points="498.1,504.1 480.1,513.6 462.8,502.7 463.6,482.3 481.6,472.8 498.9,483.7 		"/>
		<polygon id="XMLID_524_" class="st10" points="517.6,474.2 499.5,483.8 482.2,472.9 483,452.4 501.1,442.9 518.4,453.8 		"/>
		<polygon id="XMLID_523_" class="st10" points="514.4,535.3 496.4,544.8 479.1,533.9 479.8,513.5 497.9,504 515.2,514.9 		"/>
		<polygon id="XMLID_522_" class="st10" points="520.3,413.8 502.2,423.3 484.9,412.4 485.7,392 503.8,382.5 521.1,393.4 		"/>
		<polygon id="XMLID_521_" class="st10" points="589.6,477 571.5,486.6 554.2,475.7 555,455.2 573.1,445.7 590.4,456.6 		"/>
		<polygon id="XMLID_520_" class="st12" points="444,532.4 425.9,541.9 408.6,531 409.4,510.6 427.5,501.1 444.8,512 		"/>
		<polygon id="XMLID_519_" class="st12" points="533.7,505.3 515.6,514.8 498.3,503.9 499.1,483.5 517.2,473.9 534.5,484.8 		"/>
		<polygon id="XMLID_518_" class="st12" points="446,472.3 427.9,481.8 410.6,470.9 411.4,450.5 429.5,440.9 446.8,451.8 		"/>
		<polygon id="XMLID_517_" class="st12" points="481.6,473.4 463.5,483 446.2,472.1 447,451.6 465.1,442.1 482.4,453 		"/>
		<polygon id="XMLID_516_" class="st12" points="465.5,442.4 447.4,451.9 430.1,441 430.9,420.6 449,411.1 466.2,422 		"/>
		<polygon id="XMLID_515_" class="st12" points="407.8,531.2 389.8,540.8 372.5,529.9 373.2,509.4 391.3,499.9 408.6,510.8 		"/>
		<g id="XMLID_511_">
			<polygon id="XMLID_514_" class="st12" points="410.9,470.7 392.8,480.2 375.5,469.3 376.3,448.9 394.4,439.4 411.7,450.3 			"/>
			<polygon id="XMLID_513_" class="st12" points="430.3,440.9 412.2,450.4 394.9,439.5 395.7,419.1 413.8,409.5 431.1,420.4 			"/>
			<polygon id="XMLID_512_" class="st12" points="394.2,439.6 376.1,449.2 358.8,438.3 359.6,417.8 377.7,408.3 394.9,419.2 			"/>
		</g>
		<g id="XMLID_507_">
			<polygon id="XMLID_510_" class="st12" points="336.2,528.7 318.2,538.2 300.9,527.3 301.7,506.9 319.7,497.4 337,508.3 			"/>
			<polygon id="XMLID_509_" class="st12" points="355.7,498.8 337.6,508.4 320.3,497.5 321.1,477 339.2,467.5 356.5,478.4 			"/>
			<polygon id="XMLID_508_" class="st12" points="319.5,497.6 301.4,507.1 284.1,496.2 284.9,475.8 303,466.3 320.3,477.2 			"/>
		</g>
		<g id="XMLID_503_">
			<polygon id="XMLID_506_" class="st12" points="338.5,468.5 320.4,478.1 303.1,467.2 303.9,446.7 322,437.2 339.3,448.1 			"/>
			<polygon id="XMLID_505_" class="st12" points="358,438.7 339.9,448.2 322.6,437.3 323.4,416.9 341.5,407.4 358.8,418.3 			"/>
			<polygon id="XMLID_504_" class="st12" points="321.8,437.5 303.7,447 286.4,436.1 287.2,415.7 305.3,406.1 322.6,417 			"/>
		</g>
		<g id="XMLID_499_">
			<polygon id="XMLID_502_" class="st12" points="282.9,496.9 264.8,506.4 247.5,495.5 248.3,475.1 266.4,465.5 283.7,476.4 			"/>
			<polygon id="XMLID_501_" class="st12" points="302.3,467 284.3,476.5 267,465.6 267.8,445.2 285.8,435.7 303.1,446.6 			"/>
			<polygon id="XMLID_500_" class="st12" points="266.2,465.8 248.1,475.3 230.8,464.4 231.6,444 249.7,434.4 267,445.3 			"/>
		</g>
		<polygon id="XMLID_498_" class="st12" points="372.4,530.1 354.3,539.6 337,528.7 337.8,508.2 355.9,498.7 373.2,509.6 		"/>
		<polygon id="XMLID_497_" class="st12" points="285.6,436.1 267.5,445.6 250.2,434.7 251,414.3 269.1,404.8 286.4,415.7 		"/>
		<polygon id="XMLID_496_" class="st12" points="413.1,409.4 395,419 377.7,408.1 378.5,387.6 396.6,378.1 413.9,389 		"/>
		<polygon id="XMLID_495_" class="st12" points="484.1,412.6 466,422.1 448.7,411.2 449.5,390.8 467.6,381.3 484.9,392.2 		"/>
		<polygon id="XMLID_494_" class="st12" points="537,444.2 518.9,453.7 501.6,442.8 502.4,422.4 520.5,412.9 537.8,423.8 		"/>
		<polygon id="XMLID_493_" class="st12" points="573.2,445.4 555.1,454.9 537.8,444 538.6,423.6 556.7,414 574,424.9 		"/>
		<polygon id="XMLID_492_" class="st12" points="569.8,507.1 551.7,516.6 534.4,505.7 535.2,485.3 553.3,475.8 570.6,486.7 		"/>
		<polygon id="XMLID_491_" class="st12" points="609.3,446.5 591.3,456.1 574,445.2 574.8,424.7 592.8,415.2 610.1,426.1 		"/>
		<polygon id="XMLID_490_" class="st12" points="625.8,478.4 607.7,488 590.4,477.1 591.2,456.6 609.3,447.1 626.6,458 		"/>
	</g>
	<g id="XMLID_438_" class="st13">
		<g id="XMLID_484_">
			<path id="XMLID_488_" class="st14" d="M287.5,417.7c11.7-10.3,30-14.2,65.7,0.4c35.7,14.6,59.9,37.5,54,51.3
				c-5.9,13.8-82,5.5-117.7-9.1S276.4,428.9,287.5,417.7z"/>
			<path id="XMLID_487_" class="st14" d="M327.3,436.1c7.9-6.9,20.2-9.5,44.3,0.3c24.1,9.8,40.3,25.3,36.3,34.5
				c-4,9.3-55.2,3.7-79.3-6.1S319.8,443.7,327.3,436.1z"/>
			<path id="XMLID_486_" class="st14" d="M562.5,416.2c-12-9.9-30.4-13.3-65.7,2.3s-58.8,39.2-52.5,52.8
				c6.3,13.6,82.1,3.1,117.4-12.4S574,427.2,562.5,416.2z"/>
			<path id="XMLID_485_" class="st14" d="M523.3,435.8c-8.1-6.7-20.5-9-44.2,1.5c-23.8,10.5-39.6,26.4-35.3,35.6
				c4.3,9.2,55.3,2.1,79.1-8.4C546.6,454,531,443.1,523.3,435.8z"/>
		</g>
		<g id="XMLID_439_">
			<path id="XMLID_483_" class="st15" d="M376.6,445.3c-0.4-29,23.3-72.5,44.7-72.8s41.7,42.6,42.1,71.6c0.4,29-19.2,33.1-40.6,33.4
				C401.4,477.8,377,474.3,376.6,445.3z"/>
			<g id="XMLID_467_">
				<g id="XMLID_478_">
					<path id="XMLID_482_" d="M477.9,440.8c-10.3,6.5-17.6,13-16.3,14.4c1.3,1.5,10.6-2.6,20.9-9.1s17.6-13,16.3-14.4
						C497.6,430.2,488.2,434.3,477.9,440.8z"/>
					<path id="XMLID_481_" d="M473.7,424.9c12.8,2.7,23.2,5.9,23.2,7.1s-10.5-0.1-23.3-2.8c-12.8-2.7-23.2-5.9-23.2-7.1
						C450.4,420.9,460.8,422.2,473.7,424.9z"/>
					<path id="XMLID_480_" d="M494,434.2c-1.7-2-1.8-4.4-0.1-5.4c1.6-1,4.3-0.2,6,1.7c1.7,2,1.8,4.4,0.1,5.4
						C498.4,437,495.7,436.2,494,434.2z"/>
					<path id="XMLID_479_" d="M453.8,454.7c2.3-4,7.1-6.1,10.7-4.6c3.6,1.5,4.5,6,2.2,10c-2.3,4-7.1,6.1-10.7,4.6
						C452.4,463.2,451.5,458.7,453.8,454.7z"/>
				</g>
				<g id="XMLID_473_">
					<path id="XMLID_477_" d="M480.3,420.9c-10.3,6.5-17.6,13-16.3,14.4c1.3,1.5,10.6-2.6,20.9-9.1c10.3-6.5,17.6-13,16.3-14.4
						C500,410.4,490.6,414.4,480.3,420.9z"/>
					<path id="XMLID_476_" d="M476.1,405.1c12.8,2.7,23.2,5.9,23.2,7.1c0,1.2-10.5-0.1-23.3-2.8s-23.2-5.9-23.2-7.1
						S463.2,402.3,476.1,405.1z"/>
					<path id="XMLID_475_" d="M496.4,414.4c-1.7-2-1.8-4.4-0.1-5.4c1.6-1,4.3-0.2,6,1.7c1.7,2,1.8,4.4,0.1,5.4
						S498.1,416.4,496.4,414.4z"/>
					<path id="XMLID_474_" d="M456.2,434.9c2.3-4,7.1-6.1,10.7-4.6s4.5,6,2.2,10s-7.1,6.1-10.7,4.6
						C454.8,443.4,453.9,438.9,456.2,434.9z"/>
				</g>
				<g id="XMLID_468_">
					<path id="XMLID_472_" d="M478,404.8c-10.3,6.5-17.6,13-16.3,14.4c1.3,1.5,10.6-2.6,20.9-9.1c10.3-6.5,17.6-13,16.3-14.4
						C497.6,394.3,488.3,398.3,478,404.8z"/>
					<path id="XMLID_471_" d="M473.7,388.9c12.8,2.7,23.2,5.9,23.2,7.1c0,1.2-10.5-0.1-23.3-2.8c-12.8-2.7-23.2-5.9-23.2-7.1
						C450.5,384.9,460.9,386.2,473.7,388.9z"/>
					<path id="XMLID_470_" d="M494,398.2c-1.7-2-1.8-4.4-0.1-5.4c1.6-1,4.3-0.2,6,1.7c1.7,2,1.8,4.4,0.1,5.4S495.7,400.2,494,398.2z
						"/>
					<path id="XMLID_469_" d="M453.8,418.7c2.3-4,7.1-6.1,10.7-4.6c3.6,1.5,4.5,6,2.2,10s-7.1,6.1-10.7,4.6
						C452.5,427.3,451.5,422.8,453.8,418.7z"/>
				</g>
			</g>
			<g id="XMLID_451_">
				<g id="XMLID_462_">
					<path id="XMLID_466_" d="M363,442.1c10.5,6.2,18,12.5,16.8,14c-1.2,1.5-10.7-2.3-21.2-8.5c-10.5-6.2-18-12.5-16.8-14
						C343.1,432.1,352.6,435.9,363,442.1z"/>
					<path id="XMLID_465_" d="M366.8,426.1c-12.8,3.1-23.1,6.6-23,7.7c0.1,1.2,10.4-0.4,23.2-3.5c12.8-3.1,23.1-6.6,23-7.7
						C390,421.5,379.6,423,366.8,426.1z"/>
					<path id="XMLID_464_" d="M346.8,436c1.6-2,1.6-4.5,0-5.4c-1.6-1-4.3-0.1-6,1.9s-1.6,4.5,0,5.4
						C342.5,438.9,345.2,438.1,346.8,436z"/>
					<path id="XMLID_463_" d="M387.6,455.3c-2.4-4-7.3-5.9-10.8-4.3c-3.5,1.6-4.4,6.1-1.9,10.1s7.3,5.9,10.8,4.3
						C389.2,463.8,390,459.3,387.6,455.3z"/>
				</g>
				<g id="XMLID_457_">
					<path id="XMLID_461_" d="M360.1,422.3c10.5,6.2,18,12.5,16.8,14c-1.2,1.5-10.7-2.3-21.2-8.5s-18-12.5-16.8-14
						C340.1,412.4,349.6,416.1,360.1,422.3z"/>
					<path id="XMLID_460_" d="M363.9,406.4c-12.8,3.1-23.1,6.6-23,7.7c0.1,1.2,10.4-0.4,23.2-3.5c12.8-3.1,23.1-6.6,23-7.7
						C387,401.7,376.6,403.3,363.9,406.4z"/>
					<path id="XMLID_459_" d="M343.8,416.2c1.6-2,1.6-4.5,0-5.4s-4.3-0.1-6,1.9s-1.6,4.5,0,5.4S342.2,418.3,343.8,416.2z"/>
					<path id="XMLID_458_" d="M384.6,435.6c-2.4-4-7.3-5.9-10.8-4.3c-3.5,1.6-4.4,6.1-1.9,10.1s7.3,5.9,10.8,4.3
						C386.2,444.1,387,439.5,384.6,435.6z"/>
				</g>
				<g id="XMLID_452_">
					<path id="XMLID_456_" d="M362,406.2c10.5,6.2,18,12.5,16.8,14c-1.2,1.5-10.7-2.3-21.2-8.5s-18-12.5-16.8-14
						C342,396.2,351.5,400,362,406.2z"/>
					<path id="XMLID_455_" d="M365.7,390.2c-12.8,3.1-23.1,6.6-23,7.7c0.1,1.2,10.4-0.4,23.2-3.5s23.1-6.6,23-7.7
						C388.9,385.5,378.5,387.1,365.7,390.2z"/>
					<path id="XMLID_454_" d="M345.7,400.1c1.6-2,1.6-4.5,0-5.4c-1.6-1-4.3-0.1-6,1.9s-1.6,4.5,0,5.4
						C341.4,403,344.1,402.1,345.7,400.1z"/>
					<path id="XMLID_453_" d="M386.5,419.4c-2.4-4-7.3-5.9-10.8-4.3c-3.5,1.6-4.4,6.1-1.9,10.1c2.4,4,7.3,5.9,10.8,4.3
						C388.1,427.9,388.9,423.4,386.5,419.4z"/>
				</g>
			</g>
			<g id="XMLID_443_">
				<polygon id="XMLID_450_" class="st8" points="437.9,526.8 441,526.8 441.4,561 				"/>
				<polygon id="XMLID_449_" class="st8" points="414.2,527.7 411.1,527.7 411.6,562 				"/>
				<g id="XMLID_444_">
					<path id="XMLID_448_" class="st16" d="M384.9,511.5c-0.3-18.1,22.9-48,38.3-48.2c15.4-0.2,38.2,29,38.5,47.1
						c0.3,18.1-22.2,18.3-37.6,18.5C408.8,529.2,385.2,529.6,384.9,511.5z"/>
					
						<ellipse id="XMLID_446_" transform="matrix(-0.9652 0.2615 -0.2615 -0.9652 1006.9758 865.1642)" class="st17" cx="445.9" cy="499.6" rx="14.3" ry="17.9"/>
					
						<ellipse id="XMLID_445_" transform="matrix(0.9723 0.2338 -0.2338 0.9723 128.0196 -79.4857)" class="st17" cx="399.3" cy="500.2" rx="14.3" ry="17.9"/>
				</g>
			</g>
			<polygon id="XMLID_442_" class="st7" points="386.7,402.9 454.2,402.9 458,411.6 383.2,411.4 			"/>
			<polygon id="XMLID_441_" class="st7" points="380.4,419 461.4,420.5 463.8,426.6 463.3,428.3 376.6,427 			"/>
			<polygon id="XMLID_440_" class="st7" points="376.8,436.3 464.3,438.1 463.3,448.2 376.6,445.3 			"/>
		</g>
	</g>
	<path id="XMLID_437_" class="st7" d="M442.3,485.5c1.7-2.1,5.7-1.7,8.9,0.9c3.2,2.6,4.9,10.1,2.7,8.5
		C448.4,490.8,440.6,487.6,442.3,485.5z"/>
	<path id="XMLID_436_" class="st7" d="M398.6,486.7c1.7-2.1,5.7-1.7,8.9,0.9s4.9,10.1,2.7,8.5C404.6,491.9,396.9,488.8,398.6,486.7z
		"/>
	<g id="XMLID_2_">
		<path id="XMLID_562_" class="st7" d="M288.1,535.5c-0.3,0.4-0.6,0.6-0.9,0.9c-0.3,0.2-0.7,0.4-1.1,0.4c-0.4,0.1-0.8,0.1-1.2,0
			s-0.8-0.2-1.1-0.5s-0.6-0.5-0.8-0.9c-0.2-0.3-0.4-0.7-0.4-1.1c-0.1-0.4-0.1-0.8,0-1.2c0.1-0.4,0.2-0.8,0.5-1.1l5.9-8.5l1.6,1.1
			l-5.8,8.3c-0.3,0.4-0.4,0.7-0.3,1.1s0.2,0.6,0.5,0.8c0.3,0.2,0.6,0.3,0.9,0.2c0.3-0.1,0.6-0.3,0.9-0.7l5.8-8.3l1.6,1.1
			L288.1,535.5z"/>
		<path id="XMLID_564_" class="st7" d="M301,531.6l1.6,1l-1.8,8.4l0,0l4.2-6.8l1.6,1l-7,11.4l-1.5-0.9l1.7-8.4l0,0l-4.2,6.8l-1.6-1
			L301,531.6z"/>
		<path id="XMLID_566_" class="st7" d="M317.5,545.5l-1.7-0.9l0.2-0.4c0.2-0.4,0.3-0.8,0.3-1.1c0-0.4-0.3-0.7-0.7-0.9
			c-0.2-0.1-0.4-0.2-0.6-0.2c-0.2,0-0.4,0.1-0.5,0.2c-0.2,0.1-0.3,0.2-0.4,0.4c-0.1,0.2-0.2,0.3-0.4,0.5c-0.1,0.2-0.2,0.4-0.3,0.6
			c-0.1,0.2-0.1,0.3-0.1,0.5c0,0.2,0,0.3,0.1,0.5s0.2,0.3,0.4,0.5l1,1.2c0.3,0.3,0.5,0.7,0.6,1c0.1,0.3,0.2,0.6,0.2,1
			c0,0.3-0.1,0.7-0.2,1c-0.1,0.4-0.3,0.8-0.6,1.2c-0.3,0.5-0.6,0.9-0.9,1.3c-0.3,0.4-0.7,0.6-1.1,0.8c-0.4,0.2-0.8,0.3-1.3,0.2
			c-0.5,0-1-0.2-1.5-0.5c-0.4-0.2-0.7-0.5-1-0.8c-0.3-0.3-0.5-0.7-0.6-1.1c-0.1-0.4-0.2-0.8-0.1-1.2c0-0.4,0.2-0.8,0.4-1.2l0.3-0.6
			l1.7,0.9l-0.3,0.5c-0.2,0.3-0.2,0.6-0.2,1s0.3,0.6,0.7,0.9c0.3,0.2,0.5,0.2,0.7,0.2c0.2,0,0.4,0,0.5-0.2s0.3-0.3,0.5-0.5
			c0.1-0.2,0.3-0.4,0.4-0.7c0.2-0.3,0.3-0.6,0.4-0.8s0.1-0.4,0.1-0.6c0-0.2-0.1-0.3-0.1-0.5c-0.1-0.1-0.2-0.3-0.4-0.5l-0.9-1.1
			c-0.6-0.7-0.8-1.3-0.8-2s0.2-1.3,0.6-2c0.2-0.4,0.5-0.8,0.9-1.2c0.3-0.3,0.7-0.6,1.1-0.7c0.4-0.2,0.8-0.2,1.3-0.2
			c0.5,0,0.9,0.2,1.4,0.4c0.4,0.2,0.8,0.5,1,0.8c0.3,0.3,0.5,0.7,0.6,1.1s0.1,0.8,0.1,1.2c0,0.4-0.1,0.7-0.3,1.1L317.5,545.5z"/>
		<path id="XMLID_568_" class="st7" d="M325,548.5c0.2-0.5,0.5-0.9,0.8-1.2c0.3-0.3,0.7-0.5,1.1-0.6s0.8-0.2,1.2-0.1
			s0.8,0.1,1.1,0.3s0.7,0.4,1,0.7c0.3,0.3,0.5,0.6,0.7,1s0.2,0.8,0.2,1.2s-0.1,0.9-0.3,1.4l-2.9,6.4c-0.2,0.5-0.5,0.9-0.9,1.2
			c-0.3,0.3-0.7,0.5-1.1,0.6c-0.4,0.1-0.8,0.2-1.2,0.1c-0.4,0-0.8-0.1-1.1-0.3c-0.4-0.2-0.7-0.4-1-0.7c-0.3-0.3-0.5-0.6-0.7-1
			c-0.2-0.4-0.3-0.8-0.3-1.2c0-0.4,0.1-0.9,0.3-1.4L325,548.5z M323.8,555.7c-0.2,0.4-0.2,0.8-0.1,1.1c0.1,0.3,0.4,0.5,0.7,0.7
			s0.6,0.2,1,0.1s0.6-0.3,0.8-0.8l2.9-6.4c0.2-0.4,0.2-0.8,0.1-1.1s-0.4-0.5-0.7-0.7s-0.6-0.2-1-0.1c-0.3,0.1-0.6,0.3-0.8,0.8
			L323.8,555.7z"/>
		<path id="XMLID_571_" class="st7" d="M339.7,551.4l1.8,0.7l-4.1,10.7l3.5,1.3l-0.7,1.8l-5.3-2L339.7,551.4z"/>
		<path id="XMLID_573_" class="st7" d="M352.4,556l2.7,0.8c1,0.3,1.7,0.8,2.1,1.6s0.4,1.6,0.1,2.7l-1.8,6c-0.4,1.2-0.9,2-1.7,2.4
			c-0.8,0.4-1.7,0.4-2.8,0.1l-2.5-0.8L352.4,556z M350.9,567.6l0.8,0.3c0.5,0.2,0.9,0.1,1.2-0.1c0.3-0.2,0.5-0.6,0.7-1.1l1.9-6.2
			c0.2-0.5,0.2-0.9,0-1.3s-0.4-0.6-1-0.8l-0.8-0.3L350.9,567.6z"/>
		<path id="XMLID_576_" class="st7" d="M366.3,559.9l5.6,1.3l-0.4,1.8l-3.7-0.8l-0.9,3.8l3.2,0.7l-0.4,1.8l-3.2-0.7l-0.9,3.8
			l3.7,0.8l-0.4,1.9l-5.6-1.3L366.3,559.9z"/>
		<path id="XMLID_578_" class="st7" d="M379.5,562.5l3,0.5c2.2,0.3,3.1,1.8,2.8,4.4c-0.1,0.8-0.3,1.4-0.7,1.9s-0.8,0.9-1.5,1.1
			l1.1,6.3l-2-0.3l-0.9-5.9l-1.1-0.2l-0.9,5.6l-1.9-0.3L379.5,562.5z M380.5,568.7l1.1,0.2c0.3,0.1,0.6,0,0.8,0
			c0.2-0.1,0.4-0.2,0.5-0.3c0.1-0.2,0.2-0.4,0.3-0.6c0.1-0.2,0.1-0.5,0.2-0.9s0.1-0.6,0.1-0.9c0-0.3,0-0.5-0.1-0.7
			c-0.1-0.2-0.2-0.4-0.4-0.5s-0.5-0.2-0.8-0.3l-1-0.1L380.5,568.7z"/>
		<path id="XMLID_581_" class="st7" d="M393.9,564.4l1.9,0.2l-1.1,13.3l-1.9-0.2L393.9,564.4z"/>
		<path id="XMLID_583_" class="st7" d="M404.1,565l1.8,0l2.8,8.1l0,0l0.1-8l1.9,0l-0.2,13.4l-1.8,0l-2.8-8.1h0l-0.1,8l-1.9,0
			L404.1,565z"/>
		<path id="XMLID_585_" class="st7" d="M419.1,568.1c0-0.5,0-1,0.2-1.4s0.4-0.8,0.7-1.1c0.3-0.3,0.6-0.5,1-0.7
			c0.4-0.2,0.8-0.3,1.1-0.3c0.4,0,0.8,0,1.2,0.1c0.4,0.1,0.7,0.3,1.1,0.5c0.3,0.3,0.6,0.6,0.8,1c0.2,0.4,0.3,0.9,0.4,1.4l0,0.7
			l-1.9,0.1l0-0.7c0-0.5-0.2-0.8-0.4-1c-0.3-0.2-0.6-0.3-0.9-0.3c-0.4,0-0.6,0.1-0.9,0.4c-0.2,0.2-0.4,0.6-0.3,1l0.4,7
			c0,0.5,0.2,0.8,0.4,1s0.6,0.3,0.9,0.3s0.6-0.1,0.9-0.4c0.2-0.2,0.4-0.6,0.3-1l-0.1-2.5l-1.5,0.1l-0.1-1.7l3.4-0.2l0.2,4.2
			c0,0.5,0,1-0.2,1.4c-0.2,0.4-0.4,0.8-0.7,1.1c-0.3,0.3-0.6,0.5-1,0.7c-0.4,0.2-0.8,0.3-1.1,0.3c-0.4,0-0.8,0-1.2-0.1
			s-0.7-0.3-1.1-0.5s-0.6-0.6-0.8-1c-0.2-0.4-0.3-0.9-0.4-1.4L419.1,568.1z"/>
		<path id="XMLID_587_" class="st7" d="M450.2,566l-1.9,0.2l0-0.4c0-0.4-0.2-0.8-0.4-1.1s-0.6-0.4-1.1-0.4c-0.3,0-0.5,0.1-0.6,0.2
			c-0.2,0.1-0.3,0.3-0.3,0.4c-0.1,0.2-0.1,0.4-0.1,0.6c0,0.2,0,0.4,0,0.6c0,0.3,0.1,0.5,0.1,0.7c0,0.2,0.1,0.3,0.2,0.5
			c0.1,0.1,0.2,0.2,0.4,0.3c0.2,0.1,0.4,0.2,0.6,0.2l1.5,0.4c0.4,0.1,0.8,0.3,1.1,0.5s0.5,0.4,0.7,0.7s0.3,0.6,0.4,1
			c0.1,0.4,0.2,0.8,0.2,1.3c0.1,0.6,0.1,1.1,0,1.6c-0.1,0.5-0.2,0.9-0.4,1.3c-0.2,0.4-0.5,0.7-0.9,0.9s-0.9,0.4-1.5,0.5
			c-0.5,0.1-0.9,0-1.3-0.1c-0.4-0.1-0.8-0.3-1.1-0.5c-0.3-0.2-0.6-0.6-0.8-0.9c-0.2-0.4-0.3-0.8-0.4-1.2l-0.1-0.7l1.9-0.2l0.1,0.6
			c0,0.3,0.2,0.6,0.4,0.9s0.6,0.4,1.1,0.3c0.3,0,0.6-0.1,0.7-0.2c0.2-0.1,0.3-0.3,0.4-0.4c0.1-0.2,0.1-0.4,0.1-0.6
			c0-0.3,0-0.5-0.1-0.8c0-0.3-0.1-0.6-0.1-0.9c-0.1-0.2-0.1-0.4-0.2-0.5c-0.1-0.1-0.2-0.2-0.4-0.3s-0.4-0.1-0.6-0.2l-1.4-0.4
			c-0.9-0.2-1.5-0.6-1.8-1.1c-0.3-0.5-0.6-1.2-0.7-2c-0.1-0.5,0-1,0-1.4c0.1-0.5,0.2-0.9,0.5-1.2c0.2-0.4,0.5-0.6,0.9-0.9
			c0.4-0.2,0.9-0.4,1.4-0.5c0.5-0.1,0.9,0,1.3,0.1c0.4,0.1,0.8,0.3,1.1,0.6c0.3,0.3,0.6,0.6,0.8,0.9c0.2,0.3,0.3,0.7,0.3,1.1
			L450.2,566z"/>
		<path id="XMLID_589_" class="st7" d="M457.7,561.2l1.9-0.2l1.7,13.2l-1.9,0.3L457.7,561.2z"/>
		<path id="XMLID_591_" class="st7" d="M467.8,559.8l1.8-0.3l4.1,7.5l0,0l-1.2-8l1.9-0.3l2.1,13.2l-1.8,0.3l-4.1-7.5l0,0l1.2,7.9
			l-1.9,0.3L467.8,559.8z"/>
		<path id="XMLID_593_" class="st7" d="M490.2,566.5c0.1,0.4,0.1,0.8,0,1.2s-0.2,0.8-0.5,1.1c-0.2,0.3-0.5,0.6-0.8,0.8
			c-0.3,0.2-0.7,0.4-1.1,0.5c-0.4,0.1-0.7,0.1-1.1,0.1c-0.4,0-0.8-0.1-1.1-0.3c-0.3-0.2-0.6-0.5-0.9-0.8c-0.3-0.4-0.5-0.8-0.6-1.4
			l-1.3-7.2c-0.1-0.4-0.1-0.8,0-1.2c0.1-0.4,0.2-0.8,0.4-1.1c0.2-0.3,0.5-0.6,0.8-0.8c0.3-0.2,0.7-0.4,1.2-0.5
			c0.4-0.1,0.8-0.1,1.2,0c0.4,0.1,0.8,0.2,1.1,0.5c0.3,0.2,0.6,0.5,0.8,0.9c0.2,0.4,0.4,0.8,0.5,1.2l0.1,0.7l-1.9,0.4l-0.1-0.6
			c-0.1-0.4-0.2-0.7-0.5-0.9c-0.3-0.2-0.6-0.3-0.9-0.2c-0.5,0.1-0.8,0.3-0.9,0.6s-0.1,0.7,0,1.1l1.3,6.7c0.1,0.4,0.2,0.7,0.4,0.9
			c0.2,0.2,0.5,0.3,1,0.2c0.1,0,0.3-0.1,0.4-0.1c0.1-0.1,0.2-0.2,0.3-0.3s0.2-0.3,0.2-0.5c0-0.2,0-0.4,0-0.7l-0.1-0.6l1.9-0.4
			L490.2,566.5z"/>
		<path id="XMLID_595_" class="st7" d="M496,554.7l5.6-1.2l0.4,1.8l-3.7,0.8l0.8,3.8l3.2-0.7l0.4,1.8l-3.2,0.7l0.8,3.8l3.7-0.8
			l0.4,1.9l-5.6,1.2L496,554.7z"/>
		<path id="XMLID_597_" class="st7" d="M521.6,560.2l1.4-7.2c0.1-0.4,0.1-0.7,0-0.9c0-0.2-0.1-0.5-0.2-0.9c0-0.2-0.1-0.3-0.2-0.5
			c-0.1-0.2-0.1-0.3-0.2-0.4c-0.1-0.1-0.2-0.2-0.4-0.3c-0.1-0.1-0.3,0-0.6,0c-0.3,0.1-0.5,0.2-0.6,0.4s-0.1,0.5,0,0.8l0.3,1
			l-1.8,0.5l-0.3-1c-0.1-0.4-0.2-0.8-0.1-1.1c0-0.4,0.2-0.7,0.3-1.1s0.4-0.6,0.7-0.9s0.6-0.4,1-0.5c0.5-0.1,0.9-0.2,1.3-0.1
			c0.4,0.1,0.7,0.2,1.1,0.5c0.3,0.2,0.6,0.5,0.8,0.9c0.2,0.4,0.4,0.7,0.5,1.2c0.1,0.3,0.2,0.6,0.2,0.8s0.1,0.4,0.1,0.6
			c0,0.2,0,0.4,0,0.6s-0.1,0.5-0.1,0.8l-1.1,6l3.3-1l0.5,1.8l-5.5,1.6L521.6,560.2z"/>
		<path id="XMLID_599_" class="st7" d="M532.2,547.7c-0.2-0.4-0.2-0.8-0.2-1.2c0-0.4,0.1-0.7,0.3-1.1c0.2-0.3,0.4-0.6,0.7-0.8
			c0.3-0.2,0.6-0.4,1-0.5c0.4-0.1,0.7-0.2,1.1-0.2c0.4,0,0.7,0.1,1,0.2s0.6,0.4,0.9,0.6s0.5,0.6,0.6,1.1l2.6,7.4
			c0.2,0.4,0.2,0.8,0.2,1.2c0,0.4-0.1,0.7-0.3,1.1c-0.2,0.3-0.4,0.6-0.7,0.8c-0.3,0.2-0.6,0.4-1,0.5s-0.7,0.2-1.1,0.2
			c-0.4,0-0.7-0.1-1-0.2c-0.3-0.1-0.6-0.4-0.9-0.6c-0.3-0.3-0.5-0.6-0.6-1.1L532.2,547.7z M536.6,554.4c0.1,0.3,0.3,0.4,0.5,0.6
			c0.2,0.1,0.5,0.1,0.7,0c0.3-0.1,0.4-0.3,0.5-0.5c0.1-0.2,0.1-0.5,0-0.7l-2.6-7.4c-0.1-0.3-0.3-0.4-0.5-0.6c-0.2-0.1-0.5-0.1-0.7,0
			c-0.3,0.1-0.4,0.3-0.5,0.5s-0.1,0.5,0,0.7L536.6,554.4z"/>
		<path id="XMLID_602_" class="st7" d="M545,542.9c-0.2-0.4-0.3-0.8-0.3-1.2c0-0.4,0.1-0.7,0.2-1.1s0.3-0.6,0.6-0.9
			c0.3-0.3,0.6-0.5,0.9-0.6c0.3-0.1,0.7-0.2,1.1-0.2c0.4,0,0.7,0,1.1,0.2c0.3,0.1,0.7,0.3,0.9,0.6c0.3,0.3,0.5,0.6,0.7,1l3.1,7.2
			c0.2,0.4,0.3,0.8,0.3,1.2c0,0.4-0.1,0.7-0.2,1.1c-0.1,0.3-0.3,0.6-0.6,0.9c-0.3,0.3-0.6,0.5-0.9,0.6c-0.3,0.1-0.7,0.2-1.1,0.2
			c-0.4,0-0.7,0-1.1-0.2c-0.3-0.1-0.7-0.3-0.9-0.6c-0.3-0.3-0.5-0.6-0.7-1L545,542.9z M549.8,549.3c0.1,0.3,0.3,0.4,0.5,0.5
			c0.2,0.1,0.5,0.1,0.7,0c0.3-0.1,0.4-0.3,0.5-0.5c0.1-0.2,0.1-0.5,0-0.7l-3.1-7.2c-0.1-0.3-0.3-0.4-0.5-0.5c-0.2-0.1-0.5-0.1-0.7,0
			c-0.3,0.1-0.4,0.3-0.5,0.5c-0.1,0.2-0.1,0.5,0,0.7L549.8,549.3z"/>
		<path id="XMLID_605_" class="st7" d="M560.8,538.8c0.5-0.3,0.8-0.5,1-0.7c0.1-0.2,0.1-0.6-0.1-1l-0.8-1.5
			c-0.1-0.2-0.3-0.4-0.5-0.5c-0.2-0.1-0.5-0.1-0.7,0.1c-0.3,0.2-0.5,0.4-0.5,0.6s0,0.5,0.1,0.6l0.5,1l-1.7,0.9l-0.5-1
			c-0.2-0.3-0.3-0.7-0.3-1.1s0-0.7,0.1-1.1c0.1-0.3,0.3-0.7,0.5-1c0.2-0.3,0.5-0.5,0.9-0.7c0.5-0.2,0.9-0.3,1.3-0.3
			c0.4,0,0.7,0.1,1,0.2c0.2,0.1,0.3,0.2,0.5,0.3s0.3,0.2,0.4,0.4c0.1,0.2,0.3,0.4,0.5,0.6s0.3,0.6,0.5,0.9c0.2,0.4,0.4,0.8,0.5,1
			c0.1,0.3,0.2,0.5,0.2,0.7s0,0.4-0.1,0.6c-0.1,0.2-0.2,0.4-0.4,0.7c0.4,0,0.6,0.1,0.8,0.2c0.2,0.1,0.4,0.2,0.6,0.4
			c0.2,0.2,0.3,0.4,0.5,0.6s0.3,0.6,0.5,1c0.2,0.4,0.4,0.7,0.5,1c0.1,0.3,0.2,0.5,0.3,0.7s0.1,0.4,0.1,0.5c0,0.2,0,0.3,0,0.5
			c-0.1,0.4-0.2,0.8-0.4,1.2c-0.2,0.4-0.6,0.7-1.1,1c-0.3,0.1-0.6,0.2-0.9,0.3c-0.3,0.1-0.7,0.1-1,0c-0.3-0.1-0.7-0.2-1-0.5
			c-0.3-0.2-0.6-0.6-0.8-1.1l-0.5-1l1.7-0.9l0.5,0.9c0.1,0.3,0.3,0.4,0.6,0.5c0.2,0.1,0.5,0.1,0.7-0.1c0.3-0.1,0.4-0.3,0.5-0.6
			c0.1-0.2,0-0.5-0.1-0.8l-0.9-1.7c-0.1-0.2-0.2-0.4-0.3-0.5s-0.2-0.2-0.4-0.2c-0.1,0-0.3,0-0.5,0c-0.2,0.1-0.4,0.2-0.7,0.3
			L560.8,538.8z"/>
	</g>
	<g id="XMLID_3_">
		<path id="XMLID_433_" class="st5" d="M354.2,191.3l-172.1-30c-11.2,17.3-20.4,35.9-27.3,55.5c-1.4,3.9-2.6,7.8-3.8,11.7
			c-0.9,3-1.7,6-2.5,9c-5.5,21-8.4,42.9-8.4,65.4c0,51.4,15.1,99.5,41.3,140.5l174.5-36.4c48.9-10.2,99.8-10.2,148.7,0l169.3,35.3
			c25.8-40.8,40.6-88.4,40.6-139.4c0-51.8-15.3-100.2-41.9-141.4l-166.4,29.5C456,200,404.4,200.1,354.2,191.3z"/>
		<path id="XMLID_354_" class="st7" d="M226.2,184c0.6,0,1.3,0.7,2.2,2.2v35.6c0,0.6-0.7,1.3-2.2,2.1h-43v48.4h36.6
			c0.6,0,1.3,0.7,2.1,2.1v35.1c0,0.6-0.7,1.3-2.1,2.1h-36.6v48.4h43c0.6,0,1.3,0.7,2.2,2.1v35.7c0,0.5-0.7,1.2-2.2,2.1h-79.8
			c-2.4,0-3.7-1.6-3.7-4.7V188.9c0-3.2,1.3-4.9,3.7-4.9H226.2z M157.1,204.3l-1-1.6c0-0.7,1-1,3.2-1v-0.5h-3.8c-0.7,0.1-1,0.5-1,1
			s0.7,1.3,2.2,2.1H157.1z M154.5,219.2v1h0.6v-1H154.5z M154.5,245.2c0.7,0.9,1,1.8,1,2.7h0.6v-2.7c0-0.6-0.6-1-1.6-1.5V245.2z
			 M154.5,258.5v1.6h0.6v-1.6H154.5z M154.5,351.1v4.3h0.6c0-2.2,0.1-3.5,0.5-3.8L154.5,351.1z M154.5,355.8v1h0.6v-1H154.5z
			 M154.5,358v1.5c0.7,0,1-0.3,1-1L154.5,358z M154.5,367v2.7c0.9,0,2.5,0.3,4.9,1v3.2c-1.5,0-2.2,0.9-2.2,2.7
			c1.5,0.5,2.2,0.9,2.2,1.5c-0.9,1.7-2.5,2.7-4.9,2.7v7.5h1c0.7,0,2.1-0.6,4.3-1.6v-0.6c-3.1,0-4.7-0.3-4.7-1c1.4,0,2.3-1.3,2.7-3.7
			l3.1,0.6c2.2-1.5,3.2-2.3,3.2-2.7l1.6-2.7c-4.3-3.2-6.4-5.8-6.4-7.5v-0.5h-3.2c-0.7,0-1-0.6-1-1.6H154.5z M155.5,275v1.6h0.6V275
			H155.5z M156.1,232.5v0.6c0.3,0.8,0.6,1.3,0.6,1.5l1-0.5c-0.3-0.8-0.6-1.3-0.6-1.6H156.1z M157.7,267.6c0,0.8-0.6,1.8-1.6,3.1
			c0,0.5,0.6,1,1.6,1.6h0.5c0-1,0.3-1.8,1.2-2.7v-2.1H157.7z M158.2,365.4v-1.6c-0.3,0-0.9,0.6-1.5,1.6H158.2z M158.2,274h1.2
			c0-0.7-0.3-1-1.2-1V274z M159.3,345.7l-0.6,1l2.1,1c0-0.8,0.2-1.5,0.6-2.1H159.3z M159.8,255.8v0.6l1,1.6v1h-1.5
			c0.1,0.7,0.5,1,1,1h0.5l0.6-2.7c-0.3-0.8-0.6-1.3-0.6-1.6H159.8z M159.3,373.9h0.5c0.7,0.1,1,0.5,1,1l-1,0.5l-0.5-1V373.9z
			 M160.8,377.1v1.6c-0.7,0-1-0.3-1-1L160.8,377.1z M162,249.4c0,0.7-0.6,1-1.6,1v0.6c0.1,0.7,0.5,1,1,1l1.6-2.1L162,249.4z
			 M160.8,277.7v1h0.6v-1H160.8z M160.8,353.7v1.6h1.2c-0.3-0.9-0.6-1.5-0.6-1.6H160.8z M161.4,247.4c0.3,0.8,0.6,1.3,0.6,1.6h0.5
			v-1.6H161.4z M162,330.8l0.5,1v1l-1,1.6v1c1-0.2,1.6-1.6,1.6-4.2v-1.2L162,330.8z M162.4,368c0.1,0.7,0.5,1,1,1h1.2
			c0-0.7-0.3-1-1.2-1H162.4z M166.1,383c0,0.8-0.7,1.5-2.1,2.1c0,0.5-0.6,1-1.6,1.6c0.3,0.8,0.6,1.3,0.6,1.6h1l1.6-1
			c0.6,0.3,1.2,0.5,1.6,0.5c0-0.3,0.1-0.5,0.5-0.5l-0.5-2.7V383H166.1z M165.1,360.7h-0.5v0.5c1,0,1.5,0.3,1.5,1v1.2
			c0,1-1,1.5-3.1,1.5v0.6c0.6,0,1.3,0.3,2.1,1h0.6c1,0,1.8-2.1,2.7-6.4c-0.9,0.7-1.6,1-2.2,1L165.1,360.7z M163,361.1v0.6h1v-0.6
			H163z M166.7,252.1c0,1.7-0.9,2.7-2.7,2.7v1l0.6,5.3h0.5c0-1,0.6-1.5,1.6-1.5h1.6c0-1,0.3-1.6,1-1.6c-0.3-0.8-0.6-1.3-0.6-1.6
			l-1,0.6c-0.7,0-1-0.3-1-1.2c0.1-0.7,0.5-1,1-1l1,0.6v-0.6c-1-1-1.5-2-1.5-2.7H166.7z M164.1,342v0.5c0.1,0.7,0.5,1,1,1h0.6v-0.5
			c0-0.7-0.3-1-1-1H164.1z M164.1,383h1c0-0.7-0.3-1-1-1V383z M165.1,230.4v1c0.7,0,1-0.3,1-1H165.1z M166.1,197.3v1.6h0.6v-1.6
			H166.1z M167.8,225.5v-2.1c-0.5,0-1,0.7-1.6,2.1H167.8z M167.3,242.1c0,0.7-0.3,1-1.2,1v0.6h1.2l0.5-1.2v-0.5H167.3z M166.1,370.7
			v1c0.6,0,1.8,1,3.8,3.2h0.5v-0.6c-0.8-1-1.3-2.3-1.6-3.7l-1,0.6h-0.5L166.1,370.7z M166.7,204.8h1.6c0.6,0,1-0.7,1.6-2.2h-0.6
			c-1.3,1-2.1,1.6-2.7,1.6V204.8z M166.7,228.8v1.6h0.6v-1.6H166.7z M167.8,246.3v0.5h1v-0.5H167.8z M170.4,272.9
			c0,0.5-0.6,1.4-1.6,2.7c-0.3,0.6-0.5,1.2-0.5,1.5c0.3,0.6,0.5,1.3,0.5,2.2c-0.7,0.1-1,0.5-1,1v0.6c0.1,0.7,0.5,1,1,1l2.7-9H170.4z
			 M168.3,200.6v1h0.5v-1H168.3z M168.8,207.5v0.5h1.6v-0.5H168.8z M168.8,386.7c2.4,1,5.1,1.6,8,1.6h0.6v-1c-1.2,0-2.1-0.2-2.7-0.6
			l-3.2,0.6c0-0.6-0.7-1-2.1-1.6L168.8,386.7z M170,234.5l-0.6,1.2v1h1c0.7,0,1-0.3,1-1L170,234.5z M169.4,244.7v1h0.6
			c0.7,0,1-0.3,1-1H169.4z M169.4,284.6v2.1l1-0.5c-0.3-0.7-0.5-1.3-0.5-1.6H169.4z M170,232.5c0.1,0.7,0.5,1,1,1h0.5v-1H170z
			 M170.4,237.2v1.2h0.6v-1.2H170.4z M171.5,266v-1.6c-0.7,0.1-1,0.5-1,1L171.5,266z M171,371.3c0,0.7,0.6,1,1.6,1h1v-0.6L171,371.3
			z M171,380.3v1h0.5v-1H171z M171.5,379.3l2.2-0.6c2.4,0,3.7,1.3,3.7,3.7h0.6v-1c-0.8-1-1.2-2-1.2-2.7c0.9-0.3,1.5-0.6,1.6-0.6
			v-1.5c-0.8,0-1.5-0.2-2.1-0.6c0,1.4-1.6,2.1-4.9,2.1V379.3z M171.5,381.9v1.5h0.6v-1.5H171.5z M175.7,200.6v0.6h1v-0.6H175.7z
			 M179.4,205.3c-0.7-0.8-1-1.7-1-2.7c-0.7,0.1-1,0.5-1,1.2c1,1.7,1.7,2.7,2.1,2.7V205.3z M179,200c1.4,0,2.1,0.6,2.1,1.6v0.6h1
			c0.5,0,1-0.6,1.6-1.6c-1,0-2.1-0.6-3.1-1.6c-0.9,0.3-1.5,0.6-1.6,0.6V200z M179,375.4v1.2h1v-1.2H179z M179.4,379.7v2.7h1.2
			c0.7,0,1-0.3,1-1c-1,0-1.6-0.6-1.6-1.6H179.4z M180,206.9v1h0.6v-1H180z M182.1,388.3h0.6c0.8-0.3,1.3-0.6,1.6-0.6v-0.5h-0.6
			c-0.6,0.3-1.2,0.5-1.6,0.5V388.3z M183.2,206.4v1h1v-1H183.2z M184.7,198.9v1h0.6v-1H184.7z M187.4,388.3c0-0.7-0.3-2.1-1-4.3
			c-0.8,0.3-1.3,0.6-1.6,0.6c1,1.7,1.6,3,1.6,3.7H187.4z M185.3,209.6v0.6c0.1,0.7,0.5,1,1,1v-1.6H185.3z M188.6,374.4v1h0.5v-1
			H188.6z M189,371.7v2.2h0.6c0-0.5,0.1-1,0.5-1.6L189,371.7z M190.1,377.6v0.5h1.2v-0.5H190.1z M191.7,198.5v1.5h0.6v-1.5H191.7z
			 M192.7,294.2v1c0.8,0,1.2-0.3,1.2-1H192.7z M194.9,195.8v1c0.8-0.3,1.3-0.6,1.6-0.6v-0.5H194.9z M198,292v1h2.2v-0.5L198,292z
			 M198.6,212.2h1v-1.6c-0.7,0.1-1,0.5-1,1.2V212.2z M198.6,384.6v0.5c0.3,0,0.8,0.2,1.6,0.6h0.5V385c-0.3,0-0.9-0.1-1.5-0.5H198.6z
			 M207.6,379.7v-1c-0.7,0.1-1,0.5-1,1H207.6z M208.7,285.6v1h0.6c0.6-0.3,1.2-0.5,1.6-0.5v-0.6H208.7z M211.3,376v0.6h1.6V376
			H211.3z M211.3,378.1v0.6c0.3,0.6,0.6,1.3,0.6,2.1h0.6v-1c-0.3-0.8-0.6-1.3-0.6-1.6H211.3z M211.9,386.7v1h1v-1H211.9z M213,382.4
			v1h0.6v-1H213z"/>
		<path id="XMLID_298_" class="st7" d="M292.3,201.7c0.5,0,1.1,0.6,1.9,2v19.5c0,0.9,0.2,1.5,0.5,1.5l-0.5,2.4v146.6
			c0,0.7,0.2,1.5,0.5,2c-0.3,0.5-0.5,1.1-0.5,1.9v16.3c0,0.4-0.6,1-1.9,1.9h-30.6c-2.2,0-3.3-1.5-3.3-4.3V206.1
			c0-2.9,1.1-4.4,3.3-4.4H292.3z M269.4,233.3c0,0.7-0.2,1.3-0.5,1.9h0.9v-1.9H269.4z M268.9,250l0.9,1.5v0.4l-0.9,1.5v0.5
			c1.1-0.9,1.9-1.5,2.4-1.5c-0.3-2-1-2.9-2.4-2.9V250z M268.9,271.5v0.9h0.5v-0.9H268.9z M269.8,237.1c0,0.3-0.1,0.8-0.4,1.5
			l1.9,2.4h0.5c0.6,0,0.9-0.3,0.9-1c-1.2-1.2-1.9-2.2-1.9-2.8H269.8z M269.4,258.6c0.3,0.5,0.4,1,0.4,1.5h0.5v-1
			c-0.3,0-0.5-0.1-0.5-0.4c0.8-0.3,1.4-0.5,1.5-0.5c0.5,0.3,1.2,0.5,2.4,0.5l0.9-1.5v-0.9h-0.4c-2.9,1.1-4.4,1.9-4.4,2.4H269.4z
			 M270.3,267.6c0,0.8-0.3,1.7-0.9,2.4h0.9c0.4,0,0.9-0.5,1.5-1.5L270.3,267.6z M270.9,214.2v0.5h0.9v-0.5H270.9z M271.3,225.2
			c0,1.1-0.1,1.9-0.4,2.4h0.9c0-1.1,0.1-1.9,0.4-2.4H271.3z M270.9,255.3h0.4l2.4-2c0.9,1.6,1.7,2.4,2,2.4h1.4
			c0-0.1,0.2-0.6,0.5-1.5c-0.4,0-1.6-0.8-3.3-2.4c-0.5,0-1.1,0.6-2,2c-0.5,0.3-1,0.4-1.3,0.4V255.3z M270.9,343.1v0.5
			c0.5,0,1.1,0.3,1.9,0.9l0.5-0.9c-0.7,0-1.5-0.2-2-0.5H270.9z M271.8,272c0.1,0.6,0.4,0.9,0.9,0.9V272H271.8z M272.2,350.8
			c0,0.3-0.1,0.8-0.4,1.3h0.9v-1.3H272.2z M272.2,321.1v1l1,0.4h0.4v-0.4c-0.6,0-0.9-0.3-0.9-1H272.2z M273.2,235.1
			c0,1.6-0.2,2.4-0.5,2.4c0.3,0.5,0.5,1.2,0.5,2l2.4-0.5v1.5c-1,0-1.7,2.2-2,6.6c-0.6,0.1-0.9,0.4-0.9,1c0.6,0,0.9,1.1,0.9,3.3
			c0.6,0,0.9-0.3,0.9-0.9c-0.3-0.6-0.4-1.1-0.4-1.5c0.7-0.3,1.1-0.5,1.5-0.5l-0.5-0.9v-1.5c0.1-0.6,0.4-0.9,0.9-0.9
			c0.1,0.6,0.4,0.9,0.9,0.9h0.5l-0.5-2.4c0-0.7,0.2-1.3,0.5-1.9c-0.5-1.9-1.8-3.4-3.8-4.8v-2H273.2z M272.7,336.4
			c0.1,0.6,0.4,0.9,0.9,0.9v-0.5c0-0.6-0.3-0.9-0.9-0.9V336.4z M273.7,226.6v0.4h0.9v-0.4H273.7z M273.7,231.4h0.9
			c0-0.7-0.3-1-0.9-1V231.4z M274.2,276.2v0.5h0.9v-0.5H274.2z M274.6,243.7h1v0.5h-1V243.7z M274.6,262.4c0.7,0.9,1,1.8,1,2.4h0.4
			l-0.4-2.9L274.6,262.4z M276.6,232.7c-0.9,2-1.5,3.1-1.5,3.4h0.5l1.4-1c0.1,0.7,0.4,1,1,1l-0.5-3.4H276.6z M277.5,332.1
			c-1.6,0.4-2.4,0.9-2.4,1.5c0.5,0,1.1,0.3,1.9,0.9L277.5,332.1z M276.6,228c0.6,0,0.9-0.3,0.9-0.9v-0.9c-0.6,0.1-0.9,0.4-0.9,0.9
			V228z M276.6,340.2v2.9c0.1,0.6,0.4,0.9,0.9,0.9l0.9-2.4c-0.9,0-1.5-0.5-1.5-1.5H276.6z M277,336.4c0.1,0.6,0.5,0.9,1,0.9v-0.9
			H277z M277.5,352.1v1h0.5v-1H277.5z M278,278.6v0.5h0.9v-0.5H278z M278,281.5h1.4v-1c-0.7,0.3-1.1,0.5-1.4,0.5V281.5z
			 M278.4,238.6v0.4c0.9,1.1,1.5,1.9,1.5,2.4h0.5c0-0.9,0.3-1.5,0.9-1.5c-0.3-1.6-1.1-2.4-2.4-2.4L278.4,238.6z M279.4,275.3
			c0,0.5-0.3,1.1-0.9,1.9h2.4c-0.6-0.7-0.9-1.3-0.9-1.9H279.4z M278.4,305.4v0.4h2v-0.4H278.4z M278.9,213.2v0.9h0.9v-0.9H278.9z
			 M278.9,221.3v0.5h0.9v-0.5H278.9z M280.4,251.4c0.7,2.2,1.6,3.3,2.4,3.3v1.5h-1l-0.9-0.5c0,0.6-0.3,0.9-0.9,0.9l-0.9-0.4v2.8
			c0.1,0,0.6,0.2,1.5,0.5c0-0.9,0.3-1.5,0.9-1.5h1.5c0-0.6,0.4-0.9,1.3-0.9v-2.4c-1.6,0-2.4-0.5-2.4-1.5c0-0.6,0.6-0.9,2-0.9v-0.5
			L280.4,251.4z M278.9,252.9v0.9h0.4v-0.9H278.9z M279.9,268.1v0.9h-0.9v0.9c0.7-0.6,1.4-0.9,1.9-0.9c0.7,0.3,1.1,0.5,1.5,0.5v-2
			c-1.2,0-1.9-0.5-1.9-1.5c-0.8,0.3-1.3,0.5-1.5,0.5L279.9,268.1z M280.4,284.3c0,0.6-0.5,0.9-1.5,0.9c0.1,0.7,0.4,1,0.9,1h0.5
			c0-0.4,0.1-0.9,0.4-1.5v-0.5H280.4z M279.4,261.9v0.5h1v-0.5H279.4z M280.8,280.5c1.5-0.5,2.4-1.3,2.9-2.4h-0.5
			c-2.2,1.2-3.3,2.1-3.3,2.4H280.8z M282.8,339.8c0.6,1.6,0.9,2.6,0.9,3.3h0.4v-2.4c0-0.9-1.5-1.6-4.3-1.9c0.3,0.7,0.5,1.1,0.5,1.3
			L282.8,339.8z M280.4,381.8v0.9h0.4v-0.9H280.4z M280.8,260v0.4c0,0.4,0.9,1,2.9,2h0.4V261c-0.4,0-1-0.3-1.9-0.9H280.8z
			 M280.8,263.4v1.5h0.5v-1.5H280.8z M280.8,351.2v0.5h0.9v-0.5H280.8z M281.3,225.2v0.4h1.5v-0.4H281.3z M281.3,272.4
			c0.3,0.5,0.4,1,0.4,1.5h1c0-0.7,0.1-1.3,0.4-1.9h-0.9L281.3,272.4z M281.3,290v0.5h0.9V290H281.3z M281.7,363.6h1
			c0-0.9,0.4-1.5,1.3-1.5v-0.5c-0.4,0-1-0.3-1.9-0.9c0,0.9-0.3,1.5-0.9,1.5C281.6,362.7,281.7,363.2,281.7,363.6z M281.7,246.1
			c0.7,0.7,1,1.8,1,3.3h0.4c0-0.5,0.3-1.1,0.9-1.9v-1.5H281.7z M281.7,284.3v0.9h0.5v-0.9H281.7z M283.2,239c0,0.4-0.1,0.9-0.4,1.5
			l0.9,0.5l0.4-1V239H283.2z M283.2,218.9v1.5h0.5v-1.5H283.2z M283.2,329.3h0.9c0-0.7-0.3-1-0.9-1V329.3z M283.7,274.4v1.3h0.4
			v-1.3H283.7z"/>
		<path id="XMLID_215_" class="st7" d="M357.9,204.3c18.4,0,30.1,4.5,35.3,13.6c4.5,5.4,6.8,14.8,6.8,28.5v26.2
			c0,16-5.9,26.7-17.7,32.1v0.4c14.4,41.8,23.3,64.8,26.7,76.7c-0.5,1.5,0.7,2.9-0.9,2.9l-34,3.2c-1.4,0-4.4-9-9-27.1
			c-0.3-0.1-2.9-9.5-8.1-28.5h-0.5v52.5c0,2.1-1.1,3.1-3.1,3.1h-27.6c-2.1,0-3.1-1.1-3.1-3.1V207.5c0-2.2,1.1-3.2,3.1-3.2H357.9z
			 M336.2,220.1c-0.5-0.3-1.1-0.4-1.8-0.4c0,1.2-0.8,1.8-2.3,1.8v1.9c0.5,0,1.6-0.9,3.1-2.8h0.4l1.4,0.9l0.9-0.4
			c-0.3-0.5-0.4-1.1-0.4-1.9L336.2,220.1z M332.6,267.2v0.4h0.9v-0.4H332.6z M333.1,219.7h0.9c0-0.6-0.3-0.9-0.9-0.9V219.7z
			 M333.5,225.1v0.9c1.1,0,2.5,0.3,4.1,0.9v-0.4l-0.9-1.4l-1,0.5h-1.3L333.5,225.1z M333.5,356.3h1.9v-0.5c-0.4,0-0.9-0.1-1.4-0.4
			L333.5,356.3z M335.3,311.5c0.6,0,0.9-0.3,0.9-1c0-0.6-0.3-0.9-0.9-0.9c0,0.5-0.3,1.1-0.9,1.9H335.3z M337.1,322.8h0.9
			c0-0.7-0.3-1-0.9-1V322.8z M337.6,311v0.5c0.3,0.5,0.4,1,0.4,1.3h0.5v-1.3L337.6,311z M338,376.1c0.6-0.3,1.1-0.4,1.4-0.4v-0.9
			c-0.5,0.3-1,0.4-1.4,0.4V376.1z M339,215.6v1.4h1.3v-1.4H339z M339,296.6v0.4h0.9v-0.4H339z M339,366.2v0.5c0,0.5,0.4,0.9,1.3,1.4
			h1c0.6,0,0.9-0.3,0.9-1c-1.1,0-2.1-0.3-2.8-0.9H339z M339.4,370.7c0.1,0.6,0.4,0.9,0.9,0.9h1v-0.9H339.4z M341.2,227.4v-0.9h-0.5
			c-0.6,0.1-0.9,0.4-0.9,0.9H341.2z M339.9,233.3h0.4c0.4,0,1-0.9,1.9-2.8v-0.9c-0.9,1.2-1.6,1.8-2.3,1.8V233.3z M344.8,214.3
			l0.5,0.9c-1.1,1.8-1.8,2.7-2.3,2.7l-2.8-0.4v0.4c0.6,0,1.8,0.8,3.6,2.3h0.9l-0.4-2.3c1.6-0.6,2.8-0.9,3.6-0.9v0.9
			c0.6,0,0.9-0.3,0.9-0.9H348v-1.8l0.4-0.9H347v1.3c-0.6,0-0.9-0.4-0.9-1.3H344.8z M340.3,259.5v0.4h1v-0.4H340.3z M341.2,363.5v-1
			c-0.7,0.1-1,0.4-1,1H341.2z M340.7,298.8v0.9h0.5v-0.9H340.7z M341.2,221.1v0.4c0.2,0,0.6,0.2,1.3,0.5v-0.9H341.2z M341.6,224.2
			v0.9l0.9,1.4v0.4l-0.9,1.4l0.9,0.5l1.4-2.3c-0.9-1.1-1.4-1.8-1.4-2.3H341.6z M342.1,234.7l0.4,2.7c0.7,0,1-0.3,1-0.9
			c-0.7,0-1-0.3-1-0.9l0.5-0.9H342.1z M342.5,279.9v0.4h1.9v-0.4H342.5z M345.3,351.7v-0.5c0-0.5-0.5-0.9-1.4-1.3
			c0,0.7-0.1,1.3-0.4,1.8H345.3z M343.5,369.8v0.5h1.8v-1c-0.4,0-0.9-0.1-1.4-0.4L343.5,369.8z M348.4,219.7c0,1.2-1.2,1.8-3.6,1.8
			v1.4l1.9-1.4h2.3c0.3-0.5,0.4-1,0.4-1.4L348.4,219.7z M344.8,223.7v0.9c0.9,0,1.4,0.5,1.4,1.4c0.4,0,1.2-0.8,2.3-2.3H344.8z
			 M346.1,375.7c0.6,0,0.9-0.3,0.9-0.9v-1c-0.4,0-1-0.3-1.8-0.9c0,0.3-0.2,0.7-0.5,1.4C345.7,374.3,346.1,374.8,346.1,375.7z
			 M345.3,231.9v0.9h0.5v-0.9H345.3z M345.3,235.9v1c0.6,0,0.9-0.3,0.9-1H345.3z M345.3,239.2v0.4h1.4v-0.4H345.3z M345.3,357.6v0.9
			h1.4c0-0.6-0.3-0.9-0.9-0.9H345.3z M346.1,363.9v0.5h0.9v-0.5H346.1z M346.1,370.7v0.5h0.9v-0.5H346.1z M350.3,219.2h0.9v-0.4
			c0-0.7-0.3-1-0.9-1V219.2z M352.9,216.1v-0.9H352c-0.6,0.1-0.9,0.4-0.9,0.9H352.9z M351.6,224.6l3.2-0.4l0.4,0.9l-1.8,1.8
			c0.9,0,1.4,0.5,1.4,1.4h1.3c0-1.2,0.2-1.8,0.5-1.8c-1.1-3-2-4.5-2.8-4.5c0,1.2-0.8,2-2.3,2.3V224.6z M352,219.7v1.4h0.5v-1.4H352z
			 M354.3,235.9v45.7h3.1c7.3,0,10.9-3.4,10.9-10.4v-24.9c0-7-2.5-10.4-7.3-10.4H354.3z M354.3,314.7v0.9h0.5v-0.9H354.3z
			 M355.7,219.2c0.3,0.5,0.4,1,0.4,1.4c0.7,0,1-0.3,1-0.9l-1-0.5H355.7z M356.1,214.3c0.7,0.7,1,1.6,1,2.7h0.4
			c0-0.9,0.5-1.4,1.4-1.4v-0.4c0-0.6-0.3-0.9-0.9-0.9H356.1z M357.9,219.7c0.3,0.5,0.4,1.2,0.4,2.3h1v-2.3l0.9-1.4v-0.5L357.9,219.7
			z M357.9,223.7v1.4c0.6,0,0.9-0.3,0.9-0.9v-0.5H357.9z M360.6,226.5h0.5c0-0.9,0.6-1.4,1.8-1.4v-0.9c-1.5,0.3-2.3,0.9-2.3,1.8
			V226.5z M362.9,227.4v0.5h1.4v-0.5H362.9z M363.8,214.7v0.5l2.3,0.4v-0.9H363.8z M364.2,220.1v0.5h1.9v-0.5H364.2z M367,305.6v1.4
			l1.4,0.9v-0.5c-0.7-0.7-1-1.3-1-1.8H367z M367,320.1v1.4h0.4v-1.4H367z M368.8,217.8c0.1,0.7,0.4,1,0.9,1l0.5-1H368.8z
			 M372.4,348.1h1.4c0.6,0,0.9-0.3,0.9-0.9s-0.3-0.9-0.9-0.9L372.4,348.1z M373.3,231.9v0.9h0.5v-0.9H373.3z M373.3,330v0.5
			c0.3,0.7,0.5,1.1,0.5,1.4h0.4V330H373.3z M373.8,344.5h0.9c0-0.6-0.3-0.9-0.9-0.9V344.5z M379.2,347.2c-0.3,1.9-0.7,2.8-1.4,2.8
			c-0.3-0.6-0.4-1.1-0.4-1.4h-1c0,1.2-0.4,1.8-1.3,1.8c0.3,1.3,0.7,2.3,1.3,3.1c0,0.7-0.3,1-0.9,1c0.3,0.7,0.5,1.1,0.5,1.3v1.4
			c0.6,0,0.9,0.8,0.9,2.3h0.5v-2.3l-0.5-1.8l1.4-1.4l-0.5-0.9v-0.9c0.7,0,1.7-0.5,3.1-1.4v-0.5h-1.3v-3.1H379.2z M376.9,339.9
			c0,0.3-0.2,0.7-0.5,1.4c0.6-0.3,1.1-0.4,1.4-0.4v-1H376.9z M377.8,359.9c0,1.8-0.5,2.7-1.4,2.7v1h1c0.7-0.7,1.4-1,2.3-1v-0.4
			c-0.7-0.7-1-1.5-1-2.3H377.8z M376.9,221.5v1.4h0.5v-1.4H376.9z M377.4,343.2v0.4h0.9v-0.4H377.4z M380.9,358l-0.4,2.3
			c0.9,0,1.4,0.3,1.4,1v1.3c0,0.7-0.3,1-1,1h-0.4l-0.9-0.5c0,1.5-0.8,2.3-2.3,2.3v1.4h1.3c0-0.9,0.3-1.4,1-1.4l2.3,0.9h0.4v-0.4
			h-0.9v-0.5c0-0.6,0.5-0.9,1.4-0.9l-0.5-0.9V363l0.5-2.3c-0.6,0-0.9-0.3-0.9-0.9c0-0.3,0.1-0.5,0.4-0.5c-0.3-0.5-0.4-1-0.4-1.4
			H380.9z M379.2,368.4v0.9h0.5v-0.9H379.2z M380.9,367.1c0.3,0.5,0.5,1.5,0.5,2.8h0.5v-3.1L380.9,367.1z M381.4,265.8v0.5h0.9v-0.5
			H381.4z M382.8,255v0.4h1.8V255H382.8z M382.8,353.1c0.1,0.7,1,1.6,2.7,2.7h0.5V354c-0.7,0-1.5-0.3-2.3-0.9H382.8z M384.2,363.5
			c0,0.2-0.2,0.6-0.5,1.3h0.5c0.6,0,0.9-0.3,0.9-0.9L384.2,363.5z M383.7,367.6v1.4c0.6,0,0.9-0.3,0.9-0.9v-0.5H383.7z M384.2,243.7
			v0.4h1.3v-0.4H384.2z M386,349.5l-0.5,2.3l1.4,0.9l-0.4-3.1H386z M386,363.5v0.9h0.5v-0.9H386z M387.7,358l-1.3,1.9v0.4h1.3
			c0-1,0.2-1.8,0.5-2.3H387.7z M386.5,365.8v1.3h0.9c-0.3-0.7-0.5-1.1-0.5-1.3H386.5z M386.8,372.1c0,0.4-0.1,0.9-0.4,1.4h0.9v-1.4
			H386.8z M386.8,368.4c0.1,0.6,0.4,0.9,0.9,0.9v-0.9H386.8z M388.2,362.2c0,1.1-0.3,2-0.9,2.7l2.7,1.9v-0.9l-1.3-1.9l0.9-1.8H388.2
			z M387.7,375.7v0.9h1v-0.9H387.7z M388.2,267.6v1h0.5v-1H388.2z M389.1,368.4v2.8h0.9c0-1.3,0.2-2.3,0.5-2.8H389.1z M390.5,371.6
			l-0.5,2.3c0.8-0.6,1.4-0.9,1.9-0.9c-0.3-0.7-0.5-1.1-0.5-1.4H390.5z M394.1,375.7c0,0.7-0.3,1.5-0.9,2.3h0.4
			c1.3-0.3,1.9-0.6,1.9-0.9c-0.3-0.8-0.5-1.3-0.5-1.4H394.1z"/>
		<path id="XMLID_137_" class="st7" d="M460,212.5c17.1,0,27.9,4.1,32.5,12.1c4.4,6.1,6.7,14.4,6.7,25v26.2c0,9-2.6,16.1-8,21.2
			c5.3,5.1,8,12.1,8,21.3v26.2c0,18.3-6.7,29.9-20,34.9c-3.9,1.4-11.7,2.1-23.3,2.1h-27c-1.9,0-2.9-1-2.9-2.9V215.5c0-2,1-3,2.9-3
			H460z M434.7,320.7l2.1,0.5v-0.8c-0.9,0-1.6-0.2-2.1-0.5V320.7z M436.3,331.5c0,0.8-0.5,1.3-1.6,1.3l0.4,2.1l-0.4,0.8v0.5h0.4
			c0-0.8,0.8-1.3,2.5-1.3l-0.5-0.8v-0.5l0.5-2.1H436.3z M435.5,349.4c0,0.5-0.3,1-0.8,1.6v2.1h0.4l1.3-0.8c-0.3-1.2-0.5-2.2-0.5-2.9
			H435.5z M434.7,354.4v0.8c0.5,0,1.1,0.5,2.1,1.3h0.8V356c-0.5-0.6-0.8-1.2-0.8-1.6H434.7z M434.7,357.7v1.6h0.8
			c-0.3-0.5-0.5-1-0.5-1.6H434.7z M434.7,362.7c0.5,1.9,0.8,3,0.8,3.3l3.7-2.9h0.5l0.8,0.4v-0.8c-0.8,0-1.3-0.3-1.3-0.8
			s0.8-0.8,2.5-0.8v-0.5c-1.9,0-2.9-0.8-2.9-2.5c-2.3,2.3-3.6,3.3-4.2,3.3V362.7z M434.7,366.4v2.1c2.7,0.3,4.3,0.5,4.5,0.5v-2.1
			h-0.8c0,1.1-0.3,1.6-0.8,1.6l-2.5-2.1H434.7z M435.1,232.1c0.1,0.5,0.4,0.8,0.8,0.8v-0.8H435.1z M435.1,315.3v0.4h0.8v-0.4H435.1z
			 M435.1,327.8v0.4h0.8v-0.4H435.1z M438.4,361.4v0.5c0,0.5-0.5,1-1.6,1.6h-0.5c-0.5,0-0.8-0.3-0.8-0.8v-0.5
			c0.5-1.1,1.4-1.6,2.4-1.6L438.4,361.4z M436.3,347.7v0.9h0.5v-0.9H436.3z M437.6,329.4v1.3h0.4v-1.3H437.6z M437.9,351v0.8h0.5
			V351H437.9z M438.4,349.4v1.3c0.5,0,0.8-0.3,0.8-0.9L438.4,349.4z M440.5,315.3c0,1.1-0.5,1.6-1.6,1.6v0.5h2.1l0.4-2.1H440.5z
			 M441.3,331.1v-0.4c-0.5-1.2-1.4-1.7-2.4-1.7c0.2,0.7,0.9,1.4,2.1,2.1H441.3z M440.9,372.3c0-0.5-0.3-0.8-0.9-0.8h-0.4
			c-0.5,0.1-0.8,0.4-0.8,0.8H440.9z M439.7,324.8v0.5h0.8v-0.5H439.7z M439.7,341.5c0.9,0,1.6,0.2,2.1,0.5v-0.8
			c0-0.5-0.3-0.8-0.8-0.8c0,0.5-0.5,0.8-1.3,0.8V341.5z M440,346.5v0.8h1.3v-0.8c0-0.6-0.3-0.9-0.8-0.9L440,346.5z M440.5,369v1.6
			h0.5V369H440.5z M440.9,348.6v0.4c0.2,0,0.5,0.2,1.2,0.5v-0.8c0-0.6-0.3-0.9-0.8-0.9L440.9,348.6z M442.1,367.3l-0.4,0.8
			c1.1,1.5,1.6,2.9,1.6,4.2h2.1c0-0.8,0.5-1.3,1.3-1.3l2.1,1.3l0.5-0.8V371c-0.8,0-1.7-0.7-2.5-2.1c0,0.8-0.3,1.3-0.8,1.3h-1.7
			c-0.5,0-0.8-0.3-0.8-0.8l1.7-2.1l-2.1,0.4L442.1,367.3z M442.1,364.8v0.5c0.3,0.6,0.5,1,0.5,1.2h0.5v-0.4c-0.3-0.6-0.5-1-0.5-1.3
			H442.1z M444.6,359v1.6c1.2,0,2.1,0.2,2.5,0.5v-0.9c-0.8,0-1.3-0.4-1.3-1.2H444.6z M445.9,310.3v0.9c0.5,0,0.8-0.3,0.8-0.9H445.9z
			 M446.3,240.8h0.5c0.4,0,0.8-0.5,1.3-1.3h-0.8c-0.6,0.1-0.9,0.4-0.9,0.9V240.8z M446.7,230h1.6l-0.4-0.9c-0.6,0.3-1,0.5-1.3,0.5
			V230z M447.2,366.1l0.8,1.3c-0.5,0.3-0.9,0.4-1.3,0.4v0.5h1.6c0-0.9,0.2-1.6,0.5-2.1H447.2z M447.2,222.9v0.9
			c0.1,0.5,0.4,0.8,0.8,0.8h0.8v-1.3L447.2,222.9z M449.6,227.1v0.9h0.5v-0.9H449.6z M451.7,371v1.3h1.7c0-0.4-0.5-0.8-1.3-1.3
			H451.7z M454.6,221.7v0.4h0.9v-0.4H454.6z M455,222.5l-0.5,2.4h0.9v-2.4H455z M455,241.6v42.1h3.7c7.5,0,11.3-2.9,11.3-8.8v-21.6
			c0-7.8-2.3-11.7-6.7-11.7H455z M455,310.3v42.1h8.8c4.2,0,6.2-3.7,6.2-11.2v-20c0-7.2-3.2-10.9-9.6-10.9H455z M456.3,364.8v0.8
			h0.4v-0.8H456.3z M457.1,224.2c-0.3,0.6-0.5,1-0.5,1.3h0.9c0-0.9,0.5-2,1.6-3.3v-0.4h-1.3c-0.4,0-0.8,0.5-1.3,1.6L457.1,224.2z
			 M457.1,362.3v0.5h1.3v-0.5H457.1z M460,233.7v0.8h0.5v-0.8H460z M461.7,223.8v0.8c0.1,0.5,0.4,0.8,0.8,0.8c0.6-0.3,1-0.5,1.3-0.5
			c0-0.5-0.5-0.8-1.3-1.2H461.7z M462.5,232.9l0.8-0.5c1.7,0.3,2.8,0.5,3.3,0.5l0.8-2.1h-1.3c-1.2,0.8-2.4,1.3-3.7,1.3V232.9z
			 M462.9,221.7v0.8c1.4,0,2.4,0.3,3,0.8v-1.3h-2.1L462.9,221.7z M462.9,226.2v0.5h0.9v-0.5H462.9z M467.1,227.1v-0.4l-0.8-1.7
			c-0.5,0.3-1,0.5-1.6,0.5c0,0.4,0.7,0.9,2.1,1.6H467.1z M468,228v0.8l1.2-0.8c0,0.3,0.5,0.7,1.3,1.2h0.5c-0.5-0.6-0.8-1.2-0.8-1.6
			L468,228z M471.2,222.9c0,1.7-0.1,2.7-0.4,3h1.3l-0.5-3H471.2z M475.4,225.9v-0.5c-0.5-0.7-0.8-1.3-0.8-1.6h-0.8
			c-0.5,0-0.8,0.4-1.3,1.2L475.4,225.9z M472.5,232.1v0.4h0.8v-0.4H472.5z M472.5,237.9h1.3v-1.3c-0.6,0.3-1,0.5-1.3,0.5V237.9z
			 M472.9,235.4h0.4c0.5,0,1-0.5,1.7-1.6h-0.5c-1.1,0.5-1.6,0.8-1.6,1.3V235.4z M478.7,247.5v0.8h0.8v-0.8H478.7z M478.7,303.7v0.8
			h0.5v-0.8H478.7z M479.5,226.7v0.4h0.9v-0.4H479.5z M480.5,256.2v0.5h0.8v-0.5H480.5z M481.6,235.8v0.8h1.7v-0.8H481.6z
			 M481.6,254.1c0.1,0.6,0.4,0.9,0.9,0.9l0.4-0.9H481.6z M481.6,344h0.9c0-0.5-0.3-0.8-0.9-0.8V344z M482.1,351.5h1.3V351
			c-0.4,0-0.8-0.1-1.3-0.4V351.5z M483.3,229.1v-0.8c-0.5,0.1-0.8,0.4-0.8,0.8H483.3z M483.3,336.9c0.1,0.5,0.4,0.8,0.8,0.8h1.3
			c0-0.5-0.7-0.9-2.1-1.3V336.9z M484.2,237.1v0.4h0.8v-0.4H484.2z M484.2,254.5v0.5h0.8v-0.5H484.2z M484.6,344.4
			c0.1,0.5,0.4,0.8,0.8,0.8h0.4v-0.8c-0.2,0-0.5-0.2-1.2-0.5V344.4z M485,349.8h1.7V349c-0.5,0.3-1.1,0.5-1.7,0.5V349.8z
			 M485.4,321.6h1.6l0.5-0.9v-0.4c-0.7,0.5-1.4,0.8-2.1,0.8V321.6z M486.7,309.4c0,0.3-0.2,0.6-0.5,1.3h0.8v-1.3H486.7z
			 M486.2,337.8v0.8h0.5v-0.8H486.2z M486.2,342.4v0.4c0.1,0.5,0.4,0.8,0.8,0.8v-1.2H486.2z M486.2,355.7v0.4h1.6v-0.4H486.2z
			 M487.5,325.3c1.4-0.5,2.4-0.8,2.9-0.8c0-0.4-0.5-0.8-1.3-1.3c0,0.8-0.7,1.3-2.1,1.3L487.5,325.3z M487.5,246.2v0.8h0.4v-0.8
			H487.5z M487.9,250.8c0.1,0.5,0.5,0.8,0.9,0.8l0.4-0.8H487.9z M488.8,314.9v0.5h0.8v-0.5H488.8z M489.6,333.6v0.8h0.4v-0.8H489.6z
			"/>
		<path id="XMLID_64_" class="st7" d="M607.6,244.7v109c0,19.8-5.3,32.8-15.8,38.7c-5.7,4.5-14.3,6.6-25.9,6.6h-2.8
			c-19.2,0-31.7-8.3-37.3-24.8c-1.6-4.8-2.4-9.8-2.4-14.9V239c0-19.3,8.6-31.9,25.8-37.7c4.6-1.4,10-2,16.3-2
			c19.5,0,32.3,7.1,38.2,21.1C606.3,225.1,607.6,233.2,607.6,244.7z M536.8,234.7v0.4h0.9v-0.4H536.8z M538.3,223.2v0.5h1.4v-0.5
			H538.3z M538.7,231.3v0.5h0.9v-0.5H538.7z M540.2,220.8v1.5c0.9,0,1.5,0.6,1.5,1.9c0.5,0,0.9-0.4,1.5-1.4v-1l-1,0.5
			c-0.6,0-0.9-0.5-0.9-1.5H540.2z M543.1,220.4v0.4h1.9v-0.4H543.1z M543.1,321.2v0.9h0.9v-0.9H543.1z M543.1,325.9v0.5
			c0.6,0,0.9,0.8,0.9,2.4l0.9-0.5c-0.4-1.6-0.9-2.4-1.5-2.4H543.1z M544,227v0.9h0.4V227H544z M544.4,334.1v0.5h1v-0.5H544.4z
			 M544.4,380.9c0.1,0.6,0.5,0.9,1,0.9h1.9c0-0.6-0.9-1.2-2.9-1.9V380.9z M545.9,216c0.5,0,1.1-0.6,2-1.9h-0.5
			c-0.4,0-0.9,0.5-1.5,1.5V216z M548.3,225.2v0.9h0.5v-0.9H548.3z M549.2,377.1v0.5h1v-0.5H549.2z M550.2,382.4v0.9h0.9v-0.9H550.2z
			 M552.1,385.7v0.5h0.9v-0.5H552.1z M552.6,218v0.4h0.9V218H552.6z M555.9,381.4v-0.9c-0.6,0.1-0.9,0.4-0.9,0.9H555.9z
			 M555.9,384.7v0.5c0.3,0.5,0.4,1.1,0.4,1.9h0.5v-1.9L555.9,384.7z M556.9,355.6c0,6.8,2.6,10.1,7.7,10.1h2.4
			c4.8,0,7.2-4.6,7.2-13.8V246.7c0-9.6-2.9-14.3-8.6-14.3c-5.7,0.6-8.6,4.2-8.6,10.5V355.6z M581.7,270.6v0.9h0.5v-0.9H581.7z
			 M583.2,248l2.9,0.5v-1.9h-0.5c-0.7,0.6-1.5,0.9-2.4,0.9V248z M584.1,268.6v0.5h0.9v-0.5H584.1z M584.6,239v0.5h1.5V239H584.6z
			 M585,291.6v0.9h2.4c0-0.6-0.3-0.9-0.9-0.9H585z M585,319.3c0.1,0.6,0.5,0.9,1,0.9c0.6,0,0.9-0.3,0.9-0.9H585z M585.6,236.1v1h0.5
			v-1H585.6z M585.6,267.1v1.5h0.5v-1.5H585.6z M586.1,239.9v1.5h0.4v-1.5H586.1z M587,252.8v1l0.9,1.4v0.5c0,0.6-0.6,0.9-1.9,0.9
			v0.9h0.4c1.6-1.2,2.6-1.9,2.9-1.9v-1.5c0-0.4-0.5-0.9-1.5-1.5H587z M586.1,283.5v0.9h1.4c0-0.6-0.3-0.9-0.9-0.9H586.1z
			 M586.5,216.6v0.4h0.9v-0.4H586.5z M586.5,244.7v1.5h0.9c-0.3-0.5-0.4-1-0.4-1.5H586.5z M587,274.8v0.9h0.4v-0.9H587z
			 M587.4,223.7v0.9c0.7,0,1-0.3,1-0.9H587.4z M587.4,228v1.5h0.5V228H587.4z M587.9,258.6v0.9h0.9v-0.9H587.9z M590.3,277.7v-2
			c-0.7,0.6-1.5,0.9-2.4,0.9c0.1,0.7,0.4,1,0.9,1H590.3z M588.9,230.4h2l0.4-0.9h-0.4c-0.5,0.3-1.2,0.5-2,0.5V230.4z M588.9,237.5
			h1.5v-0.9c-0.7,0.3-1.1,0.5-1.5,0.5V237.5z M590.3,289.2c0,0.3-0.2,0.7-0.5,1.5c0.5,1.2,1,1.9,1.5,1.9v-3.3H590.3z M596,238.5
			c0,0.7-0.5,1-1.5,1l0.5,0.9l-1.5,2.8c1,0,1.9,0.8,2.4,2.4c0,0.4-0.5,0.9-1.5,1.5h-1.4v-0.9l0.4-0.9l-0.9-0.5h-1.9v0.5l4.8,3.3h0.4
			c0-2,0.5-2.9,1.5-2.9l-0.9-1.4c0-0.3,0.1-0.5,0.4-0.5c-0.6-1.7-0.9-2.9-0.9-3.8l0.5-0.9v-0.5H596z M590.9,271.5l0.4,2.4h0.5v-2.4
			H590.9z M591.3,220.8v0.9h0.5v-0.9H591.3z M595.6,258.1c0,1-1.5,1.9-4.4,2.4v3.3h0.5c0-1.8,0.8-3.1,2.4-3.8h0.9
			c0.6,0.1,0.9,0.4,0.9,1c0.7-0.3,1.1-0.5,1.5-0.5l-0.5-2.4H595.6z M594.2,232.3c0,0.9-0.8,1.4-2.4,1.4v1l0.4,0.9
			c0.8-0.3,1.3-0.5,1.5-0.5l2.4,0.5v-3.3H594.2z M591.8,306.4v0.4h0.9v-0.4H591.8z M592.2,223.7v0.9h0.5v-0.9H592.2z M592.2,237.1
			v0.9h0.5v-0.9H592.2z M593.2,266.2v-0.9c-0.7,0.1-1,0.4-1,0.9H593.2z M592.2,279.1l2,0.5l0.9-1.5c-0.3,0-0.5-0.1-0.5-0.4
			c-0.5,0.3-1.2,0.4-2.4,0.4V279.1z M592.7,281.5c0,0.7-0.2,1.5-0.5,2h2v-0.9c0-0.7-0.3-1-0.9-1H592.7z M592.2,297.3v0.9h0.5v-0.9
			H592.2z M592.2,319.3v0.4l2.4,0.5v-0.9l-0.9,0.4l-0.9-0.4H592.2z M592.7,226.1h0.9c0-0.6-0.3-0.9-0.9-0.9V226.1z M594.6,266.7
			l0.5,0.9v1.5h-0.5l-0.9-0.5l-0.9,1.5c0.5,0,1.1,0.3,1.9,0.9c0-0.6,0.9-2.2,2.9-4.8v-0.4c-0.3-0.8-0.5-1.4-0.5-1.5L594.6,266.7z
			 M593.2,266.7v1.5c0.6,0,0.9-0.3,0.9-1L593.2,266.7z M593.7,293.4v0.5h0.9v-0.5H593.7z M593.7,302.1c0.5,0,1.1-0.6,2-1.9h-0.5
			c-0.4,0-0.9,0.5-1.5,1.5V302.1z M594.2,263.4v0.4c0.1,0.6,0.4,0.9,0.9,0.9c0.9-2.2,1.5-3.2,1.5-3.3c-0.5,0-1.1,0.6-2,2H594.2z
			 M594.2,274.3v1h3.3v-0.5l-2.4-0.5H594.2z M594.6,286.3c0,0.7,0.6,1,2,1v0.9c0,0.6-0.3,0.9-0.9,0.9c-0.3-0.7-0.5-1.1-0.5-1.5
			l-0.9,0.5c0.3,0.5,0.4,1.1,0.4,1.9l2.9-0.4v-2.9L594.6,286.3z M594.2,313.1c0.1,0.6,0.4,0.9,0.9,0.9v-0.9H594.2z M594.6,272.4h1
			c0-0.6-0.3-0.9-1-0.9V272.4z M595.1,296.3l-0.5,1.9c0.6-0.3,1.1-0.4,1.5-0.4c-0.3-0.5-0.4-1-0.4-1.5H595.1z M597.5,325
			c0-0.6-0.3-0.9-0.9-0.9h-0.9c-0.7,0.1-1,0.4-1,0.9H597.5z M596,304c-0.2,1.2-0.5,1.9-0.9,1.9c0.3,0.7,0.5,1.1,0.5,1.5h0.4
			c0-1.9,0.2-3,0.5-3.3H596z M595.6,334.1v0.5h1.4v-0.5H595.6z M596,253.3c0.3,2.2,0.8,3.3,1.5,3.3v-1.5l-0.5-2.4L596,253.3z
			 M596,278.7h1.5v-0.9c-0.3,0-0.7-0.2-1.5-0.5V278.7z M597,249.1v0.9h0.5v-0.9H597z M597,271v1.5h0.5V271H597z"/>
		<path id="XMLID_4_" class="st7" d="M720.4,188.8c0.6,0,1.4,0.7,2.2,2.3v38c0,0.6-0.7,1.4-2.2,2.2h-26.2v184.1c0,2.6-1.4,4-4,4
			h-35.2c-2.6,0-4-1.4-4-4V231.4h-26.8c-1.5-0.4-2.2-2.1-2.2-5.1v-31.9c0-2.8,1-4.8,2.8-5.7H720.4z M637.4,212.1v0.6h1.7v-0.6H637.4
			z M643.7,211v0.5h1.1V211H643.7z M644.2,216.7v0.5c0.1,0.9,0.5,1.2,1.2,1.2l0.5-1.2v-0.5H644.2z M645.4,202.5
			c0,0.6,0.5,1.1,1.6,1.7c1.6-0.9,3-1.2,4.1-1.2v-0.5H645.4z M645.4,209.3v1.1h0.5v-1.1H645.4z M649.4,211v1.1h0.5V211H649.4z
			 M653.3,204.7c0,0.6-0.4,1.6-1.1,2.8h1.1c0-0.9,0.2-1.6,0.6-2.2v-0.6H653.3z M656.2,215.6v-1.2h-0.6c-0.7,0.1-1.1,0.5-1.1,1.2
			c0.1,0.7,0.5,1.1,1.1,1.1L656.2,215.6z M658.4,208.2c0.1,0.7,0.6,1.1,1.2,1.1v-1.1H658.4z M659,211.5v1.2h0.6l1.6-1.2
			c1,0.7,2.3,1.4,4.1,1.7l0.5-1.1c-0.6,0-2.7-0.6-6.2-1.7L659,211.5z M659.6,215c0,0.4-0.2,0.9-0.6,1.7c0.6,0,1.4,0.4,2.2,1.1
			c0-0.7,1-1.1,2.8-1.1v-1.1l-1.1,0.5h-1.7L659.6,215z M660.7,218.4v1.1h0.5v-1.1H660.7z M661.8,205.8h1.1c0-1.5,0.4-2.2,1.1-2.2
			h1.2l1.1,0.6c0-0.4,0.1-0.6,0.5-0.6c-0.5-1.5-1-2.2-1.6-2.2c-0.4,1.1-1.5,1.6-3.5,1.6V205.8z M663,224.1v1.1h0.6v-1.1H663z
			 M663,236c0.1,0.7,0.5,1.1,1.1,1.1c0.9,0,1.2-0.4,1.2-1.1v-0.5c-0.6,0-1.5-0.4-2.3-1.2V236z M663.6,207.1v0.5
			c0,0.5,0.6,1.1,1.7,1.7h2.8v-0.6c-1.1,0-1.7-0.5-1.7-1.6H663.6z M664.1,336.5v1.2h0.6v-1.2H664.1z M664.7,218.9v0.6h1.1v-0.6
			H664.7z M664.7,324.6v1.1c0.7,0,1.1-0.4,1.1-1.1H664.7z M665.3,230.3h1.6v-1.1c-0.9,0.4-1.4,0.6-1.6,0.6V230.3z M665.8,224.1v0.5
			h1.1v-0.5H665.8z M666.4,233.1h1.1c0-0.7-0.4-1.1-1.1-1.1V233.1z M667.5,201.9v0.6h1.1v-0.6H667.5z M670.4,215
			c0,1.6-1,2.8-2.8,3.5v0.5c1.1,0,1.7,0.4,1.7,1.1l-0.6,1.2h1.7l-0.6-2.8c1.1-1.6,1.7-2.8,1.7-3.5H670.4z M668.6,213.2l5.7,0.6
			l-1.7-2.8v-1.1c0.1-0.9,0.5-1.2,1.2-1.2c0.1,0.9,0.5,1.2,1.1,1.2c0.6-0.4,1.4-0.6,2.2-0.6v-1.1l-1.1,0.5c-0.6,0-1.9-0.4-3.5-1.1
			c-1,0-2.3,1.7-4,5.2V213.2z M668.6,334.2c0.1,0.7,0.5,1.1,1.1,1.1h0.6v-1.1H668.6z M670.4,206.5c0-0.7,0.7-1.1,2.2-1.1l-0.5-1.1
			c-1.1,0.4-2,1.1-2.3,2.2H670.4z M670.4,225.2c0,0.1-0.2,0.7-0.6,1.7v1.1h0.6c0-0.9,0.2-1.7,0.6-2.3v-0.5H670.4z M670.4,232
			c0.4,1.5,1.4,2.2,2.8,2.2v-1.1c-0.6,0-1.4-0.4-2.2-1.1H670.4z M671,323.5c0.1,0.7,0.5,1.1,1.1,1.1v-1.1H671z M672.1,263.9v0.5h1.1
			v-0.5H672.1z M672.6,226.9v1.1h0.6v-1.1H672.6z M672.6,343.9v0.6h1.2v-0.6H672.6z M673.2,201.4v1.1h2.8v-1.1H673.2z M673.2,216.7
			c1.1,1.4,1.7,2.2,1.7,2.8h1.7v-2.3c-1.4,0-2.6-0.4-3.5-1.1V216.7z M673.2,238.8v1.1h0.6v-1.1H673.2z M673.8,236.6v0.5h1.1v-0.5
			H673.8z M674.3,205.3v0.5c0.6,0,1.5,0.4,2.3,1.2v-1.7H674.3z M676.7,229.2h1.1v-1.1c0-0.7-0.4-1.1-1.1-1.1V229.2z M677.2,215.6
			c0.9-0.4,1.4-0.6,1.7-0.6v-0.6c0-0.6-0.6-1.1-1.7-1.6V215.6z M677.2,320.7v1.1h1.1v-1.1H677.2z M678.3,201.4v1.6h1.2
			c0-0.4,0.1-1,0.5-1.6H678.3z M678.3,211.5v0.6h1.2v-0.6H678.3z M680,212.1c0,0.6,1.7,2.2,5.2,4.6v-1.1c-1.1,0-2-1-2.3-2.8
			L680,212.1z M681.7,205.3v1.1h2.8v-0.6L681.7,205.3z M684.6,202.5v1.1h0.6v-1.1H684.6z M688.5,205.8l-2.2,4.1h2.8l0.5-3.5
			L688.5,205.8z M689.1,201.4l0.5,2.8h0.6v-2.8H689.1z M689.1,213.9v1.1h0.5v-1.1H689.1z M689.1,217.2v0.6c0.9,0,1.9,0.4,2.8,1.1
			v-2.2L689.1,217.2z M692,205.8v1.2h1.1v-1.2H692z M695.3,205.8c0.7-0.4,1.4-0.5,1.7-0.5c-0.4-0.6-0.5-1.2-0.5-1.7h-0.6
			c-0.5,0-1.1,0.6-1.7,1.7L695.3,205.8z M696.5,201.9v1.1c1.2,0,2.2,0.2,2.8,0.6v-1.1L696.5,201.9z M697.7,207.1h1.1
			c0-0.9-0.4-1.2-1.1-1.2V207.1z M700.5,213.9v1.1h0.5v-1.1H700.5z M701,207.6c0.4,0.6,0.6,1.5,0.6,2.3h0.6v-2.8L701,207.6z
			 M702.2,216.7v1.7h0.5v-1.7H702.2z M702.7,201.4c0.7,0.9,1.1,1.7,1.1,2.8h0.6v-2.3l-1.1-0.5H702.7z"/>
	</g>
</g>
</svg>
