<?xml version="1.0" encoding="UTF-8" standalone="no"?>
<!-- Created with Inkscape (http://www.inkscape.org/) -->

<svg
   xmlns:dc="http://purl.org/dc/elements/1.1/"
   xmlns:cc="http://creativecommons.org/ns#"
   xmlns:rdf="http://www.w3.org/1999/02/22-rdf-syntax-ns#"
   xmlns:svg="http://www.w3.org/2000/svg"
   xmlns="http://www.w3.org/2000/svg"
   xmlns:sodipodi="http://sodipodi.sourceforge.net/DTD/sodipodi-0.dtd"
   xmlns:inkscape="http://www.inkscape.org/namespaces/inkscape"
   version="1.1"
   id="svg115"
   width="576"
   height="460"
   viewBox="0 0 576 460"
   sodipodi:docname="téléchargement.svg"
   inkscape:version="0.92.4 (5da689c313, 2019-01-14)">
  <metadata
     id="metadata121">
    <rdf:RDF>
      <cc:Work
         rdf:about="">
        <dc:format>image/svg+xml</dc:format>
        <dc:type
           rdf:resource="http://purl.org/dc/dcmitype/StillImage" />
        <dc:title></dc:title>
      </cc:Work>
    </rdf:RDF>
  </metadata>
  <defs
     id="defs119" />
  <sodipodi:namedview
     pagecolor="#ffffff"
     bordercolor="#666666"
     borderopacity="1"
     objecttolerance="10"
     gridtolerance="10"
     guidetolerance="10"
     inkscape:pageopacity="0"
     inkscape:pageshadow="2"
     inkscape:window-width="1530"
     inkscape:window-height="836"
     id="namedview117"
     showgrid="false"
     inkscape:zoom="1.3265938"
     inkscape:cx="98.282861"
     inkscape:cy="266.08314"
     inkscape:window-x="70"
     inkscape:window-y="27"
     inkscape:window-maximized="1"
     inkscape:current-layer="svg115" />
  <path
     style="fill:#000000;stroke-width:0.75381023"
     d="m 182.90683,451.41843 c -0.51085,-1.33125 -5.54928,-1.5839 -5.54928,-0.27827 0,1.50623 -5.04787,0.13121 -8.67191,-2.3622 -1.89078,-1.30088 -4.28846,-3.65071 -5.32818,-5.22184 -2.11416,-3.19471 -3.30437,-8.34461 -1.92855,-8.34461 0.47167,0 0.85244,-1.17847 0.85244,-2.63833 0,-1.45109 -0.33921,-2.63834 -0.75381,-2.63834 -2.25319,0 0.40501,-7.43968 3.99571,-11.18302 3.96373,-4.13222 10.77844,-7.06506 11.57755,-4.98261 0.58259,1.5182 5.53343,1.48126 5.53343,-0.0413 0,-0.98465 3.59257,-1.13071 27.81032,-1.13071 24.02492,0 27.86939,0.1539 28.24423,1.13071 0.27637,0.7202 1.43595,1.13072 3.19393,1.13072 h 2.76002 l -0.45505,-3.5806 c -0.39317,-3.09369 0.28543,-5.85979 4.99019,-20.34092 4.95303,-15.2453 5.59854,-16.76139 7.14131,-16.77227 1.47422,-0.0104 1.69607,-0.40638 1.69607,-3.02721 v -3.01524 h -3.01524 c -2.17768,0 -3.01524,0.31409 -3.01524,1.13072 0,0.99786 -9.25512,1.13071 -78.77317,1.13071 -69.51805,0 -78.773172,-0.13285 -78.773172,-1.13071 0,-0.81663 -0.83756,-1.13072 -3.01524,-1.13072 -1.75276,0 -3.01524,0.35946 -3.01524,0.85851 0,0.59451 -1.42365,0.72941 -4.6298,0.43869 -14.61791,-1.3255 -30.77097,-17.47857 -32.09648,-32.09648 -0.29072,-3.20615 -0.15582,-4.6298 0.43869,-4.6298 0.49905,0 0.85851,-1.26248 0.85851,-3.01524 0,-2.17768 -0.31409,-3.01524 -1.13072,-3.01524 -1.00083,0 -1.13071,-15.36936 -1.13071,-133.80132 0,-118.431959 0.12988,-133.801319 1.13071,-133.801319 0.78971,0 1.13072,-0.79569 1.13072,-2.63833 0,-1.47857 -0.37928,-2.63834 -0.86282,-2.63834 -1.42079,0 -0.19942,-8.92524 1.85679,-13.56858 5.32129,-12.01653 17.14449,-21.49168 29.25031,-23.44126 3.99791,-0.64385 4.80318,-0.58201 5.35919,0.41153 0.83335,1.48912 3.89892,1.5111 5.3715,0.0385 0.99944,-0.99944 24.537732,-1.13072 202.748142,-1.13072 178.52012,0 201.66714,0.12954 202.05134,1.13072 0.58515,1.52489 4.9118,1.49447 5.50012,-0.0387 0.36025,-0.93881 1.21023,-1.07404 4.31075,-0.68583 10.39487,1.30151 22.11493,9.48703 28.02639,19.57418 3.79611,6.47757 6.07731,16.11334 4.10351,17.33321 -1.25322,0.77454 -0.92795,5.65358 0.37691,5.65358 1.00083,0 1.13071,15.36935 1.13071,133.801319 0,118.43196 -0.12988,133.80132 -1.13071,133.80132 -0.81663,0 -1.13072,0.83756 -1.13072,3.01524 0,1.65838 0.33922,3.01524 0.75381,3.01524 1.31562,0 0.81434,5.73524 -0.90006,10.29782 -4.18911,11.14852 -11.47247,18.88199 -22.78538,24.1935 -4.23515,1.98844 -12.49745,3.17776 -12.49745,1.79896 0,-1.33552 -5.78204,-1.08828 -6.30308,0.26952 -0.38184,0.99506 -9.84523,1.13071 -78.87748,1.13071 -69.03224,0 -78.49564,-0.13565 -78.87747,-1.13071 -0.28445,-0.74124 -1.4604,-1.13072 -3.41399,-1.13072 h -2.9801 l 0.23395,2.82679 c 0.18445,2.22861 0.57726,2.87572 1.8563,3.058 1.77323,0.25273 2.1314,0.99391 5.17028,10.69904 1.10347,3.52406 2.44057,7.42638 2.97134,8.67184 0.53077,1.24544 1.22079,3.45034 1.53336,4.89976 0.31257,1.44942 1.09209,3.65296 1.73227,4.89675 0.73888,1.43555 1.11864,3.982 1.03986,6.97274 l -0.12411,4.71132 h 2.63841 c 1.84271,0 2.63841,-0.34101 2.63841,-1.13072 0,-0.98465 3.59258,-1.13071 27.81033,-1.13071 24.02491,0 27.86939,0.1539 28.24423,1.13071 0.5807,1.5133 5.75788,1.56793 5.75788,0.0608 0,-0.87227 0.52229,-0.9261 2.82679,-0.29137 6.28838,1.73204 11.99846,7.71519 13.34924,13.98764 0.42049,1.95259 0.28591,2.44988 -0.66302,2.44988 -1.66369,0 -1.59583,4.22118 0.083,5.16067 3.11227,1.74172 -3.40665,12.05021 -9.62726,15.22373 -3.12096,1.59219 -5.96871,1.93681 -5.96871,0.7223 0,-1.2526 -5.81112,-0.90512 -6.30308,0.3769 -0.383,0.99811 -13.65616,1.13072 -113.17584,1.13072 -99.51968,0 -112.79284,-0.13261 -113.17584,-1.13072 z M 107.25321,317.99402 c 0,-1.00207 21.48358,-1.13072 188.82946,-1.13072 170.59261,0 188.82946,0.1136 188.82946,1.17623 0,0.89823 0.66807,1.12092 2.82679,0.94226 2.5821,-0.21371 2.84727,-0.44647 3.06339,-2.68903 0.16295,-1.69084 -0.13036,-2.59587 -0.94226,-2.90743 -1.06245,-0.40771 -1.17887,-12.3095 -1.17887,-120.52381 0,-106.034779 0.13218,-120.122159 1.13072,-120.505329 1.35353,-0.5194 1.49628,-3.58317 0.22614,-4.85331 -1.40152,-1.40152 -4.23126,-1.06861 -5.12591,0.60305 -0.80354,1.50142 -1.57834,1.50762 -188.44972,1.50762 H 108.81955 l -1.46249,-1.56981 c -0.88652,-0.95157 -2.15981,-1.4711 -3.23306,-1.31917 -1.44658,0.20478 -1.81337,0.76789 -2.00452,3.07743 -0.17866,2.15872 0.044,2.82679 0.94227,2.82679 1.06083,0 1.17622,11.78687 1.17622,120.152079 0,106.10647 -0.13218,120.20281 -1.13072,120.58598 -0.70971,0.27234 -1.13072,1.42506 -1.13072,3.09589 0,2.53974 0.12117,2.662 2.63834,2.662 1.84265,0 2.63834,-0.34101 2.63834,-1.13072 z"
     id="path137"
     inkscape:connector-curvature="0" />
  <path
     style="fill:#666666;stroke-width:0.75381023"
     d="m 182.13414,450.69298 c -2.13168,-0.77347 -3.2782,-0.80698 -5.02692,-0.14691 -3.0474,1.15026 -7.42396,-0.81996 -11.39771,-5.13098 -3.35533,-3.6401 -5.35483,-8.87995 -3.93163,-10.30315 1.14456,-1.14456 1.1246,-3.97729 -0.0412,-5.84396 -1.46203,-2.34108 2.20568,-9.08279 6.74526,-12.39864 3.90777,-2.85435 7.87651,-4.17869 8.34157,-2.78351 0.38294,1.14881 4.90158,1.07883 6.07461,-0.0941 0.7184,-0.71832 7.28448,-0.94227 27.62722,-0.94227 20.34284,0 26.90878,0.22395 27.62704,0.94227 0.51821,0.51824 2.2312,0.94226 3.80667,0.94226 h 2.86448 v -4.35514 c 0,-7.28317 8.77879,-34.13942 11.8084,-36.1245 1.34441,-0.88089 1.76018,-1.84506 1.76018,-4.08186 0,-2.69336 -0.16647,-2.92818 -2.07298,-2.9239 -1.14014,0.002 -3.04459,0.51138 -4.23212,1.13071 -1.874,0.97736 -12.28656,1.12608 -78.8458,1.12608 -68.29624,0 -76.947195,-0.12998 -79.067832,-1.18789 -1.973844,-0.98468 -2.846839,-1.03419 -5.10346,-0.28944 -11.559376,3.81494 -30.951173,-10.16943 -35.827444,-25.83693 -1.532841,-4.92503 -1.811539,-9.27564 -0.640554,-9.99935 1.085106,-0.67064 0.930317,-5.46911 -0.188452,-5.84203 -0.749068,-0.24969 -0.942263,-27.61123 -0.942263,-133.44954 0,-105.503284 0.195566,-133.331021 0.942263,-134.077718 1.172541,-1.172541 1.22886,-4.575479 0.0945,-5.70984 -1.420835,-1.420836 -0.03226,-8.655558 2.79264,-14.550133 3.479146,-7.259759 10.742752,-14.543361 18.210028,-18.260158 6.078253,-3.025419 13.060557,-4.3507 14.89607,-2.827359 0.725472,0.602088 1.980843,0.733417 3.574898,0.373983 10.148166,-2.288251 394.997876,-2.280724 408.860746,0.008 1.97763,0.326502 3.30159,0.213204 3.62508,-0.310218 0.79283,-1.282836 5.30652,-0.974582 10.05055,0.686385 10.0826,3.53009 20.12527,12.976544 23.94844,22.526637 2.26797,5.665314 3.20653,11.684272 1.94366,12.464768 -1.14024,0.704706 -1.07674,4.425669 0.0955,5.597953 0.7467,0.746708 0.94227,28.574455 0.94227,134.07772 0,105.83831 -0.1932,133.19984 -0.94227,133.44953 -1.20434,0.40144 -1.22088,4.28563 -0.0264,6.19833 1.27101,2.03522 -0.19823,8.7563 -3.29053,15.05258 -6.21509,12.65467 -23.97483,23.67522 -33.053,20.51055 -1.82919,-0.63765 -3.07986,-0.57559 -5.51778,0.27384 -4.80875,1.67546 -154.30977,1.66565 -158.32112,-0.0104 -1.4884,-0.6219 -3.56512,-1.13072 -4.61492,-1.13072 -1.65328,0 -1.90719,0.32789 -1.89719,2.44988 0.013,2.74752 0.47316,3.60157 2.56048,4.75165 1.00046,0.55123 3.00763,5.39316 6.56219,15.83001 4.11475,12.0817 5.12749,15.96153 5.15453,19.74719 l 0.0337,4.71133 h 2.95242 c 1.69185,0 3.08655,-0.40231 3.26657,-0.94226 0.24348,-0.73029 6.35388,-0.94227 27.16237,-0.94227 20.47354,0 27.07194,0.22373 27.79041,0.94227 1.18046,1.18054 6.4456,1.242 6.83302,0.0797 0.21202,-0.63606 1.06229,-0.6068 3.23869,0.11147 6.31021,2.08256 14.40629,13.21832 11.29335,15.53344 -1.45687,1.08349 -1.42686,2.94288 0.0889,5.50891 1.13614,1.92333 1.11582,2.24851 -0.31582,5.05475 -1.92393,3.77123 -6.94525,8.84083 -10.01674,10.11308 -1.8478,0.76539 -2.86943,0.78051 -4.83014,0.0715 -2.01826,-0.72981 -3.10417,-0.68413 -5.76472,0.24246 -2.87421,1.001 -16.92937,1.13218 -114.08815,1.06475 -90.13551,-0.0626 -111.32535,-0.26385 -113.57163,-1.0789 z m -73.8633,-132.43512 c 1.38476,-1.38477 374.23888,-1.38477 375.62365,0 1.19938,1.19937 5.33488,1.22327 6.52046,0.0377 1.17763,-1.17763 1.15778,-3.81738 -0.0377,-5.01283 -1.44696,-1.44692 -1.37389,-238.036097 0.0743,-240.742218 1.27425,-2.381024 0.92773,-4.270226 -1.01662,-5.542391 -1.27712,-0.835607 -1.96862,-0.766849 -4.52286,0.449715 -2.9396,1.400106 -7.69821,1.436777 -189.67944,1.461714 -165.02498,0.02261 -186.77294,-0.105502 -187.60256,-1.105138 -1.24765,-1.503325 -4.98827,-1.461943 -5.57293,0.06165 -0.76961,2.005562 -0.51027,4.694906 0.48471,5.026577 1.38382,0.461288 1.38382,239.006301 0,240.390091 -0.51825,0.51824 -0.94226,2.06166 -0.94226,3.42983 0,2.37781 0.12639,2.48757 2.86448,2.48757 1.57546,0 3.28849,-0.42402 3.80673,-0.94226 z"
     id="path7"
     inkscape:connector-curvature="0" />
</svg>
